%TF.GenerationSoftware,Altium Limited,Altium Designer,24.6.1 (21)*%
G04 Layer_Physical_Order=4*
G04 Layer_Color=16711680*
%FSLAX45Y45*%
%MOMM*%
%TF.SameCoordinates,18E76ECD-83C5-444D-8C50-6D49F83D0F89*%
%TF.FilePolarity,Positive*%
%TF.FileFunction,Copper,L4,Bot,Signal*%
%TF.Part,Single*%
G01*
G75*
%TA.AperFunction,Conductor*%
%ADD37C,0.30000*%
%ADD38C,0.38100*%
%TA.AperFunction,ComponentPad*%
%ADD39C,1.10000*%
%ADD40R,1.80000X1.80000*%
%ADD41C,1.80000*%
%ADD42C,1.57480*%
%ADD43R,1.57480X1.57480*%
%ADD44R,1.80000X1.80000*%
%TA.AperFunction,ViaPad*%
%ADD45C,0.45000*%
%ADD46C,0.65000*%
%ADD47C,0.60000*%
G36*
X1824511Y-1536470D02*
X1579360D01*
X1572097Y-1523970D01*
X1575000Y-1516962D01*
Y-1503038D01*
X1569671Y-1490174D01*
X1559826Y-1480329D01*
X1546962Y-1475000D01*
X1533038D01*
X1520174Y-1480329D01*
X1510328Y-1490174D01*
X1505000Y-1503038D01*
Y-1516962D01*
X1507902Y-1523970D01*
X1500640Y-1536470D01*
X1369360D01*
X1362097Y-1523970D01*
X1365000Y-1516962D01*
Y-1503038D01*
X1359671Y-1490174D01*
X1349826Y-1480329D01*
X1336962Y-1475000D01*
X1323038D01*
X1310174Y-1480329D01*
X1300328Y-1490174D01*
X1295000Y-1503038D01*
Y-1516962D01*
X1297902Y-1523970D01*
X1290640Y-1536470D01*
X480000D01*
X470433Y-1540433D01*
X466470Y-1550000D01*
Y-2024512D01*
X186626D01*
X181448Y-2012011D01*
X188013Y-2005446D01*
X196900Y-1990054D01*
X201500Y-1972887D01*
Y-1955114D01*
X196900Y-1937946D01*
X188013Y-1922554D01*
X175446Y-1909987D01*
X160054Y-1901100D01*
X142886Y-1896500D01*
X125114D01*
X107946Y-1901100D01*
X92554Y-1909987D01*
X79987Y-1922554D01*
X71100Y-1937946D01*
X66500Y-1955114D01*
Y-1972887D01*
X71100Y-1990054D01*
X79987Y-2005446D01*
X86552Y-2012011D01*
X81374Y-2024512D01*
X-67374D01*
X-72552Y-2012011D01*
X-65987Y-2005446D01*
X-57100Y-1990054D01*
X-52500Y-1972887D01*
Y-1955114D01*
X-57100Y-1937946D01*
X-65987Y-1922554D01*
X-78554Y-1909987D01*
X-93946Y-1901100D01*
X-111114Y-1896500D01*
X-128886D01*
X-146054Y-1901100D01*
X-161446Y-1909987D01*
X-174013Y-1922554D01*
X-182900Y-1937946D01*
X-187500Y-1955114D01*
Y-1972887D01*
X-182900Y-1990054D01*
X-174013Y-2005446D01*
X-167448Y-2012011D01*
X-172626Y-2024512D01*
X-613374D01*
X-618552Y-2012011D01*
X-611987Y-2005446D01*
X-603100Y-1990054D01*
X-598500Y-1972887D01*
Y-1955114D01*
X-603100Y-1937946D01*
X-611987Y-1922554D01*
X-624554Y-1909987D01*
X-639946Y-1901100D01*
X-657114Y-1896500D01*
X-674887D01*
X-692054Y-1901100D01*
X-707446Y-1909987D01*
X-720014Y-1922554D01*
X-728900Y-1937946D01*
X-733500Y-1955114D01*
Y-1972887D01*
X-728900Y-1990054D01*
X-720014Y-2005446D01*
X-713448Y-2012011D01*
X-718626Y-2024512D01*
X-867374D01*
X-872552Y-2012011D01*
X-865987Y-2005446D01*
X-857100Y-1990054D01*
X-852500Y-1972887D01*
Y-1955114D01*
X-857100Y-1937946D01*
X-865987Y-1922554D01*
X-878554Y-1909987D01*
X-893946Y-1901100D01*
X-911114Y-1896500D01*
X-928887D01*
X-946054Y-1901100D01*
X-961446Y-1909987D01*
X-974014Y-1922554D01*
X-982900Y-1937946D01*
X-987500Y-1955114D01*
Y-1972887D01*
X-982900Y-1990054D01*
X-974014Y-2005446D01*
X-967448Y-2012011D01*
X-972626Y-2024512D01*
X-1824512D01*
Y2024512D01*
X1824511D01*
Y-1536470D01*
D02*
G37*
G36*
Y-2024512D02*
X926908D01*
X921648Y-2011812D01*
X928013Y-2005446D01*
X936900Y-1990054D01*
X941500Y-1972887D01*
Y-1955114D01*
X936900Y-1937946D01*
X928013Y-1922554D01*
X915446Y-1909987D01*
X900054Y-1901100D01*
X882886Y-1896500D01*
X865113D01*
X847946Y-1901100D01*
X832554Y-1909987D01*
X819986Y-1922554D01*
X811100Y-1937946D01*
X806500Y-1955114D01*
Y-1972887D01*
X811100Y-1990054D01*
X819986Y-2005446D01*
X826352Y-2011812D01*
X821091Y-2024512D01*
X672908D01*
X667648Y-2011812D01*
X674013Y-2005446D01*
X682900Y-1990054D01*
X687500Y-1972887D01*
Y-1955114D01*
X682900Y-1937946D01*
X674013Y-1922554D01*
X661446Y-1909987D01*
X646054Y-1901100D01*
X628886Y-1896500D01*
X611113D01*
X593946Y-1901100D01*
X578554Y-1909987D01*
X565986Y-1922554D01*
X557100Y-1937946D01*
X552500Y-1955114D01*
Y-1972887D01*
X557100Y-1990054D01*
X565986Y-2005446D01*
X572352Y-2011812D01*
X567091Y-2024512D01*
X480000D01*
Y-1550000D01*
X1824511D01*
Y-2024512D01*
D02*
G37*
%LPC*%
G36*
X-58760Y941240D02*
X-241240D01*
Y758760D01*
X-58760D01*
Y941240D01*
D02*
G37*
G36*
X-391988D02*
X-416012D01*
X-439218Y935022D01*
X-460023Y923010D01*
X-477010Y906023D01*
X-489023Y885217D01*
X-495240Y862012D01*
Y837988D01*
X-489023Y814782D01*
X-477010Y793977D01*
X-460023Y776990D01*
X-439218Y764977D01*
X-416012Y758760D01*
X-391988D01*
X-368783Y764977D01*
X-347977Y776990D01*
X-330990Y793977D01*
X-318978Y814782D01*
X-312760Y837988D01*
Y862012D01*
X-318978Y885217D01*
X-330990Y906023D01*
X-347977Y923010D01*
X-368783Y935022D01*
X-391988Y941240D01*
D02*
G37*
G36*
X-645988D02*
X-670012D01*
X-693218Y935022D01*
X-714023Y923010D01*
X-731010Y906023D01*
X-743023Y885217D01*
X-749240Y862012D01*
Y837988D01*
X-743023Y814782D01*
X-731010Y793977D01*
X-714023Y776990D01*
X-693218Y764977D01*
X-670012Y758760D01*
X-645988D01*
X-622783Y764977D01*
X-601977Y776990D01*
X-584990Y793977D01*
X-572978Y814782D01*
X-566760Y837988D01*
Y862012D01*
X-572978Y885217D01*
X-584990Y906023D01*
X-601977Y923010D01*
X-622783Y935022D01*
X-645988Y941240D01*
D02*
G37*
G36*
X-1058760D02*
X-1241240D01*
Y758760D01*
X-1058760D01*
Y941240D01*
D02*
G37*
G36*
X-1391988D02*
X-1416012D01*
X-1439218Y935022D01*
X-1460023Y923010D01*
X-1477011Y906023D01*
X-1489023Y885217D01*
X-1495240Y862012D01*
Y837988D01*
X-1489023Y814782D01*
X-1477011Y793977D01*
X-1460023Y776990D01*
X-1439218Y764977D01*
X-1416012Y758760D01*
X-1391988D01*
X-1368783Y764977D01*
X-1347977Y776990D01*
X-1330990Y793977D01*
X-1318978Y814782D01*
X-1312760Y837988D01*
Y862012D01*
X-1318978Y885217D01*
X-1330990Y906023D01*
X-1347977Y923010D01*
X-1368783Y935022D01*
X-1391988Y941240D01*
D02*
G37*
G36*
X-1645988D02*
X-1670012D01*
X-1693218Y935022D01*
X-1714023Y923010D01*
X-1731011Y906023D01*
X-1743023Y885217D01*
X-1749240Y862012D01*
Y837988D01*
X-1743023Y814782D01*
X-1731011Y793977D01*
X-1714023Y776990D01*
X-1693218Y764977D01*
X-1670012Y758760D01*
X-1645988D01*
X-1622783Y764977D01*
X-1601977Y776990D01*
X-1584990Y793977D01*
X-1572978Y814782D01*
X-1566760Y837988D01*
Y862012D01*
X-1572978Y885217D01*
X-1584990Y906023D01*
X-1601977Y923010D01*
X-1622783Y935022D01*
X-1645988Y941240D01*
D02*
G37*
G36*
X-1655114Y-458500D02*
X-1672887D01*
X-1690054Y-463100D01*
X-1705446Y-471987D01*
X-1718014Y-484554D01*
X-1726900Y-499946D01*
X-1731500Y-517114D01*
Y-534886D01*
X-1726900Y-552054D01*
X-1718014Y-567446D01*
X-1705446Y-580013D01*
X-1690054Y-588900D01*
X-1672887Y-593500D01*
X-1655114D01*
X-1637946Y-588900D01*
X-1622554Y-580013D01*
X-1609987Y-567446D01*
X-1601100Y-552054D01*
X-1596500Y-534886D01*
Y-517114D01*
X-1601100Y-499946D01*
X-1609987Y-484554D01*
X-1622554Y-471987D01*
X-1637946Y-463100D01*
X-1655114Y-458500D01*
D02*
G37*
G36*
X-1307500Y-423500D02*
X-1512500D01*
Y-628500D01*
X-1307500D01*
Y-423500D01*
D02*
G37*
G36*
X618951Y-155000D02*
X601049D01*
X584509Y-161851D01*
X571851Y-174509D01*
X565000Y-191049D01*
Y-208951D01*
X571851Y-225491D01*
X584509Y-238149D01*
X601049Y-245000D01*
X609508D01*
X977846Y-613339D01*
X988282Y-620312D01*
X1000592Y-622761D01*
X1409174D01*
X1415155Y-628742D01*
X1431694Y-635593D01*
X1449597D01*
X1466136Y-628742D01*
X1478795Y-616083D01*
X1485646Y-599544D01*
Y-581641D01*
X1478795Y-565102D01*
X1466136Y-552443D01*
X1449597Y-545592D01*
X1431694D01*
X1415155Y-552443D01*
X1409174Y-558424D01*
X1013916D01*
X655000Y-199508D01*
Y-191049D01*
X648149Y-174509D01*
X635490Y-161851D01*
X618951Y-155000D01*
D02*
G37*
G36*
X-1655114Y-712500D02*
X-1672887D01*
X-1690054Y-717100D01*
X-1705446Y-725987D01*
X-1718014Y-738554D01*
X-1726900Y-753946D01*
X-1731500Y-771114D01*
Y-788886D01*
X-1726900Y-806054D01*
X-1718014Y-821446D01*
X-1705446Y-834013D01*
X-1690054Y-842900D01*
X-1672887Y-847500D01*
X-1655114D01*
X-1637946Y-842900D01*
X-1622554Y-834013D01*
X-1609987Y-821446D01*
X-1601100Y-806054D01*
X-1596500Y-788886D01*
Y-771114D01*
X-1601100Y-753946D01*
X-1609987Y-738554D01*
X-1622554Y-725987D01*
X-1637946Y-717100D01*
X-1655114Y-712500D01*
D02*
G37*
G36*
X-1396506Y-677500D02*
X-1423494D01*
X-1449564Y-684485D01*
X-1472937Y-697980D01*
X-1492021Y-717064D01*
X-1505515Y-740436D01*
X-1512500Y-766506D01*
Y-793494D01*
X-1505515Y-819564D01*
X-1492021Y-842936D01*
X-1472937Y-862020D01*
X-1449564Y-875515D01*
X-1423494Y-882500D01*
X-1396506D01*
X-1370437Y-875515D01*
X-1347064Y-862020D01*
X-1327980Y-842936D01*
X-1314486Y-819564D01*
X-1307500Y-793494D01*
Y-766506D01*
X-1314486Y-740436D01*
X-1327980Y-717064D01*
X-1347064Y-697980D01*
X-1370437Y-684485D01*
X-1396506Y-677500D01*
D02*
G37*
G36*
X1038951Y135000D02*
X1021049D01*
X1004509Y128149D01*
X991850Y115490D01*
X985000Y98951D01*
Y84653D01*
X948386Y48039D01*
X470000D01*
X459270Y45904D01*
X450173Y39826D01*
X-102327Y-512674D01*
X-108405Y-521770D01*
X-110539Y-532500D01*
Y-856899D01*
X-120649Y-867009D01*
X-127500Y-883549D01*
Y-901451D01*
X-120649Y-917991D01*
X-107991Y-930649D01*
X-91451Y-937500D01*
X-73549D01*
X-57010Y-930649D01*
X-44351Y-917991D01*
X-37500Y-901451D01*
Y-883549D01*
X-44351Y-867009D01*
X-54461Y-856899D01*
Y-544114D01*
X481614Y-8039D01*
X960000D01*
X970730Y-5904D01*
X979826Y173D01*
X1024653Y45000D01*
X1038951D01*
X1055490Y51851D01*
X1068149Y64509D01*
X1075000Y81049D01*
Y98951D01*
X1068149Y115490D01*
X1055490Y128149D01*
X1038951Y135000D01*
D02*
G37*
G36*
X1546962Y-975000D02*
X1533038D01*
X1520174Y-980328D01*
X1510328Y-990174D01*
X1505000Y-1003038D01*
Y-1016962D01*
X1510328Y-1029826D01*
X1520174Y-1039672D01*
X1533038Y-1045000D01*
X1546962D01*
X1559826Y-1039672D01*
X1569671Y-1029826D01*
X1575000Y-1016962D01*
Y-1003038D01*
X1569671Y-990174D01*
X1559826Y-980328D01*
X1546962Y-975000D01*
D02*
G37*
G36*
X1336962D02*
X1323038D01*
X1310174Y-980328D01*
X1300328Y-990174D01*
X1295000Y-1003038D01*
Y-1016962D01*
X1300328Y-1029826D01*
X1310174Y-1039672D01*
X1323038Y-1045000D01*
X1336962D01*
X1349826Y-1039672D01*
X1359671Y-1029826D01*
X1365000Y-1016962D01*
Y-1003038D01*
X1359671Y-990174D01*
X1349826Y-980328D01*
X1336962Y-975000D01*
D02*
G37*
G36*
X1546962Y-1075000D02*
X1533038D01*
X1520174Y-1080329D01*
X1510328Y-1090174D01*
X1505000Y-1103038D01*
Y-1116962D01*
X1510328Y-1129826D01*
X1520174Y-1139672D01*
X1533038Y-1145000D01*
X1546962D01*
X1559826Y-1139672D01*
X1569671Y-1129826D01*
X1575000Y-1116962D01*
Y-1103038D01*
X1569671Y-1090174D01*
X1559826Y-1080329D01*
X1546962Y-1075000D01*
D02*
G37*
G36*
X1336962D02*
X1323038D01*
X1310174Y-1080329D01*
X1300328Y-1090174D01*
X1295000Y-1103038D01*
Y-1116962D01*
X1300328Y-1129826D01*
X1310174Y-1139672D01*
X1323038Y-1145000D01*
X1336962D01*
X1349826Y-1139672D01*
X1359671Y-1129826D01*
X1365000Y-1116962D01*
Y-1103038D01*
X1359671Y-1090174D01*
X1349826Y-1080329D01*
X1336962Y-1075000D01*
D02*
G37*
G36*
X1546962Y-1175000D02*
X1533038D01*
X1520174Y-1180329D01*
X1510328Y-1190174D01*
X1505000Y-1203038D01*
Y-1216962D01*
X1510328Y-1229826D01*
X1520174Y-1239672D01*
X1533038Y-1245000D01*
X1546962D01*
X1559826Y-1239672D01*
X1569671Y-1229826D01*
X1575000Y-1216962D01*
Y-1203038D01*
X1569671Y-1190174D01*
X1559826Y-1180329D01*
X1546962Y-1175000D01*
D02*
G37*
G36*
X1336962D02*
X1323038D01*
X1310174Y-1180329D01*
X1300328Y-1190174D01*
X1295000Y-1203038D01*
Y-1216962D01*
X1300328Y-1229826D01*
X1310174Y-1239672D01*
X1323038Y-1245000D01*
X1336962D01*
X1349826Y-1239672D01*
X1359671Y-1229826D01*
X1365000Y-1216962D01*
Y-1203038D01*
X1359671Y-1190174D01*
X1349826Y-1180329D01*
X1336962Y-1175000D01*
D02*
G37*
G36*
X1546962Y-1275000D02*
X1533038D01*
X1520174Y-1280329D01*
X1510328Y-1290174D01*
X1505000Y-1303038D01*
Y-1316962D01*
X1510328Y-1329826D01*
X1520174Y-1339672D01*
X1533038Y-1345000D01*
X1546962D01*
X1559826Y-1339672D01*
X1569671Y-1329826D01*
X1575000Y-1316962D01*
Y-1303038D01*
X1569671Y-1290174D01*
X1559826Y-1280329D01*
X1546962Y-1275000D01*
D02*
G37*
G36*
X1336962D02*
X1323038D01*
X1310174Y-1280329D01*
X1300328Y-1290174D01*
X1295000Y-1303038D01*
Y-1316962D01*
X1300328Y-1329826D01*
X1310174Y-1339672D01*
X1323038Y-1345000D01*
X1336962D01*
X1349826Y-1339672D01*
X1359671Y-1329826D01*
X1365000Y-1316962D01*
Y-1303038D01*
X1359671Y-1290174D01*
X1349826Y-1280329D01*
X1336962Y-1275000D01*
D02*
G37*
G36*
X1546962Y-1375000D02*
X1533038D01*
X1520174Y-1380329D01*
X1510328Y-1390174D01*
X1505000Y-1403038D01*
Y-1416962D01*
X1510328Y-1429826D01*
X1520174Y-1439672D01*
X1533038Y-1445000D01*
X1546962D01*
X1559826Y-1439672D01*
X1569671Y-1429826D01*
X1575000Y-1416962D01*
Y-1403038D01*
X1569671Y-1390174D01*
X1559826Y-1380329D01*
X1546962Y-1375000D01*
D02*
G37*
G36*
X1336962D02*
X1323038D01*
X1310174Y-1380329D01*
X1300328Y-1390174D01*
X1295000Y-1403038D01*
Y-1416962D01*
X1300328Y-1429826D01*
X1310174Y-1439672D01*
X1323038Y-1445000D01*
X1336962D01*
X1349826Y-1439672D01*
X1359671Y-1429826D01*
X1365000Y-1416962D01*
Y-1403038D01*
X1359671Y-1390174D01*
X1349826Y-1380329D01*
X1336962Y-1375000D01*
D02*
G37*
G36*
X149798Y-1590000D02*
X149000D01*
Y-1695000D01*
X254000D01*
Y-1694202D01*
X245822Y-1663682D01*
X230024Y-1636319D01*
X207682Y-1613976D01*
X180318Y-1598178D01*
X149798Y-1590000D01*
D02*
G37*
G36*
X119000D02*
X118202D01*
X87682Y-1598178D01*
X60318Y-1613976D01*
X37976Y-1636319D01*
X22178Y-1663682D01*
X14000Y-1694202D01*
Y-1695000D01*
X119000D01*
Y-1590000D01*
D02*
G37*
G36*
X-800000D02*
X-905000D01*
Y-1695000D01*
X-800000D01*
Y-1590000D01*
D02*
G37*
G36*
X-935000D02*
X-1040000D01*
Y-1695000D01*
X-935000D01*
Y-1590000D01*
D02*
G37*
G36*
X-17500Y-1607500D02*
X-222500D01*
Y-1812500D01*
X-17500D01*
Y-1607500D01*
D02*
G37*
G36*
X-652506D02*
X-679494D01*
X-705564Y-1614485D01*
X-728937Y-1627980D01*
X-748021Y-1647064D01*
X-761515Y-1670437D01*
X-768500Y-1696506D01*
Y-1723494D01*
X-761515Y-1749564D01*
X-748021Y-1772937D01*
X-728937Y-1792021D01*
X-705564Y-1805515D01*
X-679494Y-1812500D01*
X-652506D01*
X-626437Y-1805515D01*
X-603064Y-1792021D01*
X-583980Y-1772937D01*
X-570486Y-1749564D01*
X-563500Y-1723494D01*
Y-1696506D01*
X-570486Y-1670437D01*
X-583980Y-1647064D01*
X-603064Y-1627980D01*
X-626437Y-1614485D01*
X-652506Y-1607500D01*
D02*
G37*
G36*
X254000Y-1725000D02*
X149000D01*
Y-1830000D01*
X149798D01*
X180318Y-1821822D01*
X207682Y-1806024D01*
X230024Y-1783682D01*
X245822Y-1756318D01*
X254000Y-1725798D01*
Y-1725000D01*
D02*
G37*
G36*
X119000D02*
X14000D01*
Y-1725798D01*
X22178Y-1756318D01*
X37976Y-1783682D01*
X60318Y-1806024D01*
X87682Y-1821822D01*
X118202Y-1830000D01*
X119000D01*
Y-1725000D01*
D02*
G37*
G36*
X-800000D02*
X-905000D01*
Y-1830000D01*
X-800000D01*
Y-1725000D01*
D02*
G37*
G36*
X-935000D02*
X-1040000D01*
Y-1830000D01*
X-935000D01*
Y-1725000D01*
D02*
G37*
G36*
X740000Y-1590000D02*
X635000D01*
Y-1695000D01*
X740000D01*
Y-1590000D01*
D02*
G37*
G36*
X605000D02*
X500000D01*
Y-1695000D01*
X605000D01*
Y-1590000D01*
D02*
G37*
G36*
X887494Y-1607500D02*
X860506D01*
X834436Y-1614485D01*
X811063Y-1627980D01*
X791979Y-1647064D01*
X778485Y-1670437D01*
X771500Y-1696506D01*
Y-1723494D01*
X778485Y-1749564D01*
X791979Y-1772937D01*
X811063Y-1792021D01*
X834436Y-1805515D01*
X860506Y-1812500D01*
X887494D01*
X913563Y-1805515D01*
X936936Y-1792021D01*
X956020Y-1772937D01*
X969514Y-1749564D01*
X976500Y-1723494D01*
Y-1696506D01*
X969514Y-1670437D01*
X956020Y-1647064D01*
X936936Y-1627980D01*
X913563Y-1614485D01*
X887494Y-1607500D01*
D02*
G37*
G36*
X740000Y-1725000D02*
X635000D01*
Y-1830000D01*
X740000D01*
Y-1725000D01*
D02*
G37*
G36*
X605000D02*
X500000D01*
Y-1830000D01*
X605000D01*
Y-1725000D01*
D02*
G37*
%LPD*%
D37*
X-82500Y-532500D02*
X470000Y20000D01*
X960000D02*
X1030000Y90000D01*
X470000Y20000D02*
X960000D01*
X-82500Y-892500D02*
Y-532500D01*
D38*
X1000592Y-590592D02*
X1440646D01*
X610000Y-200000D02*
X1000592Y-590592D01*
D39*
X620000Y-1964000D02*
D03*
X874000D02*
D03*
X-1664000Y-526000D02*
D03*
Y-780000D02*
D03*
X-120000Y-1964000D02*
D03*
X134000D02*
D03*
X-920000D02*
D03*
X-666000D02*
D03*
D40*
X620000Y-1710000D02*
D03*
X-120000D02*
D03*
X-920000D02*
D03*
D41*
X874000D02*
D03*
X-1410000Y-780000D02*
D03*
X134000Y-1710000D02*
D03*
X-666000D02*
D03*
D42*
X-404000Y850000D02*
D03*
X-658000D02*
D03*
X-1404000D02*
D03*
X-1658000D02*
D03*
D43*
X-150000D02*
D03*
X-1150000D02*
D03*
D44*
X-1410000Y-526000D02*
D03*
D45*
X950000Y100000D02*
D03*
X870000Y110000D02*
D03*
X720000Y100000D02*
D03*
X560000Y90000D02*
D03*
X730000Y190000D02*
D03*
X1670000Y590001D02*
D03*
Y90001D02*
D03*
Y-409999D02*
D03*
Y-909999D02*
D03*
Y-1409999D02*
D03*
X1545000Y1840001D02*
D03*
Y840001D02*
D03*
X1420000Y590001D02*
D03*
X1545000Y340001D02*
D03*
X1295000Y1840001D02*
D03*
Y840001D02*
D03*
Y340001D02*
D03*
X1170000Y-409999D02*
D03*
X1045000Y1840001D02*
D03*
X920000Y-1409999D02*
D03*
X795000Y1840001D02*
D03*
X670000Y-409999D02*
D03*
X795000Y-1159999D02*
D03*
X670000Y-1409999D02*
D03*
X545000Y1840001D02*
D03*
Y-1159999D02*
D03*
X420000Y-1409999D02*
D03*
Y-1909999D02*
D03*
X295000Y1840001D02*
D03*
Y-1159999D02*
D03*
X170000Y-1409999D02*
D03*
X295000Y-1659999D02*
D03*
X45000Y1840001D02*
D03*
X-80000Y1590001D02*
D03*
X-205000Y1840001D02*
D03*
X-330000Y1590001D02*
D03*
X-205000Y1340001D02*
D03*
X-330000Y-1909999D02*
D03*
X-455000Y1840001D02*
D03*
X-580000Y1590001D02*
D03*
X-455000Y1340001D02*
D03*
Y-1659999D02*
D03*
X-705000Y1840001D02*
D03*
X-830000Y1590001D02*
D03*
X-705000Y1340001D02*
D03*
X-955000Y1840001D02*
D03*
X-1080000Y1590001D02*
D03*
X-955000Y1340001D02*
D03*
Y-1159999D02*
D03*
X-1080000Y-1409999D02*
D03*
Y-1909999D02*
D03*
X-1205000Y1840001D02*
D03*
X-1330000Y1590001D02*
D03*
X-1205000Y1340001D02*
D03*
Y-1159999D02*
D03*
X-1330000Y-1409999D02*
D03*
X-1205000Y-1659999D02*
D03*
X-1330000Y-1909999D02*
D03*
X-1455000Y1840001D02*
D03*
X-1580000Y1590001D02*
D03*
X-1455000Y1340001D02*
D03*
Y-1159999D02*
D03*
X-1580000Y-1409999D02*
D03*
X-1455000Y-1659999D02*
D03*
X-1580000Y-1909999D02*
D03*
X-465000Y-1360000D02*
D03*
X-415000D02*
D03*
X-365000D02*
D03*
X-365000Y-1310000D02*
D03*
X-415000D02*
D03*
X-465000D02*
D03*
X1330000Y-1110000D02*
D03*
Y-1210000D02*
D03*
Y-1310000D02*
D03*
Y-1410000D02*
D03*
Y-1510000D02*
D03*
Y-1610000D02*
D03*
Y-1710000D02*
D03*
Y-1810000D02*
D03*
Y-1910000D02*
D03*
Y-1010000D02*
D03*
X1260000Y-1495000D02*
D03*
Y-1395000D02*
D03*
Y-1295000D02*
D03*
Y-1195000D02*
D03*
Y-1095000D02*
D03*
X1235000Y-881674D02*
D03*
X1135000D02*
D03*
X1035000D02*
D03*
X935000D02*
D03*
X835000D02*
D03*
X735000D02*
D03*
X635000D02*
D03*
X535000D02*
D03*
X435000D02*
D03*
X335000D02*
D03*
X235000D02*
D03*
X134999D02*
D03*
X935000Y-1071674D02*
D03*
X835000D02*
D03*
X735000D02*
D03*
X635000D02*
D03*
X535000D02*
D03*
X435000D02*
D03*
X335000D02*
D03*
X235000D02*
D03*
X134999D02*
D03*
X1070000Y-1095000D02*
D03*
Y-1195000D02*
D03*
Y-1295000D02*
D03*
Y-1395000D02*
D03*
Y-1495000D02*
D03*
X1540000Y-1010000D02*
D03*
Y-1910000D02*
D03*
Y-1810000D02*
D03*
Y-1710000D02*
D03*
Y-1610000D02*
D03*
Y-1510000D02*
D03*
Y-1410000D02*
D03*
Y-1310000D02*
D03*
Y-1210000D02*
D03*
Y-1110000D02*
D03*
X670000Y-580000D02*
D03*
Y-490000D02*
D03*
D46*
X-82500Y-892500D02*
D03*
X1030000Y90000D02*
D03*
X610000Y-200000D02*
D03*
X1440646Y-590592D02*
D03*
D47*
X-1199999Y250000D02*
D03*
X-1060000Y670000D02*
D03*
X-1130000Y600000D02*
D03*
X-1200000Y670000D02*
D03*
X-1410000Y180000D02*
D03*
X-1200000Y390000D02*
D03*
X-1270000Y600000D02*
D03*
X-1200000Y530000D02*
D03*
X-1340000D02*
D03*
X-1410000Y460000D02*
D03*
Y320000D02*
D03*
X-1340000Y390000D02*
D03*
%TF.MD5,1df639e85be60f80a78443c5a7d6dda6*%
M02*
