%TF.GenerationSoftware,Altium Limited,Altium Designer,24.6.1 (21)*%
G04 Layer_Color=16711935*
%FSLAX45Y45*%
%MOMM*%
%TF.SameCoordinates,18E76ECD-83C5-444D-8C50-6D49F83D0F89*%
%TF.FilePolarity,Negative*%
%TF.FileFunction,Soldermask,Bot*%
%TF.Part,Single*%
G01*
G75*
%TA.AperFunction,ComponentPad*%
%ADD39C,1.10000*%
%ADD80R,2.00320X2.00320*%
%ADD81C,2.00320*%
%ADD82C,1.77800*%
%ADD83R,1.77800X1.77800*%
%ADD84R,2.00320X2.00320*%
%TA.AperFunction,ViaPad*%
%ADD85C,0.85320*%
%ADD86C,0.65320*%
D39*
X620000Y-1964000D02*
D03*
X874000D02*
D03*
X-1664000Y-526000D02*
D03*
Y-780000D02*
D03*
X-120000Y-1964000D02*
D03*
X134000D02*
D03*
X-920000D02*
D03*
X-666000D02*
D03*
D80*
X620000Y-1710000D02*
D03*
X-120000D02*
D03*
X-920000D02*
D03*
D81*
X874000D02*
D03*
X-1410000Y-780000D02*
D03*
X134000Y-1710000D02*
D03*
X-666000D02*
D03*
D82*
X-404000Y850000D02*
D03*
X-658000D02*
D03*
X-1404000D02*
D03*
X-1658000D02*
D03*
D83*
X-150000D02*
D03*
X-1150000D02*
D03*
D84*
X-1410000Y-526000D02*
D03*
D85*
X-82500Y-892500D02*
D03*
X1030000Y90000D02*
D03*
X610000Y-200000D02*
D03*
X1440646Y-590592D02*
D03*
D86*
X670000Y-580000D02*
D03*
Y-490000D02*
D03*
%TF.MD5,88a525e9043ee51c160f6e1ad0d4caf6*%
M02*
