%TF.GenerationSoftware,Altium Limited,Altium Designer,24.6.1 (21)*%
G04 Layer_Color=2752767*
%FSLAX45Y45*%
%MOMM*%
%TF.SameCoordinates,18E76ECD-83C5-444D-8C50-6D49F83D0F89*%
%TF.FilePolarity,Positive*%
%TF.FileFunction,Drawing*%
%TF.Part,Single*%
G01*
G75*
%TA.AperFunction,NonConductor*%
%ADD95C,0.12700*%
%ADD96C,0.16933*%
D95*
X620000Y-2014800D02*
X569200Y-1913200D01*
X670800D01*
X620000Y-2014800D01*
X874000D02*
X823200Y-1913200D01*
X924800D01*
X874000Y-2014800D01*
X-454800Y799200D02*
Y900800D01*
X-353200D01*
Y799200D01*
X-454800D01*
X-200800D02*
Y900800D01*
X-99200D01*
Y799200D01*
X-200800D01*
X-708800D02*
Y900800D01*
X-607200D01*
Y799200D01*
X-708800D01*
X-1454800D02*
Y900800D01*
X-1353200D01*
Y799200D01*
X-1454800D01*
X-1200800D02*
Y900800D01*
X-1099200D01*
Y799200D01*
X-1200800D01*
X-1708800D02*
Y900800D01*
X-1607200D01*
Y799200D01*
X-1708800D01*
X-1664000Y-576800D02*
X-1714800Y-475200D01*
X-1613200D01*
X-1664000Y-576800D01*
Y-830800D02*
X-1714800Y-729200D01*
X-1613200D01*
X-1664000Y-830800D01*
X-120000Y-2014800D02*
X-170800Y-1913200D01*
X-69200D01*
X-120000Y-2014800D01*
X134000D02*
X83200Y-1913200D01*
X184800D01*
X134000Y-2014800D01*
X-920000D02*
X-970800Y-1913200D01*
X-869200D01*
X-920000Y-2014800D01*
X-666000D02*
X-716800Y-1913200D01*
X-615200D01*
X-666000Y-2014800D01*
X899200Y49200D02*
X924600Y100000D01*
X899200Y150800D01*
X950000Y125400D01*
X1000800Y150800D01*
X975400Y100000D01*
X1000800Y49200D01*
X950000Y74600D01*
X899200Y49200D01*
X819200Y59200D02*
X844600Y110000D01*
X819200Y160800D01*
X870000Y135400D01*
X920800Y160800D01*
X895400Y110000D01*
X920800Y59200D01*
X870000Y84600D01*
X819200Y59200D01*
X669200Y49200D02*
X694600Y100000D01*
X669200Y150800D01*
X720000Y125400D01*
X770800Y150800D01*
X745400Y100000D01*
X770800Y49200D01*
X720000Y74600D01*
X669200Y49200D01*
X509200Y39200D02*
X534600Y90000D01*
X509200Y140800D01*
X560000Y115400D01*
X610800Y140800D01*
X585400Y90000D01*
X610800Y39200D01*
X560000Y64600D01*
X509200Y39200D01*
X679200Y139200D02*
X704600Y190000D01*
X679200Y240800D01*
X730000Y215400D01*
X780800Y240800D01*
X755400Y190000D01*
X780800Y139200D01*
X730000Y164600D01*
X679200Y139200D01*
X1619200Y539201D02*
X1644600Y590001D01*
X1619200Y640801D01*
X1670000Y615401D01*
X1720800Y640801D01*
X1695400Y590001D01*
X1720800Y539201D01*
X1670000Y564601D01*
X1619200Y539201D01*
Y39201D02*
X1644600Y90001D01*
X1619200Y140801D01*
X1670000Y115401D01*
X1720800Y140801D01*
X1695400Y90001D01*
X1720800Y39201D01*
X1670000Y64601D01*
X1619200Y39201D01*
Y-460799D02*
X1644600Y-409999D01*
X1619200Y-359199D01*
X1670000Y-384599D01*
X1720800Y-359199D01*
X1695400Y-409999D01*
X1720800Y-460799D01*
X1670000Y-435399D01*
X1619200Y-460799D01*
Y-960799D02*
X1644600Y-909999D01*
X1619200Y-859199D01*
X1670000Y-884599D01*
X1720800Y-859199D01*
X1695400Y-909999D01*
X1720800Y-960799D01*
X1670000Y-935399D01*
X1619200Y-960799D01*
Y-1460799D02*
X1644600Y-1409999D01*
X1619200Y-1359199D01*
X1670000Y-1384599D01*
X1720800Y-1359199D01*
X1695400Y-1409999D01*
X1720800Y-1460799D01*
X1670000Y-1435399D01*
X1619200Y-1460799D01*
X1494200Y1789201D02*
X1519600Y1840001D01*
X1494200Y1890801D01*
X1545000Y1865401D01*
X1595800Y1890801D01*
X1570400Y1840001D01*
X1595800Y1789201D01*
X1545000Y1814601D01*
X1494200Y1789201D01*
Y789201D02*
X1519600Y840001D01*
X1494200Y890801D01*
X1545000Y865401D01*
X1595800Y890801D01*
X1570400Y840001D01*
X1595800Y789201D01*
X1545000Y814601D01*
X1494200Y789201D01*
X1369200Y539201D02*
X1394600Y590001D01*
X1369200Y640801D01*
X1420000Y615401D01*
X1470800Y640801D01*
X1445400Y590001D01*
X1470800Y539201D01*
X1420000Y564601D01*
X1369200Y539201D01*
X1494200Y289201D02*
X1519600Y340001D01*
X1494200Y390801D01*
X1545000Y365401D01*
X1595800Y390801D01*
X1570400Y340001D01*
X1595800Y289201D01*
X1545000Y314601D01*
X1494200Y289201D01*
X1244200Y1789201D02*
X1269600Y1840001D01*
X1244200Y1890801D01*
X1295000Y1865401D01*
X1345800Y1890801D01*
X1320400Y1840001D01*
X1345800Y1789201D01*
X1295000Y1814601D01*
X1244200Y1789201D01*
Y789201D02*
X1269600Y840001D01*
X1244200Y890801D01*
X1295000Y865401D01*
X1345800Y890801D01*
X1320400Y840001D01*
X1345800Y789201D01*
X1295000Y814601D01*
X1244200Y789201D01*
Y289201D02*
X1269600Y340001D01*
X1244200Y390801D01*
X1295000Y365401D01*
X1345800Y390801D01*
X1320400Y340001D01*
X1345800Y289201D01*
X1295000Y314601D01*
X1244200Y289201D01*
X1119200Y-460799D02*
X1144600Y-409999D01*
X1119200Y-359199D01*
X1170000Y-384599D01*
X1220800Y-359199D01*
X1195400Y-409999D01*
X1220800Y-460799D01*
X1170000Y-435399D01*
X1119200Y-460799D01*
X994200Y1789201D02*
X1019600Y1840001D01*
X994200Y1890801D01*
X1045000Y1865401D01*
X1095800Y1890801D01*
X1070400Y1840001D01*
X1095800Y1789201D01*
X1045000Y1814601D01*
X994200Y1789201D01*
X869200Y-1460799D02*
X894600Y-1409999D01*
X869200Y-1359199D01*
X920000Y-1384599D01*
X970800Y-1359199D01*
X945400Y-1409999D01*
X970800Y-1460799D01*
X920000Y-1435399D01*
X869200Y-1460799D01*
X744200Y1789201D02*
X769600Y1840001D01*
X744200Y1890801D01*
X795000Y1865401D01*
X845800Y1890801D01*
X820400Y1840001D01*
X845800Y1789201D01*
X795000Y1814601D01*
X744200Y1789201D01*
X619200Y-460799D02*
X644600Y-409999D01*
X619200Y-359199D01*
X670000Y-384599D01*
X720800Y-359199D01*
X695400Y-409999D01*
X720800Y-460799D01*
X670000Y-435399D01*
X619200Y-460799D01*
X744200Y-1210799D02*
X769600Y-1159999D01*
X744200Y-1109199D01*
X795000Y-1134599D01*
X845800Y-1109199D01*
X820400Y-1159999D01*
X845800Y-1210799D01*
X795000Y-1185399D01*
X744200Y-1210799D01*
X619200Y-1460799D02*
X644600Y-1409999D01*
X619200Y-1359199D01*
X670000Y-1384599D01*
X720800Y-1359199D01*
X695400Y-1409999D01*
X720800Y-1460799D01*
X670000Y-1435399D01*
X619200Y-1460799D01*
X494200Y1789201D02*
X519600Y1840001D01*
X494200Y1890801D01*
X545000Y1865401D01*
X595800Y1890801D01*
X570400Y1840001D01*
X595800Y1789201D01*
X545000Y1814601D01*
X494200Y1789201D01*
Y-1210799D02*
X519600Y-1159999D01*
X494200Y-1109199D01*
X545000Y-1134599D01*
X595800Y-1109199D01*
X570400Y-1159999D01*
X595800Y-1210799D01*
X545000Y-1185399D01*
X494200Y-1210799D01*
X369200Y-1460799D02*
X394600Y-1409999D01*
X369200Y-1359199D01*
X420000Y-1384599D01*
X470800Y-1359199D01*
X445400Y-1409999D01*
X470800Y-1460799D01*
X420000Y-1435399D01*
X369200Y-1460799D01*
Y-1960799D02*
X394600Y-1909999D01*
X369200Y-1859199D01*
X420000Y-1884599D01*
X470800Y-1859199D01*
X445400Y-1909999D01*
X470800Y-1960799D01*
X420000Y-1935399D01*
X369200Y-1960799D01*
X244200Y1789201D02*
X269600Y1840001D01*
X244200Y1890801D01*
X295000Y1865401D01*
X345800Y1890801D01*
X320400Y1840001D01*
X345800Y1789201D01*
X295000Y1814601D01*
X244200Y1789201D01*
Y-1210799D02*
X269600Y-1159999D01*
X244200Y-1109199D01*
X295000Y-1134599D01*
X345800Y-1109199D01*
X320400Y-1159999D01*
X345800Y-1210799D01*
X295000Y-1185399D01*
X244200Y-1210799D01*
X119200Y-1460799D02*
X144600Y-1409999D01*
X119200Y-1359199D01*
X170000Y-1384599D01*
X220800Y-1359199D01*
X195400Y-1409999D01*
X220800Y-1460799D01*
X170000Y-1435399D01*
X119200Y-1460799D01*
X244200Y-1710799D02*
X269600Y-1659999D01*
X244200Y-1609199D01*
X295000Y-1634599D01*
X345800Y-1609199D01*
X320400Y-1659999D01*
X345800Y-1710799D01*
X295000Y-1685399D01*
X244200Y-1710799D01*
X-5800Y1789201D02*
X19600Y1840001D01*
X-5800Y1890801D01*
X45000Y1865401D01*
X95800Y1890801D01*
X70400Y1840001D01*
X95800Y1789201D01*
X45000Y1814601D01*
X-5800Y1789201D01*
X-130800Y1539201D02*
X-105400Y1590001D01*
X-130800Y1640801D01*
X-80000Y1615401D01*
X-29200Y1640801D01*
X-54600Y1590001D01*
X-29200Y1539201D01*
X-80000Y1564601D01*
X-130800Y1539201D01*
X-255800Y1789201D02*
X-230400Y1840001D01*
X-255800Y1890801D01*
X-205000Y1865401D01*
X-154200Y1890801D01*
X-179600Y1840001D01*
X-154200Y1789201D01*
X-205000Y1814601D01*
X-255800Y1789201D01*
X-380800Y1539201D02*
X-355400Y1590001D01*
X-380800Y1640801D01*
X-330000Y1615401D01*
X-279200Y1640801D01*
X-304600Y1590001D01*
X-279200Y1539201D01*
X-330000Y1564601D01*
X-380800Y1539201D01*
X-255800Y1289201D02*
X-230400Y1340001D01*
X-255800Y1390801D01*
X-205000Y1365401D01*
X-154200Y1390801D01*
X-179600Y1340001D01*
X-154200Y1289201D01*
X-205000Y1314601D01*
X-255800Y1289201D01*
X-380800Y-1960799D02*
X-355400Y-1909999D01*
X-380800Y-1859199D01*
X-330000Y-1884599D01*
X-279200Y-1859199D01*
X-304600Y-1909999D01*
X-279200Y-1960799D01*
X-330000Y-1935399D01*
X-380800Y-1960799D01*
X-505800Y1789201D02*
X-480400Y1840001D01*
X-505800Y1890801D01*
X-455000Y1865401D01*
X-404200Y1890801D01*
X-429600Y1840001D01*
X-404200Y1789201D01*
X-455000Y1814601D01*
X-505800Y1789201D01*
X-630800Y1539201D02*
X-605400Y1590001D01*
X-630800Y1640801D01*
X-580000Y1615401D01*
X-529200Y1640801D01*
X-554600Y1590001D01*
X-529200Y1539201D01*
X-580000Y1564601D01*
X-630800Y1539201D01*
X-505800Y1289201D02*
X-480400Y1340001D01*
X-505800Y1390801D01*
X-455000Y1365401D01*
X-404200Y1390801D01*
X-429600Y1340001D01*
X-404200Y1289201D01*
X-455000Y1314601D01*
X-505800Y1289201D01*
Y-1710799D02*
X-480400Y-1659999D01*
X-505800Y-1609199D01*
X-455000Y-1634599D01*
X-404200Y-1609199D01*
X-429600Y-1659999D01*
X-404200Y-1710799D01*
X-455000Y-1685399D01*
X-505800Y-1710799D01*
X-755800Y1789201D02*
X-730400Y1840001D01*
X-755800Y1890801D01*
X-705000Y1865401D01*
X-654200Y1890801D01*
X-679600Y1840001D01*
X-654200Y1789201D01*
X-705000Y1814601D01*
X-755800Y1789201D01*
X-880800Y1539201D02*
X-855400Y1590001D01*
X-880800Y1640801D01*
X-830000Y1615401D01*
X-779200Y1640801D01*
X-804600Y1590001D01*
X-779200Y1539201D01*
X-830000Y1564601D01*
X-880800Y1539201D01*
X-755800Y1289201D02*
X-730400Y1340001D01*
X-755800Y1390801D01*
X-705000Y1365401D01*
X-654200Y1390801D01*
X-679600Y1340001D01*
X-654200Y1289201D01*
X-705000Y1314601D01*
X-755800Y1289201D01*
X-1005800Y1789201D02*
X-980400Y1840001D01*
X-1005800Y1890801D01*
X-955000Y1865401D01*
X-904200Y1890801D01*
X-929600Y1840001D01*
X-904200Y1789201D01*
X-955000Y1814601D01*
X-1005800Y1789201D01*
X-1130800Y1539201D02*
X-1105400Y1590001D01*
X-1130800Y1640801D01*
X-1080000Y1615401D01*
X-1029200Y1640801D01*
X-1054600Y1590001D01*
X-1029200Y1539201D01*
X-1080000Y1564601D01*
X-1130800Y1539201D01*
X-1005800Y1289201D02*
X-980400Y1340001D01*
X-1005800Y1390801D01*
X-955000Y1365401D01*
X-904200Y1390801D01*
X-929600Y1340001D01*
X-904200Y1289201D01*
X-955000Y1314601D01*
X-1005800Y1289201D01*
Y-1210799D02*
X-980400Y-1159999D01*
X-1005800Y-1109199D01*
X-955000Y-1134599D01*
X-904200Y-1109199D01*
X-929600Y-1159999D01*
X-904200Y-1210799D01*
X-955000Y-1185399D01*
X-1005800Y-1210799D01*
X-1130800Y-1460799D02*
X-1105400Y-1409999D01*
X-1130800Y-1359199D01*
X-1080000Y-1384599D01*
X-1029200Y-1359199D01*
X-1054600Y-1409999D01*
X-1029200Y-1460799D01*
X-1080000Y-1435399D01*
X-1130800Y-1460799D01*
Y-1960799D02*
X-1105400Y-1909999D01*
X-1130800Y-1859199D01*
X-1080000Y-1884599D01*
X-1029200Y-1859199D01*
X-1054600Y-1909999D01*
X-1029200Y-1960799D01*
X-1080000Y-1935399D01*
X-1130800Y-1960799D01*
X-1255800Y1789201D02*
X-1230400Y1840001D01*
X-1255800Y1890801D01*
X-1205000Y1865401D01*
X-1154200Y1890801D01*
X-1179600Y1840001D01*
X-1154200Y1789201D01*
X-1205000Y1814601D01*
X-1255800Y1789201D01*
X-1380800Y1539201D02*
X-1355400Y1590001D01*
X-1380800Y1640801D01*
X-1330000Y1615401D01*
X-1279200Y1640801D01*
X-1304600Y1590001D01*
X-1279200Y1539201D01*
X-1330000Y1564601D01*
X-1380800Y1539201D01*
X-1255800Y1289201D02*
X-1230400Y1340001D01*
X-1255800Y1390801D01*
X-1205000Y1365401D01*
X-1154200Y1390801D01*
X-1179600Y1340001D01*
X-1154200Y1289201D01*
X-1205000Y1314601D01*
X-1255800Y1289201D01*
Y-1210799D02*
X-1230400Y-1159999D01*
X-1255800Y-1109199D01*
X-1205000Y-1134599D01*
X-1154200Y-1109199D01*
X-1179600Y-1159999D01*
X-1154200Y-1210799D01*
X-1205000Y-1185399D01*
X-1255800Y-1210799D01*
X-1380800Y-1460799D02*
X-1355400Y-1409999D01*
X-1380800Y-1359199D01*
X-1330000Y-1384599D01*
X-1279200Y-1359199D01*
X-1304600Y-1409999D01*
X-1279200Y-1460799D01*
X-1330000Y-1435399D01*
X-1380800Y-1460799D01*
X-1255800Y-1710799D02*
X-1230400Y-1659999D01*
X-1255800Y-1609199D01*
X-1205000Y-1634599D01*
X-1154200Y-1609199D01*
X-1179600Y-1659999D01*
X-1154200Y-1710799D01*
X-1205000Y-1685399D01*
X-1255800Y-1710799D01*
X-1380800Y-1960799D02*
X-1355400Y-1909999D01*
X-1380800Y-1859199D01*
X-1330000Y-1884599D01*
X-1279200Y-1859199D01*
X-1304600Y-1909999D01*
X-1279200Y-1960799D01*
X-1330000Y-1935399D01*
X-1380800Y-1960799D01*
X-1505800Y1789201D02*
X-1480400Y1840001D01*
X-1505800Y1890801D01*
X-1455000Y1865401D01*
X-1404200Y1890801D01*
X-1429600Y1840001D01*
X-1404200Y1789201D01*
X-1455000Y1814601D01*
X-1505800Y1789201D01*
X-1630800Y1539201D02*
X-1605400Y1590001D01*
X-1630800Y1640801D01*
X-1580000Y1615401D01*
X-1529200Y1640801D01*
X-1554600Y1590001D01*
X-1529200Y1539201D01*
X-1580000Y1564601D01*
X-1630800Y1539201D01*
X-1505800Y1289201D02*
X-1480400Y1340001D01*
X-1505800Y1390801D01*
X-1455000Y1365401D01*
X-1404200Y1390801D01*
X-1429600Y1340001D01*
X-1404200Y1289201D01*
X-1455000Y1314601D01*
X-1505800Y1289201D01*
Y-1210799D02*
X-1480400Y-1159999D01*
X-1505800Y-1109199D01*
X-1455000Y-1134599D01*
X-1404200Y-1109199D01*
X-1429600Y-1159999D01*
X-1404200Y-1210799D01*
X-1455000Y-1185399D01*
X-1505800Y-1210799D01*
X-1630800Y-1460799D02*
X-1605400Y-1409999D01*
X-1630800Y-1359199D01*
X-1580000Y-1384599D01*
X-1529200Y-1359199D01*
X-1554600Y-1409999D01*
X-1529200Y-1460799D01*
X-1580000Y-1435399D01*
X-1630800Y-1460799D01*
X-1505800Y-1710799D02*
X-1480400Y-1659999D01*
X-1505800Y-1609199D01*
X-1455000Y-1634599D01*
X-1404200Y-1609199D01*
X-1429600Y-1659999D01*
X-1404200Y-1710799D01*
X-1455000Y-1685399D01*
X-1505800Y-1710799D01*
X-1630800Y-1960799D02*
X-1605400Y-1909999D01*
X-1630800Y-1859199D01*
X-1580000Y-1884599D01*
X-1529200Y-1859199D01*
X-1554600Y-1909999D01*
X-1529200Y-1960799D01*
X-1580000Y-1935399D01*
X-1630800Y-1960799D01*
X-82500Y-943300D02*
X-57100Y-917900D01*
X-31700D01*
X-57100Y-892500D01*
X-31700Y-867100D01*
X-57100D01*
X-82500Y-841700D01*
X-107900Y-867100D01*
X-133300D01*
X-107900Y-892500D01*
X-133300Y-917900D01*
X-107900D01*
X-82500Y-943300D01*
X-1199999Y199200D02*
X-1174599Y224600D01*
X-1149199D01*
X-1174599Y250000D01*
X-1149199Y275400D01*
X-1174599D01*
X-1199999Y300800D01*
X-1225399Y275400D01*
X-1250799D01*
X-1225399Y250000D01*
X-1250799Y224600D01*
X-1225399D01*
X-1199999Y199200D01*
X-1060000Y619200D02*
X-1034600Y644600D01*
X-1009200D01*
X-1034600Y670000D01*
X-1009200Y695400D01*
X-1034600D01*
X-1060000Y720800D01*
X-1085400Y695400D01*
X-1110800D01*
X-1085400Y670000D01*
X-1110800Y644600D01*
X-1085400D01*
X-1060000Y619200D01*
X-1130000Y549200D02*
X-1104600Y574600D01*
X-1079200D01*
X-1104600Y600000D01*
X-1079200Y625400D01*
X-1104600D01*
X-1130000Y650800D01*
X-1155400Y625400D01*
X-1180800D01*
X-1155400Y600000D01*
X-1180800Y574600D01*
X-1155400D01*
X-1130000Y549200D01*
X-1200000Y619200D02*
X-1174600Y644600D01*
X-1149200D01*
X-1174600Y670000D01*
X-1149200Y695400D01*
X-1174600D01*
X-1200000Y720800D01*
X-1225400Y695400D01*
X-1250800D01*
X-1225400Y670000D01*
X-1250800Y644600D01*
X-1225400D01*
X-1200000Y619200D01*
X-1410000Y129200D02*
X-1384600Y154600D01*
X-1359200D01*
X-1384600Y180000D01*
X-1359200Y205400D01*
X-1384600D01*
X-1410000Y230800D01*
X-1435400Y205400D01*
X-1460800D01*
X-1435400Y180000D01*
X-1460800Y154600D01*
X-1435400D01*
X-1410000Y129200D01*
X-1200000Y339200D02*
X-1174600Y364600D01*
X-1149200D01*
X-1174600Y390000D01*
X-1149200Y415400D01*
X-1174600D01*
X-1200000Y440800D01*
X-1225400Y415400D01*
X-1250800D01*
X-1225400Y390000D01*
X-1250800Y364600D01*
X-1225400D01*
X-1200000Y339200D01*
X-1270000Y549200D02*
X-1244600Y574600D01*
X-1219200D01*
X-1244600Y600000D01*
X-1219200Y625400D01*
X-1244600D01*
X-1270000Y650800D01*
X-1295400Y625400D01*
X-1320800D01*
X-1295400Y600000D01*
X-1320800Y574600D01*
X-1295400D01*
X-1270000Y549200D01*
X-1200000Y479200D02*
X-1174600Y504600D01*
X-1149200D01*
X-1174600Y530000D01*
X-1149200Y555400D01*
X-1174600D01*
X-1200000Y580800D01*
X-1225400Y555400D01*
X-1250800D01*
X-1225400Y530000D01*
X-1250800Y504600D01*
X-1225400D01*
X-1200000Y479200D01*
X-1340000D02*
X-1314600Y504600D01*
X-1289200D01*
X-1314600Y530000D01*
X-1289200Y555400D01*
X-1314600D01*
X-1340000Y580800D01*
X-1365400Y555400D01*
X-1390800D01*
X-1365400Y530000D01*
X-1390800Y504600D01*
X-1365400D01*
X-1340000Y479200D01*
X-1410000Y409200D02*
X-1384600Y434600D01*
X-1359200D01*
X-1384600Y460000D01*
X-1359200Y485400D01*
X-1384600D01*
X-1410000Y510800D01*
X-1435400Y485400D01*
X-1460800D01*
X-1435400Y460000D01*
X-1460800Y434600D01*
X-1435400D01*
X-1410000Y409200D01*
Y269200D02*
X-1384600Y294600D01*
X-1359200D01*
X-1384600Y320000D01*
X-1359200Y345400D01*
X-1384600D01*
X-1410000Y370800D01*
X-1435400Y345400D01*
X-1460800D01*
X-1435400Y320000D01*
X-1460800Y294600D01*
X-1435400D01*
X-1410000Y269200D01*
X-1340000Y339200D02*
X-1314600Y364600D01*
X-1289200D01*
X-1314600Y390000D01*
X-1289200Y415400D01*
X-1314600D01*
X-1340000Y440800D01*
X-1365400Y415400D01*
X-1390800D01*
X-1365400Y390000D01*
X-1390800Y364600D01*
X-1365400D01*
X-1340000Y339200D01*
X-515800Y-1410800D02*
X-490400Y-1360000D01*
X-515800Y-1309200D01*
X-465000Y-1334600D01*
X-414200Y-1309200D01*
X-439600Y-1360000D01*
X-414200Y-1410800D01*
X-465000Y-1385400D01*
X-515800Y-1410800D01*
X-465800D02*
X-440400Y-1360000D01*
X-465800Y-1309200D01*
X-415000Y-1334600D01*
X-364200Y-1309200D01*
X-389600Y-1360000D01*
X-364200Y-1410800D01*
X-415000Y-1385400D01*
X-465800Y-1410800D01*
X-415800D02*
X-390400Y-1360000D01*
X-415800Y-1309200D01*
X-365000Y-1334600D01*
X-314200Y-1309200D01*
X-339600Y-1360000D01*
X-314200Y-1410800D01*
X-365000Y-1385400D01*
X-415800Y-1410800D01*
X-415800Y-1360800D02*
X-390400Y-1310000D01*
X-415800Y-1259200D01*
X-365000Y-1284600D01*
X-314200Y-1259200D01*
X-339600Y-1310000D01*
X-314200Y-1360800D01*
X-365000Y-1335400D01*
X-415800Y-1360800D01*
X-465800D02*
X-440400Y-1310000D01*
X-465800Y-1259200D01*
X-415000Y-1284600D01*
X-364200Y-1259200D01*
X-389600Y-1310000D01*
X-364200Y-1360800D01*
X-415000Y-1335400D01*
X-465800Y-1360800D01*
X-515800D02*
X-490400Y-1310000D01*
X-515800Y-1259200D01*
X-465000Y-1284600D01*
X-414200Y-1259200D01*
X-439600Y-1310000D01*
X-414200Y-1360800D01*
X-465000Y-1335400D01*
X-515800Y-1360800D01*
X1279200Y-1160800D02*
X1304600Y-1110000D01*
X1279200Y-1059200D01*
X1330000Y-1084600D01*
X1380800Y-1059200D01*
X1355400Y-1110000D01*
X1380800Y-1160800D01*
X1330000Y-1135400D01*
X1279200Y-1160800D01*
Y-1260800D02*
X1304600Y-1210000D01*
X1279200Y-1159200D01*
X1330000Y-1184600D01*
X1380800Y-1159200D01*
X1355400Y-1210000D01*
X1380800Y-1260800D01*
X1330000Y-1235400D01*
X1279200Y-1260800D01*
Y-1360800D02*
X1304600Y-1310000D01*
X1279200Y-1259200D01*
X1330000Y-1284600D01*
X1380800Y-1259200D01*
X1355400Y-1310000D01*
X1380800Y-1360800D01*
X1330000Y-1335400D01*
X1279200Y-1360800D01*
Y-1460800D02*
X1304600Y-1410000D01*
X1279200Y-1359200D01*
X1330000Y-1384600D01*
X1380800Y-1359200D01*
X1355400Y-1410000D01*
X1380800Y-1460800D01*
X1330000Y-1435400D01*
X1279200Y-1460800D01*
Y-1560800D02*
X1304600Y-1510000D01*
X1279200Y-1459200D01*
X1330000Y-1484600D01*
X1380800Y-1459200D01*
X1355400Y-1510000D01*
X1380800Y-1560800D01*
X1330000Y-1535400D01*
X1279200Y-1560800D01*
Y-1660800D02*
X1304600Y-1610000D01*
X1279200Y-1559200D01*
X1330000Y-1584600D01*
X1380800Y-1559200D01*
X1355400Y-1610000D01*
X1380800Y-1660800D01*
X1330000Y-1635400D01*
X1279200Y-1660800D01*
Y-1760800D02*
X1304600Y-1710000D01*
X1279200Y-1659200D01*
X1330000Y-1684600D01*
X1380800Y-1659200D01*
X1355400Y-1710000D01*
X1380800Y-1760800D01*
X1330000Y-1735400D01*
X1279200Y-1760800D01*
Y-1860800D02*
X1304600Y-1810000D01*
X1279200Y-1759200D01*
X1330000Y-1784600D01*
X1380800Y-1759200D01*
X1355400Y-1810000D01*
X1380800Y-1860800D01*
X1330000Y-1835400D01*
X1279200Y-1860800D01*
Y-1960800D02*
X1304600Y-1910000D01*
X1279200Y-1859200D01*
X1330000Y-1884600D01*
X1380800Y-1859200D01*
X1355400Y-1910000D01*
X1380800Y-1960800D01*
X1330000Y-1935400D01*
X1279200Y-1960800D01*
Y-1060800D02*
X1304600Y-1010000D01*
X1279200Y-959200D01*
X1330000Y-984600D01*
X1380800Y-959200D01*
X1355400Y-1010000D01*
X1380800Y-1060800D01*
X1330000Y-1035400D01*
X1279200Y-1060800D01*
X1209200Y-1545800D02*
X1234600Y-1495000D01*
X1209200Y-1444200D01*
X1260000Y-1469600D01*
X1310800Y-1444200D01*
X1285400Y-1495000D01*
X1310800Y-1545800D01*
X1260000Y-1520400D01*
X1209200Y-1545800D01*
Y-1445800D02*
X1234600Y-1395000D01*
X1209200Y-1344200D01*
X1260000Y-1369600D01*
X1310800Y-1344200D01*
X1285400Y-1395000D01*
X1310800Y-1445800D01*
X1260000Y-1420400D01*
X1209200Y-1445800D01*
Y-1345800D02*
X1234600Y-1295000D01*
X1209200Y-1244200D01*
X1260000Y-1269600D01*
X1310800Y-1244200D01*
X1285400Y-1295000D01*
X1310800Y-1345800D01*
X1260000Y-1320400D01*
X1209200Y-1345800D01*
Y-1245800D02*
X1234600Y-1195000D01*
X1209200Y-1144200D01*
X1260000Y-1169600D01*
X1310800Y-1144200D01*
X1285400Y-1195000D01*
X1310800Y-1245800D01*
X1260000Y-1220400D01*
X1209200Y-1245800D01*
Y-1145800D02*
X1234600Y-1095000D01*
X1209200Y-1044200D01*
X1260000Y-1069600D01*
X1310800Y-1044200D01*
X1285400Y-1095000D01*
X1310800Y-1145800D01*
X1260000Y-1120400D01*
X1209200Y-1145800D01*
X1184200Y-932474D02*
X1209600Y-881674D01*
X1184200Y-830874D01*
X1235000Y-856274D01*
X1285800Y-830874D01*
X1260400Y-881674D01*
X1285800Y-932474D01*
X1235000Y-907074D01*
X1184200Y-932474D01*
X1084200D02*
X1109600Y-881674D01*
X1084200Y-830874D01*
X1135000Y-856274D01*
X1185800Y-830874D01*
X1160400Y-881674D01*
X1185800Y-932474D01*
X1135000Y-907074D01*
X1084200Y-932474D01*
X984200D02*
X1009600Y-881674D01*
X984200Y-830874D01*
X1035000Y-856274D01*
X1085800Y-830874D01*
X1060400Y-881674D01*
X1085800Y-932474D01*
X1035000Y-907074D01*
X984200Y-932474D01*
X884200D02*
X909600Y-881674D01*
X884200Y-830874D01*
X935000Y-856274D01*
X985800Y-830874D01*
X960400Y-881674D01*
X985800Y-932474D01*
X935000Y-907074D01*
X884200Y-932474D01*
X784200D02*
X809600Y-881674D01*
X784200Y-830874D01*
X835000Y-856274D01*
X885800Y-830874D01*
X860400Y-881674D01*
X885800Y-932474D01*
X835000Y-907074D01*
X784200Y-932474D01*
X684200D02*
X709600Y-881674D01*
X684200Y-830874D01*
X735000Y-856274D01*
X785800Y-830874D01*
X760400Y-881674D01*
X785800Y-932474D01*
X735000Y-907074D01*
X684200Y-932474D01*
X584200D02*
X609600Y-881674D01*
X584200Y-830874D01*
X635000Y-856274D01*
X685800Y-830874D01*
X660400Y-881674D01*
X685800Y-932474D01*
X635000Y-907074D01*
X584200Y-932474D01*
X484200D02*
X509600Y-881674D01*
X484200Y-830874D01*
X535000Y-856274D01*
X585800Y-830874D01*
X560400Y-881674D01*
X585800Y-932474D01*
X535000Y-907074D01*
X484200Y-932474D01*
X384200D02*
X409600Y-881674D01*
X384200Y-830874D01*
X435000Y-856274D01*
X485800Y-830874D01*
X460400Y-881674D01*
X485800Y-932474D01*
X435000Y-907074D01*
X384200Y-932474D01*
X284200D02*
X309600Y-881674D01*
X284200Y-830874D01*
X335000Y-856274D01*
X385800Y-830874D01*
X360400Y-881674D01*
X385800Y-932474D01*
X335000Y-907074D01*
X284200Y-932474D01*
X184200D02*
X209600Y-881674D01*
X184200Y-830874D01*
X235000Y-856274D01*
X285800Y-830874D01*
X260400Y-881674D01*
X285800Y-932474D01*
X235000Y-907074D01*
X184200Y-932474D01*
X84199D02*
X109599Y-881674D01*
X84199Y-830874D01*
X134999Y-856274D01*
X185799Y-830874D01*
X160399Y-881674D01*
X185799Y-932474D01*
X134999Y-907074D01*
X84199Y-932474D01*
X884200Y-1122474D02*
X909600Y-1071674D01*
X884200Y-1020874D01*
X935000Y-1046274D01*
X985800Y-1020874D01*
X960400Y-1071674D01*
X985800Y-1122474D01*
X935000Y-1097074D01*
X884200Y-1122474D01*
X784200D02*
X809600Y-1071674D01*
X784200Y-1020874D01*
X835000Y-1046274D01*
X885800Y-1020874D01*
X860400Y-1071674D01*
X885800Y-1122474D01*
X835000Y-1097074D01*
X784200Y-1122474D01*
X684200D02*
X709600Y-1071674D01*
X684200Y-1020874D01*
X735000Y-1046274D01*
X785800Y-1020874D01*
X760400Y-1071674D01*
X785800Y-1122474D01*
X735000Y-1097074D01*
X684200Y-1122474D01*
X584200D02*
X609600Y-1071674D01*
X584200Y-1020874D01*
X635000Y-1046274D01*
X685800Y-1020874D01*
X660400Y-1071674D01*
X685800Y-1122474D01*
X635000Y-1097074D01*
X584200Y-1122474D01*
X484200D02*
X509600Y-1071674D01*
X484200Y-1020874D01*
X535000Y-1046274D01*
X585800Y-1020874D01*
X560400Y-1071674D01*
X585800Y-1122474D01*
X535000Y-1097074D01*
X484200Y-1122474D01*
X384200D02*
X409600Y-1071674D01*
X384200Y-1020874D01*
X435000Y-1046274D01*
X485800Y-1020874D01*
X460400Y-1071674D01*
X485800Y-1122474D01*
X435000Y-1097074D01*
X384200Y-1122474D01*
X284200D02*
X309600Y-1071674D01*
X284200Y-1020874D01*
X335000Y-1046274D01*
X385800Y-1020874D01*
X360400Y-1071674D01*
X385800Y-1122474D01*
X335000Y-1097074D01*
X284200Y-1122474D01*
X184200D02*
X209600Y-1071674D01*
X184200Y-1020874D01*
X235000Y-1046274D01*
X285800Y-1020874D01*
X260400Y-1071674D01*
X285800Y-1122474D01*
X235000Y-1097074D01*
X184200Y-1122474D01*
X84199D02*
X109599Y-1071674D01*
X84199Y-1020874D01*
X134999Y-1046274D01*
X185799Y-1020874D01*
X160399Y-1071674D01*
X185799Y-1122474D01*
X134999Y-1097074D01*
X84199Y-1122474D01*
X1019200Y-1145800D02*
X1044600Y-1095000D01*
X1019200Y-1044200D01*
X1070000Y-1069600D01*
X1120800Y-1044200D01*
X1095400Y-1095000D01*
X1120800Y-1145800D01*
X1070000Y-1120400D01*
X1019200Y-1145800D01*
Y-1245800D02*
X1044600Y-1195000D01*
X1019200Y-1144200D01*
X1070000Y-1169600D01*
X1120800Y-1144200D01*
X1095400Y-1195000D01*
X1120800Y-1245800D01*
X1070000Y-1220400D01*
X1019200Y-1245800D01*
Y-1345800D02*
X1044600Y-1295000D01*
X1019200Y-1244200D01*
X1070000Y-1269600D01*
X1120800Y-1244200D01*
X1095400Y-1295000D01*
X1120800Y-1345800D01*
X1070000Y-1320400D01*
X1019200Y-1345800D01*
Y-1445800D02*
X1044600Y-1395000D01*
X1019200Y-1344200D01*
X1070000Y-1369600D01*
X1120800Y-1344200D01*
X1095400Y-1395000D01*
X1120800Y-1445800D01*
X1070000Y-1420400D01*
X1019200Y-1445800D01*
Y-1545800D02*
X1044600Y-1495000D01*
X1019200Y-1444200D01*
X1070000Y-1469600D01*
X1120800Y-1444200D01*
X1095400Y-1495000D01*
X1120800Y-1545800D01*
X1070000Y-1520400D01*
X1019200Y-1545800D01*
X1489200Y-1060800D02*
X1514600Y-1010000D01*
X1489200Y-959200D01*
X1540000Y-984600D01*
X1590800Y-959200D01*
X1565400Y-1010000D01*
X1590800Y-1060800D01*
X1540000Y-1035400D01*
X1489200Y-1060800D01*
Y-1960800D02*
X1514600Y-1910000D01*
X1489200Y-1859200D01*
X1540000Y-1884600D01*
X1590800Y-1859200D01*
X1565400Y-1910000D01*
X1590800Y-1960800D01*
X1540000Y-1935400D01*
X1489200Y-1960800D01*
Y-1860800D02*
X1514600Y-1810000D01*
X1489200Y-1759200D01*
X1540000Y-1784600D01*
X1590800Y-1759200D01*
X1565400Y-1810000D01*
X1590800Y-1860800D01*
X1540000Y-1835400D01*
X1489200Y-1860800D01*
Y-1760800D02*
X1514600Y-1710000D01*
X1489200Y-1659200D01*
X1540000Y-1684600D01*
X1590800Y-1659200D01*
X1565400Y-1710000D01*
X1590800Y-1760800D01*
X1540000Y-1735400D01*
X1489200Y-1760800D01*
Y-1660800D02*
X1514600Y-1610000D01*
X1489200Y-1559200D01*
X1540000Y-1584600D01*
X1590800Y-1559200D01*
X1565400Y-1610000D01*
X1590800Y-1660800D01*
X1540000Y-1635400D01*
X1489200Y-1660800D01*
Y-1560800D02*
X1514600Y-1510000D01*
X1489200Y-1459200D01*
X1540000Y-1484600D01*
X1590800Y-1459200D01*
X1565400Y-1510000D01*
X1590800Y-1560800D01*
X1540000Y-1535400D01*
X1489200Y-1560800D01*
Y-1460800D02*
X1514600Y-1410000D01*
X1489200Y-1359200D01*
X1540000Y-1384600D01*
X1590800Y-1359200D01*
X1565400Y-1410000D01*
X1590800Y-1460800D01*
X1540000Y-1435400D01*
X1489200Y-1460800D01*
Y-1360800D02*
X1514600Y-1310000D01*
X1489200Y-1259200D01*
X1540000Y-1284600D01*
X1590800Y-1259200D01*
X1565400Y-1310000D01*
X1590800Y-1360800D01*
X1540000Y-1335400D01*
X1489200Y-1360800D01*
Y-1260800D02*
X1514600Y-1210000D01*
X1489200Y-1159200D01*
X1540000Y-1184600D01*
X1590800Y-1159200D01*
X1565400Y-1210000D01*
X1590800Y-1260800D01*
X1540000Y-1235400D01*
X1489200Y-1260800D01*
Y-1160800D02*
X1514600Y-1110000D01*
X1489200Y-1059200D01*
X1540000Y-1084600D01*
X1590800Y-1059200D01*
X1565400Y-1110000D01*
X1590800Y-1160800D01*
X1540000Y-1135400D01*
X1489200Y-1160800D01*
X1030000Y39200D02*
X1055400Y64600D01*
X1080800D01*
X1055400Y90000D01*
X1080800Y115400D01*
X1055400D01*
X1030000Y140800D01*
X1004600Y115400D01*
X979200D01*
X1004600Y90000D01*
X979200Y64600D01*
X1004600D01*
X1030000Y39200D01*
X619200Y-630800D02*
X644600Y-580000D01*
X619200Y-529200D01*
X670000Y-554600D01*
X720800Y-529200D01*
X695400Y-580000D01*
X720800Y-630800D01*
X670000Y-605400D01*
X619200Y-630800D01*
Y-540800D02*
X644600Y-490000D01*
X619200Y-439200D01*
X670000Y-464600D01*
X720800Y-439200D01*
X695400Y-490000D01*
X720800Y-540800D01*
X670000Y-515400D01*
X619200Y-540800D01*
X610000Y-250800D02*
X635400Y-225400D01*
X660800D01*
X635400Y-200000D01*
X660800Y-174600D01*
X635400D01*
X610000Y-149200D01*
X584600Y-174600D01*
X559200D01*
X584600Y-200000D01*
X559200Y-225400D01*
X584600D01*
X610000Y-250800D01*
X1440646Y-641392D02*
X1466046Y-615992D01*
X1491446D01*
X1466046Y-590592D01*
X1491446Y-565192D01*
X1466046D01*
X1440646Y-539792D01*
X1415246Y-565192D01*
X1389846D01*
X1415246Y-590592D01*
X1389846Y-615992D01*
X1415246D01*
X1440646Y-641392D01*
D96*
X670800Y-1710000D02*
G03*
X670800Y-1710000I-50800J0D01*
G01*
X924800D02*
G03*
X924800Y-1710000I-50800J0D01*
G01*
X-1359200Y-780000D02*
G03*
X-1359200Y-780000I-50800J0D01*
G01*
Y-526000D02*
G03*
X-1359200Y-526000I-50800J0D01*
G01*
X-69200Y-1710000D02*
G03*
X-69200Y-1710000I-50800J0D01*
G01*
X184800D02*
G03*
X184800Y-1710000I-50800J0D01*
G01*
X-869200D02*
G03*
X-869200Y-1710000I-50800J0D01*
G01*
X-615200D02*
G03*
X-615200Y-1710000I-50800J0D01*
G01*
%TF.MD5,648322a17a2e3f8031417384b1ef6339*%
M02*
