%TF.GenerationSoftware,Altium Limited,Altium Designer,24.6.1 (21)*%
G04 Layer_Color=65535*
%FSLAX45Y45*%
%MOMM*%
%TF.SameCoordinates,18E76ECD-83C5-444D-8C50-6D49F83D0F89*%
%TF.FilePolarity,Positive*%
%TF.FileFunction,Legend,Top*%
%TF.Part,Single*%
G01*
G75*
%TA.AperFunction,NonConductor*%
%ADD48C,0.25000*%
%ADD49C,0.50000*%
%ADD50C,0.10000*%
%ADD51C,0.20000*%
%ADD52C,0.25400*%
%ADD53C,0.15200*%
D48*
X747500Y-397500D02*
G03*
X747500Y-397500I-12500J0D01*
G01*
X-737500Y-1162500D02*
G03*
X-737500Y-1162500I-12500J0D01*
G01*
X40300Y850000D02*
G03*
X40300Y850000I-12500J0D01*
G01*
X-959700D02*
G03*
X-959700Y850000I-12500J0D01*
G01*
D49*
X919999Y187000D02*
G03*
X919999Y187000I-25000J0D01*
G01*
X645000Y-1297000D02*
G03*
X645000Y-1297000I-25000J0D01*
G01*
X-972000Y-526000D02*
G03*
X-972000Y-526000I-25000J0D01*
G01*
X-95000Y-1297000D02*
G03*
X-95000Y-1297000I-25000J0D01*
G01*
X-895000D02*
G03*
X-895000Y-1297000I-25000J0D01*
G01*
D50*
X-1315000Y550000D02*
G03*
X-1315000Y550000I-5000J0D01*
G01*
X280000Y275000D02*
G03*
X280000Y275000I-5000J0D01*
G01*
X-1411000Y111900D02*
G03*
X-1411000Y111900I-5000J0D01*
G01*
X-697501Y-250000D02*
G03*
X-697501Y-250000I-5000J0D01*
G01*
X-145000Y-260000D02*
G03*
X-145000Y-260000I-5000J0D01*
G01*
X-517500Y550000D02*
G03*
X-517500Y550000I-5000J0D01*
G01*
X-628500Y-148100D02*
G03*
X-628500Y-148100I-5000J0D01*
G01*
X-175400Y850000D02*
Y1866000D01*
X-124600Y850000D02*
Y1866000D01*
X-175400D02*
X-124600D01*
X-429400Y850000D02*
Y1866000D01*
X-378600Y850000D02*
Y1866000D01*
X-429400D02*
X-378600D01*
X-683400Y850000D02*
Y1866000D01*
X-632600Y850000D02*
Y1866000D01*
X-683400D02*
X-632600D01*
X-683400Y850000D02*
X-632600D01*
X-429400D02*
X-378600D01*
X-175400D02*
X-124600D01*
X-785000Y723000D02*
Y1231000D01*
Y723000D02*
X-23000D01*
Y1231000D01*
X-785000Y1243700D02*
X-23000D01*
X-1175400Y850000D02*
Y1866000D01*
X-1124600Y850000D02*
Y1866000D01*
X-1175400D02*
X-1124600D01*
X-1429400Y850000D02*
Y1866000D01*
X-1378600Y850000D02*
Y1866000D01*
X-1429400D02*
X-1378600D01*
X-1683400Y850000D02*
Y1866000D01*
X-1632600Y850000D02*
Y1866000D01*
X-1683400D02*
X-1632600D01*
X-1683400Y850000D02*
X-1632600D01*
X-1429400D02*
X-1378600D01*
X-1175400D02*
X-1124600D01*
X-1785000Y723000D02*
Y1231000D01*
Y723000D02*
X-1023000D01*
Y1231000D01*
X-1785000Y1243700D02*
X-1023000D01*
D51*
X1055000Y-320000D02*
Y-220000D01*
X765000Y-320000D02*
Y-220000D01*
X1055000D01*
X765000Y-320000D02*
X1055000D01*
X490500Y630000D02*
X690500D01*
X490500Y2080000D02*
X1384000D01*
X490500Y630000D02*
Y2080000D01*
X1384000Y630000D02*
Y2080000D01*
X1100500Y630000D02*
X1384000D01*
X-755000Y-1035000D02*
X-85000D01*
X-755000Y-725000D02*
X-85000D01*
X-755000Y-1035000D02*
Y-725000D01*
X-85000Y-1035000D02*
Y-725000D01*
X-711500Y-10000D02*
X-620000D01*
X-1280000D02*
X-1188500D01*
X-711500Y550000D02*
X-620000D01*
X-1280000D02*
X-1188500D01*
X-620000Y-10000D02*
Y17000D01*
Y523000D02*
Y550000D01*
X-1280000Y-10000D02*
Y17000D01*
Y523000D02*
Y550000D01*
X-1289000Y23008D02*
Y86508D01*
X-1416000Y23008D02*
X-1289000D01*
X-1416000D02*
Y86508D01*
X470000Y-1972500D02*
X1024000D01*
X470000Y-2020000D02*
X1024000D01*
X470000Y-1400000D02*
X1024000D01*
Y-2020000D02*
Y-1400000D01*
X469999Y-2020000D02*
Y-1400000D01*
X-816801Y-135400D02*
X-766000D01*
X-816801Y-84600D02*
X-791401Y-135400D01*
X-816801Y-84600D02*
X-766000D01*
X-791401Y-135400D02*
X-766000Y-84600D01*
X-791401Y-173500D02*
Y-135400D01*
Y-84600D02*
Y-46500D01*
X1115000Y-900000D02*
X1267500D01*
X1115000Y-140000D02*
X1267500D01*
X1652500Y-900000D02*
X1805000D01*
X1652500Y-140000D02*
X1805000D01*
X1115000Y-900000D02*
Y-140000D01*
X1805000Y-900000D02*
Y-140000D01*
X185000Y-395000D02*
Y-325000D01*
X415000Y-395000D02*
Y-325000D01*
X149000Y-916674D02*
Y-766674D01*
X441000Y-916674D02*
Y-766674D01*
X-238900Y-94600D02*
Y-56500D01*
Y-183500D02*
Y-145400D01*
X-213500Y-94600D01*
X-264300D02*
X-213500D01*
X-264300D02*
X-238900Y-145400D01*
X-264300D02*
X-213500D01*
X86000Y-10000D02*
X177500D01*
X-482500D02*
X-391000D01*
X86000Y550000D02*
X177500D01*
X-482500D02*
X-391000D01*
X177500Y-10000D02*
Y17000D01*
Y523000D02*
Y550000D01*
X-482500Y-10000D02*
Y17000D01*
Y523000D02*
Y550000D01*
X-506500Y-236992D02*
Y-173492D01*
X-633500Y-236992D02*
X-506500D01*
X-633500D02*
Y-173492D01*
X789000Y-916674D02*
Y-766674D01*
X1081000Y-916674D02*
Y-766674D01*
X761000Y-916674D02*
Y-766674D01*
X469000Y-916674D02*
Y-766674D01*
X1225000Y-964000D02*
X1375000D01*
X1225000Y-1256000D02*
X1375000D01*
X1225000Y-1284000D02*
X1375000D01*
X1225000Y-1576000D02*
X1375000D01*
X1225000Y-1604000D02*
X1375000D01*
X1225000Y-1896000D02*
X1375000D01*
X-1672500Y-930000D02*
Y-376000D01*
X-1720000Y-930000D02*
Y-376000D01*
X-1100000Y-930000D02*
Y-376000D01*
X-1720000Y-930000D02*
X-1100000D01*
X-1720000Y-375999D02*
X-1100000D01*
X-270000Y-1972500D02*
X284000D01*
X-270000Y-2020000D02*
X284000D01*
X-270000Y-1400000D02*
X284000D01*
Y-2020000D02*
Y-1400000D01*
X-270001Y-2020000D02*
Y-1400000D01*
X-1070000Y-1972500D02*
X-516000D01*
X-1070000Y-2020000D02*
X-516000D01*
X-1070000Y-1400000D02*
X-516000D01*
Y-2020000D02*
Y-1400000D01*
X-1070001Y-2020000D02*
Y-1400000D01*
D52*
X-1338393Y-1168393D02*
X-1168393D01*
X-1478393D02*
X-1353393Y-1043393D01*
X-1638393Y-1168393D02*
X-1478393D01*
X235400Y965400D02*
X336967D01*
X1575400Y955400D02*
X1676967D01*
X1195400Y456183D02*
X1296967D01*
X1246183Y506967D02*
Y405400D01*
X95400Y-1284600D02*
X182039D01*
X875400Y-1294600D02*
X962039D01*
X305400Y-1159621D02*
X392039D01*
X348719Y-1116302D02*
Y-1202940D01*
X521997Y-1094642D02*
X435358D01*
Y-1159621D01*
X478677Y-1137961D01*
X500337D01*
X521997Y-1159621D01*
Y-1202940D01*
X500337Y-1224600D01*
X457018D01*
X435358Y-1202940D01*
X565316Y-1094642D02*
Y-1181281D01*
X608636Y-1224600D01*
X651955Y-1181281D01*
Y-1094642D01*
X-1185400Y-1664600D02*
Y-1577961D01*
X-400379Y-1884600D02*
Y-1797962D01*
X-443698Y-1841281D02*
X-357060D01*
X-335400Y-1754642D02*
Y-1711323D01*
Y-1732983D01*
X-465358D01*
X-443698Y-1754642D01*
X-335400Y-1559705D02*
Y-1646344D01*
X-422039Y-1559705D01*
X-443698D01*
X-465358Y-1581365D01*
Y-1624684D01*
X-443698Y-1646344D01*
X-465358Y-1516386D02*
X-378720D01*
X-335400Y-1473066D01*
X-378720Y-1429747D01*
X-465358D01*
D53*
X915851Y-467510D02*
Y-521660D01*
X926681Y-532489D01*
X948340D01*
X959170Y-521660D01*
Y-467510D01*
X1024149Y-532489D02*
X980830D01*
X1024149Y-489170D01*
Y-478340D01*
X1013320Y-467510D01*
X991660D01*
X980830Y-478340D01*
X329170Y1972490D02*
X307510D01*
X318340D01*
Y1918340D01*
X307510Y1907511D01*
X296681D01*
X285851Y1918340D01*
X383320Y1907511D02*
Y1972490D01*
X350830Y1940000D01*
X394149D01*
X-793319Y-537510D02*
Y-591659D01*
X-782489Y-602489D01*
X-760830D01*
X-750000Y-591659D01*
Y-537510D01*
X-728340Y-602489D02*
X-706681D01*
X-717510D01*
Y-537510D01*
X-728340Y-548340D01*
X-974149Y632490D02*
X-930830D01*
X-952490D01*
Y567511D01*
X-865851D02*
X-909170D01*
X-865851Y610830D01*
Y621660D01*
X-876680Y632490D01*
X-898340D01*
X-909170Y621660D01*
X286681Y402490D02*
Y337511D01*
X319171D01*
X330000Y348340D01*
Y391660D01*
X319171Y402490D01*
X286681D01*
X351660Y337511D02*
X373320D01*
X362490D01*
Y402490D01*
X351660Y391660D01*
X-1532490Y43361D02*
Y86681D01*
X-1521660D01*
X-1478340Y43361D01*
X-1467511D01*
Y86681D01*
X-1532490Y108340D02*
X-1467511D01*
Y140830D01*
X-1478340Y151660D01*
X-1521660D01*
X-1532490Y140830D01*
Y108340D01*
X-1467511Y216639D02*
Y173319D01*
X-1510830Y216639D01*
X-1521660D01*
X-1532490Y205809D01*
Y184149D01*
X-1521660Y173319D01*
X112489Y-303319D02*
X47510D01*
Y-270830D01*
X58340Y-260000D01*
X80000D01*
X90830Y-270830D01*
Y-303319D01*
Y-281660D02*
X112489Y-260000D01*
Y-238340D02*
Y-216681D01*
Y-227510D01*
X47510D01*
X58340Y-238340D01*
X-877511Y-891224D02*
X-942490D01*
Y-858734D01*
X-931660Y-847904D01*
X-910000D01*
X-899170Y-858734D01*
Y-891224D01*
Y-869564D02*
X-877511Y-847904D01*
Y-826244D02*
Y-804585D01*
Y-815415D01*
X-942490D01*
X-931660Y-826244D01*
X-877511Y-728776D02*
Y-772095D01*
X-920830Y-728776D01*
X-931660D01*
X-942490Y-739606D01*
Y-761265D01*
X-931660Y-772095D01*
X369170Y-1957510D02*
X347510D01*
X358340D01*
Y-2011660D01*
X347510Y-2022489D01*
X336681D01*
X325851Y-2011660D01*
X434149Y-1957510D02*
X390830D01*
Y-1990000D01*
X412489Y-1979170D01*
X423319D01*
X434149Y-1990000D01*
Y-2011660D01*
X423319Y-2022489D01*
X401660D01*
X390830Y-2011660D01*
X-1079128Y-37510D02*
Y-102490D01*
X-1035809D01*
X-970830Y-37510D02*
X-1014149D01*
Y-102490D01*
X-970830D01*
X-1014149Y-70000D02*
X-992490D01*
X-949170Y-37510D02*
Y-102490D01*
X-916681D01*
X-905851Y-91660D01*
Y-48340D01*
X-916681Y-37510D01*
X-949170D01*
X-840872Y-102490D02*
X-884191D01*
X-840872Y-59170D01*
Y-48340D01*
X-851702Y-37510D01*
X-873361D01*
X-884191Y-48340D01*
X1466681Y72490D02*
Y7511D01*
X1510000D01*
X1531660D02*
X1553319D01*
X1542490D01*
Y72490D01*
X1531660Y61660D01*
X-781618Y672490D02*
Y607511D01*
X-749128D01*
X-738298Y618340D01*
Y629170D01*
X-749128Y640000D01*
X-781618D01*
X-749128D01*
X-738298Y650830D01*
Y661660D01*
X-749128Y672490D01*
X-781618D01*
X-716639Y607511D02*
Y650830D01*
X-694979Y672490D01*
X-673319Y650830D01*
Y607511D01*
Y640000D01*
X-716639D01*
X-651660Y672490D02*
X-608340D01*
X-630000D01*
Y607511D01*
X-478382D02*
X-521702D01*
X-478382Y650830D01*
Y661660D01*
X-489212Y672490D01*
X-510872D01*
X-521702Y661660D01*
X290000Y-47510D02*
X246681D01*
Y-80000D01*
X268340D01*
X246681D01*
Y-112489D01*
X311660D02*
X333319D01*
X322490D01*
Y-47510D01*
X311660Y-58340D01*
X32096Y-1048340D02*
X21266Y-1037510D01*
X-394D01*
X-11224Y-1048340D01*
Y-1091659D01*
X-394Y-1102489D01*
X21266D01*
X32096Y-1091659D01*
X53755Y-1102489D02*
X75415D01*
X64585D01*
Y-1037510D01*
X53755Y-1048340D01*
X151224Y-1102489D02*
X107905D01*
X151224Y-1059170D01*
Y-1048340D01*
X140394Y-1037510D01*
X118734D01*
X107905Y-1048340D01*
X522095Y-558340D02*
X511266Y-547510D01*
X489606D01*
X478776Y-558340D01*
Y-601660D01*
X489606Y-612490D01*
X511266D01*
X522095Y-601660D01*
X543755Y-612490D02*
X565415D01*
X554585D01*
Y-547510D01*
X543755Y-558340D01*
X597904D02*
X608734Y-547510D01*
X630394D01*
X641224Y-558340D01*
Y-569170D01*
X630394Y-580000D01*
X619564D01*
X630394D01*
X641224Y-590830D01*
Y-601660D01*
X630394Y-612490D01*
X608734D01*
X597904Y-601660D01*
X-1770788Y672490D02*
Y607511D01*
X-1738298D01*
X-1727468Y618340D01*
Y629170D01*
X-1738298Y640000D01*
X-1770788D01*
X-1738298D01*
X-1727468Y650830D01*
Y661660D01*
X-1738298Y672490D01*
X-1770788D01*
X-1705809Y607511D02*
Y650830D01*
X-1684149Y672490D01*
X-1662489Y650830D01*
Y607511D01*
Y640000D01*
X-1705809D01*
X-1640830Y672490D02*
X-1597510D01*
X-1619170D01*
Y607511D01*
X-1510872D02*
X-1489212D01*
X-1500042D01*
Y672490D01*
X-1510872Y661660D01*
X-508298Y-47510D02*
Y-112489D01*
X-464979D01*
X-400000Y-47510D02*
X-443319D01*
Y-112489D01*
X-400000D01*
X-443319Y-80000D02*
X-421660D01*
X-378340Y-47510D02*
Y-112489D01*
X-345850D01*
X-335021Y-101660D01*
Y-58340D01*
X-345850Y-47510D01*
X-378340D01*
X-313361Y-112489D02*
X-291701D01*
X-302531D01*
Y-47510D01*
X-313361Y-58340D01*
X-1307511Y-174149D02*
X-1372490D01*
Y-141659D01*
X-1361660Y-130830D01*
X-1340001D01*
X-1329171Y-141659D01*
Y-174149D01*
Y-152489D02*
X-1307511Y-130830D01*
Y-76680D02*
X-1372490D01*
X-1340001Y-109170D01*
Y-65851D01*
X-927511Y-324149D02*
X-992490D01*
Y-291660D01*
X-981660Y-280830D01*
X-960000D01*
X-949170Y-291660D01*
Y-324149D01*
Y-302490D02*
X-927511Y-280830D01*
X-981660Y-259170D02*
X-992490Y-248340D01*
Y-226681D01*
X-981660Y-215851D01*
X-970830D01*
X-960000Y-226681D01*
Y-237511D01*
Y-226681D01*
X-949170Y-215851D01*
X-938341D01*
X-927511Y-226681D01*
Y-248340D01*
X-938341Y-259170D01*
X-297511Y-324149D02*
X-362490D01*
Y-291660D01*
X-351660Y-280830D01*
X-330000D01*
X-319170Y-291660D01*
Y-324149D01*
Y-302490D02*
X-297511Y-280830D01*
Y-215851D02*
Y-259170D01*
X-340830Y-215851D01*
X-351660D01*
X-362490Y-226681D01*
Y-248340D01*
X-351660Y-259170D01*
X-143319Y632490D02*
X-100000D01*
X-121660D01*
Y567511D01*
X-78340D02*
X-56681D01*
X-67510D01*
Y632490D01*
X-78340Y621660D01*
X-602490Y-425809D02*
Y-382489D01*
X-591660D01*
X-548340Y-425809D01*
X-537510D01*
Y-382489D01*
X-602490Y-360830D02*
X-537510D01*
Y-328340D01*
X-548340Y-317510D01*
X-591660D01*
X-602490Y-328340D01*
Y-360830D01*
X-537510Y-295851D02*
Y-274191D01*
Y-285021D01*
X-602490D01*
X-591660Y-295851D01*
X1238340Y180000D02*
X1227510Y169170D01*
Y147510D01*
X1238340Y136681D01*
X1281660D01*
X1292489Y147510D01*
Y169170D01*
X1281660Y180000D01*
X1292489Y201660D02*
Y223319D01*
Y212490D01*
X1227510D01*
X1238340Y201660D01*
X1019170Y-1058340D02*
X1008340Y-1047510D01*
X986681D01*
X975851Y-1058340D01*
Y-1101660D01*
X986681Y-1112490D01*
X1008340D01*
X1019170Y-1101660D01*
X1084149Y-1112490D02*
X1040830D01*
X1084149Y-1069170D01*
Y-1058340D01*
X1073319Y-1047510D01*
X1051660D01*
X1040830Y-1058340D01*
X759170D02*
X748340Y-1047510D01*
X726681D01*
X715851Y-1058340D01*
Y-1101660D01*
X726681Y-1112490D01*
X748340D01*
X759170Y-1101660D01*
X780830Y-1058340D02*
X791660Y-1047510D01*
X813319D01*
X824149Y-1058340D01*
Y-1069170D01*
X813319Y-1080000D01*
X802489D01*
X813319D01*
X824149Y-1090830D01*
Y-1101660D01*
X813319Y-1112490D01*
X791660D01*
X780830Y-1101660D01*
X468340Y-240830D02*
X457510Y-251660D01*
Y-273319D01*
X468340Y-284149D01*
X511660D01*
X522489Y-273319D01*
Y-251660D01*
X511660Y-240830D01*
X522489Y-186681D02*
X457510D01*
X490000Y-219170D01*
Y-175851D01*
X1669170Y-1098340D02*
X1658340Y-1087510D01*
X1636680D01*
X1625851Y-1098340D01*
Y-1141660D01*
X1636680Y-1152489D01*
X1658340D01*
X1669170Y-1141660D01*
X1734149Y-1087510D02*
X1690830D01*
Y-1120000D01*
X1712489Y-1109170D01*
X1723319D01*
X1734149Y-1120000D01*
Y-1141660D01*
X1723319Y-1152489D01*
X1701660D01*
X1690830Y-1141660D01*
X1669170Y-1398340D02*
X1658340Y-1387510D01*
X1636680D01*
X1625851Y-1398340D01*
Y-1441660D01*
X1636680Y-1452489D01*
X1658340D01*
X1669170Y-1441660D01*
X1734149Y-1387510D02*
X1712489Y-1398340D01*
X1690830Y-1420000D01*
Y-1441660D01*
X1701660Y-1452489D01*
X1723319D01*
X1734149Y-1441660D01*
Y-1430830D01*
X1723319Y-1420000D01*
X1690830D01*
X1669170Y-1748340D02*
X1658340Y-1737510D01*
X1636680D01*
X1625851Y-1748340D01*
Y-1791660D01*
X1636680Y-1802489D01*
X1658340D01*
X1669170Y-1791660D01*
X1690830Y-1737510D02*
X1734149D01*
Y-1748340D01*
X1690830Y-1791660D01*
Y-1802489D01*
X858340Y289170D02*
X847510Y278341D01*
Y256681D01*
X858340Y245851D01*
X901659D01*
X912489Y256681D01*
Y278341D01*
X901659Y289170D01*
X858340Y310830D02*
X847510Y321660D01*
Y343320D01*
X858340Y354149D01*
X869170D01*
X880000Y343320D01*
X890830Y354149D01*
X901659D01*
X912489Y343320D01*
Y321660D01*
X901659Y310830D01*
X890830D01*
X880000Y321660D01*
X869170Y310830D01*
X858340D01*
X880000Y321660D02*
Y343320D01*
X529170Y-438340D02*
X518340Y-427510D01*
X496680D01*
X485851Y-438340D01*
Y-481660D01*
X496680Y-492489D01*
X518340D01*
X529170Y-481660D01*
X550830D02*
X561660Y-492489D01*
X583319D01*
X594149Y-481660D01*
Y-438340D01*
X583319Y-427510D01*
X561660D01*
X550830Y-438340D01*
Y-449170D01*
X561660Y-460000D01*
X594149D01*
X-1041660Y-847904D02*
X-1052490Y-858734D01*
Y-880394D01*
X-1041660Y-891224D01*
X-998341D01*
X-987511Y-880394D01*
Y-858734D01*
X-998341Y-847904D01*
X-987511Y-826244D02*
Y-804585D01*
Y-815415D01*
X-1052490D01*
X-1041660Y-826244D01*
Y-772095D02*
X-1052490Y-761265D01*
Y-739606D01*
X-1041660Y-728776D01*
X-998341D01*
X-987511Y-739606D01*
Y-761265D01*
X-998341Y-772095D01*
X-1041660D01*
X1382926Y-1958340D02*
X1372096Y-1947510D01*
X1350436D01*
X1339606Y-1958340D01*
Y-2001660D01*
X1350436Y-2012489D01*
X1372096D01*
X1382926Y-2001660D01*
X1404585Y-2012489D02*
X1426245D01*
X1415415D01*
Y-1947510D01*
X1404585Y-1958340D01*
X1458734Y-2012489D02*
X1480394D01*
X1469564D01*
Y-1947510D01*
X1458734Y-1958340D01*
X-1684901Y-227581D02*
X-1706561D01*
X-1695731D01*
Y-281730D01*
X-1706561Y-292560D01*
X-1717391D01*
X-1728220Y-281730D01*
X-1663241Y-292560D02*
X-1641582D01*
X-1652411D01*
Y-227581D01*
X-1663241Y-238411D01*
X1202489Y135851D02*
X1137510D01*
Y168341D01*
X1148340Y179170D01*
X1169999D01*
X1180829Y168341D01*
Y135851D01*
Y157510D02*
X1202489Y179170D01*
X1137510Y244149D02*
Y200830D01*
X1169999D01*
X1159170Y222490D01*
Y233320D01*
X1169999Y244149D01*
X1191659D01*
X1202489Y233320D01*
Y211660D01*
X1191659Y200830D01*
X622489Y-364149D02*
X557510D01*
Y-331659D01*
X568340Y-320830D01*
X590000D01*
X600830Y-331659D01*
Y-364149D01*
Y-342490D02*
X622489Y-320830D01*
X557510Y-255851D02*
X568340Y-277510D01*
X590000Y-299170D01*
X611660D01*
X622489Y-288340D01*
Y-266680D01*
X611660Y-255851D01*
X600830D01*
X590000Y-266680D01*
Y-299170D01*
X732490Y-294149D02*
X667510D01*
Y-261660D01*
X678340Y-250830D01*
X700000D01*
X710830Y-261660D01*
Y-294149D01*
Y-272490D02*
X732490Y-250830D01*
X667510Y-229170D02*
Y-185851D01*
X678340D01*
X721660Y-229170D01*
X732490D01*
X812489Y145851D02*
X747510D01*
Y178341D01*
X758340Y189170D01*
X780000D01*
X790830Y178341D01*
Y145851D01*
Y167510D02*
X812489Y189170D01*
X758340Y210830D02*
X747510Y221660D01*
Y243320D01*
X758340Y254149D01*
X769170D01*
X780000Y243320D01*
X790830Y254149D01*
X801660D01*
X812489Y243320D01*
Y221660D01*
X801660Y210830D01*
X790830D01*
X780000Y221660D01*
X769170Y210830D01*
X758340D01*
X780000Y221660D02*
Y243320D01*
X465851Y7511D02*
Y72490D01*
X498340D01*
X509170Y61660D01*
Y40000D01*
X498340Y29170D01*
X465851D01*
X487510D02*
X509170Y7511D01*
X530830Y18340D02*
X541660Y7511D01*
X563319D01*
X574149Y18340D01*
Y61660D01*
X563319Y72490D01*
X541660D01*
X530830Y61660D01*
Y50830D01*
X541660Y40000D01*
X574149D01*
X1102489Y138776D02*
X1037510D01*
Y171266D01*
X1048340Y182096D01*
X1069999D01*
X1080829Y171266D01*
Y138776D01*
Y160436D02*
X1102489Y182096D01*
Y203755D02*
Y225415D01*
Y214585D01*
X1037510D01*
X1048340Y203755D01*
Y257905D02*
X1037510Y268735D01*
Y290394D01*
X1048340Y301224D01*
X1091659D01*
X1102489Y290394D01*
Y268735D01*
X1091659Y257905D01*
X1048340D01*
X1012489Y139606D02*
X947510D01*
Y172096D01*
X958340Y182926D01*
X980000D01*
X990830Y172096D01*
Y139606D01*
Y161266D02*
X1012489Y182926D01*
Y204585D02*
Y226245D01*
Y215415D01*
X947510D01*
X958340Y204585D01*
X1012489Y258735D02*
Y280394D01*
Y269564D01*
X947510D01*
X958340Y258735D01*
X-390830Y-1937510D02*
X-412490D01*
X-401660D01*
Y-1991660D01*
X-412490Y-2002490D01*
X-423319D01*
X-434149Y-1991660D01*
X-369170Y-1948340D02*
X-358340Y-1937510D01*
X-336681D01*
X-325851Y-1948340D01*
Y-1959170D01*
X-336681Y-1970000D01*
X-347511D01*
X-336681D01*
X-325851Y-1980830D01*
Y-1991660D01*
X-336681Y-2002490D01*
X-358340D01*
X-369170Y-1991660D01*
X-1180830Y-1927510D02*
X-1202490D01*
X-1191660D01*
Y-1981659D01*
X-1202490Y-1992489D01*
X-1213319D01*
X-1224149Y-1981659D01*
X-1115851Y-1992489D02*
X-1159170D01*
X-1115851Y-1949170D01*
Y-1938340D01*
X-1126680Y-1927510D01*
X-1148340D01*
X-1159170Y-1938340D01*
%TF.MD5,6624f2083244a8a6771461a2be97e52b*%
M02*
