%TF.GenerationSoftware,Altium Limited,Altium Designer,24.6.1 (21)*%
G04 Layer_Color=128*
%FSLAX45Y45*%
%MOMM*%
%TF.SameCoordinates,18E76ECD-83C5-444D-8C50-6D49F83D0F89*%
%TF.FilePolarity,Positive*%
%TF.FileFunction,Drillmap*%
%TF.Part,Single*%
G01*
G75*
%TA.AperFunction,NonConductor*%
%ADD95C,0.12700*%
D95*
X565000Y-1964000D02*
X675000D01*
X620000Y-2019000D02*
Y-1909000D01*
X819000Y-1964000D02*
X929000D01*
X874000Y-2019000D02*
Y-1909000D01*
X565000Y-1710000D02*
X675000D01*
X620000Y-1765000D02*
Y-1655000D01*
X819000Y-1710000D02*
X929000D01*
X874000Y-1765000D02*
Y-1655000D01*
X-454000Y850000D02*
X-354000D01*
X-404000Y800000D02*
Y900000D01*
X-200000Y850000D02*
X-100000D01*
X-150000Y800000D02*
Y900000D01*
X-708000Y850000D02*
X-608000D01*
X-658000Y800000D02*
Y900000D01*
X-1454000Y850000D02*
X-1354000D01*
X-1404000Y800000D02*
Y900000D01*
X-1200000Y850000D02*
X-1100000D01*
X-1150000Y800000D02*
Y900000D01*
X-1708000Y850000D02*
X-1608000D01*
X-1658000Y800000D02*
Y900000D01*
X-1719000Y-526000D02*
X-1609000D01*
X-1664000Y-581000D02*
Y-471000D01*
X-1719000Y-780000D02*
X-1609000D01*
X-1664000Y-835000D02*
Y-725000D01*
X-1465000Y-780000D02*
X-1355000D01*
X-1410000Y-835000D02*
Y-725000D01*
X-1465000Y-526000D02*
X-1355000D01*
X-1410000Y-581000D02*
Y-471000D01*
X-175000Y-1964000D02*
X-65000D01*
X-120000Y-2019000D02*
Y-1909000D01*
X79000Y-1964000D02*
X189000D01*
X134000Y-2019000D02*
Y-1909000D01*
X-175000Y-1710000D02*
X-65000D01*
X-120000Y-1765000D02*
Y-1655000D01*
X79000Y-1710000D02*
X189000D01*
X134000Y-1765000D02*
Y-1655000D01*
X-975000Y-1964000D02*
X-865000D01*
X-920000Y-2019000D02*
Y-1909000D01*
X-721000Y-1964000D02*
X-611000D01*
X-666000Y-2019000D02*
Y-1909000D01*
X-975000Y-1710000D02*
X-865000D01*
X-920000Y-1765000D02*
Y-1655000D01*
X-721000Y-1710000D02*
X-611000D01*
X-666000Y-1765000D02*
Y-1655000D01*
X940000Y100000D02*
X960000D01*
X950000Y90000D02*
Y110000D01*
X860000D02*
X880000D01*
X870000Y100000D02*
Y120000D01*
X710000Y100000D02*
X730000D01*
X720000Y90000D02*
Y110000D01*
X550000Y90000D02*
X570000D01*
X560000Y80000D02*
Y100000D01*
X720000Y190000D02*
X740000D01*
X730000Y180000D02*
Y200000D01*
X1660000Y590001D02*
X1680000D01*
X1670000Y580001D02*
Y600001D01*
X1660000Y90001D02*
X1680000D01*
X1670000Y80001D02*
Y100001D01*
X1660000Y-409999D02*
X1680000D01*
X1670000Y-419999D02*
Y-399999D01*
X1660000Y-909999D02*
X1680000D01*
X1670000Y-919999D02*
Y-899999D01*
X1660000Y-1409999D02*
X1680000D01*
X1670000Y-1419999D02*
Y-1399999D01*
X1535000Y1840001D02*
X1555000D01*
X1545000Y1830001D02*
Y1850001D01*
X1535000Y840001D02*
X1555000D01*
X1545000Y830001D02*
Y850001D01*
X1410000Y590001D02*
X1430000D01*
X1420000Y580001D02*
Y600001D01*
X1535000Y340001D02*
X1555000D01*
X1545000Y330001D02*
Y350001D01*
X1285000Y1840001D02*
X1305000D01*
X1295000Y1830001D02*
Y1850001D01*
X1285000Y840001D02*
X1305000D01*
X1295000Y830001D02*
Y850001D01*
X1285000Y340001D02*
X1305000D01*
X1295000Y330001D02*
Y350001D01*
X1160000Y-409999D02*
X1180000D01*
X1170000Y-419999D02*
Y-399999D01*
X1035000Y1840001D02*
X1055000D01*
X1045000Y1830001D02*
Y1850001D01*
X910000Y-1409999D02*
X930000D01*
X920000Y-1419999D02*
Y-1399999D01*
X785000Y1840001D02*
X805000D01*
X795000Y1830001D02*
Y1850001D01*
X660000Y-409999D02*
X680000D01*
X670000Y-419999D02*
Y-399999D01*
X785000Y-1159999D02*
X805000D01*
X795000Y-1169999D02*
Y-1149999D01*
X660000Y-1409999D02*
X680000D01*
X670000Y-1419999D02*
Y-1399999D01*
X535000Y1840001D02*
X555000D01*
X545000Y1830001D02*
Y1850001D01*
X535000Y-1159999D02*
X555000D01*
X545000Y-1169999D02*
Y-1149999D01*
X410000Y-1409999D02*
X430000D01*
X420000Y-1419999D02*
Y-1399999D01*
X410000Y-1909999D02*
X430000D01*
X420000Y-1919999D02*
Y-1900000D01*
X285000Y1840001D02*
X305000D01*
X295000Y1830001D02*
Y1850001D01*
X285000Y-1159999D02*
X305000D01*
X295000Y-1169999D02*
Y-1149999D01*
X160000Y-1409999D02*
X180000D01*
X170000Y-1419999D02*
Y-1399999D01*
X285000Y-1659999D02*
X305000D01*
X295000Y-1669999D02*
Y-1649999D01*
X35000Y1840001D02*
X55000D01*
X45000Y1830001D02*
Y1850001D01*
X-90000Y1590001D02*
X-70000D01*
X-80000Y1580001D02*
Y1600001D01*
X-215000Y1840001D02*
X-195000D01*
X-205000Y1830001D02*
Y1850001D01*
X-340000Y1590001D02*
X-320000D01*
X-330000Y1580001D02*
Y1600001D01*
X-215000Y1340001D02*
X-195000D01*
X-205000Y1330001D02*
Y1350001D01*
X-340000Y-1909999D02*
X-320000D01*
X-330000Y-1919999D02*
Y-1900000D01*
X-465000Y1840001D02*
X-445000D01*
X-455000Y1830001D02*
Y1850001D01*
X-590000Y1590001D02*
X-570000D01*
X-580000Y1580001D02*
Y1600001D01*
X-465000Y1340001D02*
X-445000D01*
X-455000Y1330001D02*
Y1350001D01*
X-465000Y-1659999D02*
X-445000D01*
X-455000Y-1669999D02*
Y-1649999D01*
X-715000Y1840001D02*
X-695000D01*
X-705000Y1830001D02*
Y1850001D01*
X-840000Y1590001D02*
X-820000D01*
X-830000Y1580001D02*
Y1600001D01*
X-715000Y1340001D02*
X-695000D01*
X-705000Y1330001D02*
Y1350001D01*
X-965000Y1840001D02*
X-945000D01*
X-955000Y1830001D02*
Y1850001D01*
X-1090000Y1590001D02*
X-1070000D01*
X-1080000Y1580001D02*
Y1600001D01*
X-965000Y1340001D02*
X-945000D01*
X-955000Y1330001D02*
Y1350001D01*
X-965000Y-1159999D02*
X-945000D01*
X-955000Y-1169999D02*
Y-1149999D01*
X-1090000Y-1409999D02*
X-1070000D01*
X-1080000Y-1419999D02*
Y-1399999D01*
X-1090000Y-1909999D02*
X-1070000D01*
X-1080000Y-1919999D02*
Y-1900000D01*
X-1215000Y1840001D02*
X-1195000D01*
X-1205000Y1830001D02*
Y1850001D01*
X-1340000Y1590001D02*
X-1320000D01*
X-1330000Y1580001D02*
Y1600001D01*
X-1215000Y1340001D02*
X-1195000D01*
X-1205000Y1330001D02*
Y1350001D01*
X-1215000Y-1159999D02*
X-1195000D01*
X-1205000Y-1169999D02*
Y-1149999D01*
X-1340000Y-1409999D02*
X-1320000D01*
X-1330000Y-1419999D02*
Y-1399999D01*
X-1215000Y-1659999D02*
X-1195000D01*
X-1205000Y-1669999D02*
Y-1649999D01*
X-1340000Y-1909999D02*
X-1320000D01*
X-1330000Y-1919999D02*
Y-1900000D01*
X-1465000Y1840001D02*
X-1445000D01*
X-1455000Y1830001D02*
Y1850001D01*
X-1590000Y1590001D02*
X-1570000D01*
X-1580000Y1580001D02*
Y1600001D01*
X-1465000Y1340001D02*
X-1445000D01*
X-1455000Y1330001D02*
Y1350001D01*
X-1465000Y-1159999D02*
X-1445000D01*
X-1455000Y-1169999D02*
Y-1149999D01*
X-1590000Y-1409999D02*
X-1570000D01*
X-1580000Y-1419999D02*
Y-1399999D01*
X-1465000Y-1659999D02*
X-1445000D01*
X-1455000Y-1669999D02*
Y-1649999D01*
X-1590000Y-1909999D02*
X-1570000D01*
X-1580000Y-1919999D02*
Y-1900000D01*
X-97500Y-892500D02*
X-67500D01*
X-82500Y-907500D02*
Y-877500D01*
X-1214999Y250000D02*
X-1184999D01*
X-1199999Y235000D02*
Y265000D01*
X-1075000Y670000D02*
X-1045000D01*
X-1060000Y655000D02*
Y685000D01*
X-1145000Y600000D02*
X-1115000D01*
X-1130000Y585000D02*
Y615000D01*
X-1215000Y670000D02*
X-1185000D01*
X-1200000Y655000D02*
Y685000D01*
X-1425000Y180000D02*
X-1395000D01*
X-1410000Y165000D02*
Y195000D01*
X-1215000Y390000D02*
X-1185000D01*
X-1200000Y375000D02*
Y405000D01*
X-1285000Y600000D02*
X-1255000D01*
X-1270000Y585000D02*
Y615000D01*
X-1215000Y530000D02*
X-1185000D01*
X-1200000Y515000D02*
Y545000D01*
X-1355000Y530000D02*
X-1325000D01*
X-1340000Y515000D02*
Y545000D01*
X-1425000Y460000D02*
X-1395000D01*
X-1410000Y445000D02*
Y475000D01*
X-1425000Y320000D02*
X-1395000D01*
X-1410000Y305000D02*
Y335000D01*
X-1355000Y390000D02*
X-1325000D01*
X-1340000Y375000D02*
Y405000D01*
X-475000Y-1360000D02*
X-455000D01*
X-465000Y-1370000D02*
Y-1350000D01*
X-425000Y-1360000D02*
X-405000D01*
X-415000Y-1370000D02*
Y-1350000D01*
X-375000Y-1360000D02*
X-355000D01*
X-365000Y-1370000D02*
Y-1350000D01*
X-375000Y-1310000D02*
X-355000D01*
X-365000Y-1320000D02*
Y-1300000D01*
X-425000Y-1310000D02*
X-405000D01*
X-415000Y-1320000D02*
Y-1300000D01*
X-475000Y-1310000D02*
X-455000D01*
X-465000Y-1320000D02*
Y-1300000D01*
X1320000Y-1110000D02*
X1340000D01*
X1330000Y-1120000D02*
Y-1100000D01*
X1320000Y-1210000D02*
X1340000D01*
X1330000Y-1220000D02*
Y-1200000D01*
X1320000Y-1310000D02*
X1340000D01*
X1330000Y-1320000D02*
Y-1300000D01*
X1320000Y-1410000D02*
X1340000D01*
X1330000Y-1420000D02*
Y-1400000D01*
X1320000Y-1510000D02*
X1340000D01*
X1330000Y-1520000D02*
Y-1500000D01*
X1320000Y-1610000D02*
X1340000D01*
X1330000Y-1620000D02*
Y-1600000D01*
X1320000Y-1710000D02*
X1340000D01*
X1330000Y-1720000D02*
Y-1700000D01*
X1320000Y-1810000D02*
X1340000D01*
X1330000Y-1820000D02*
Y-1800000D01*
X1320000Y-1910000D02*
X1340000D01*
X1330000Y-1920000D02*
Y-1900001D01*
X1320000Y-1010000D02*
X1340000D01*
X1330000Y-1020000D02*
Y-1000000D01*
X1250000Y-1495000D02*
X1269999D01*
X1260000Y-1505000D02*
Y-1485000D01*
X1250000Y-1395000D02*
X1269999D01*
X1260000Y-1405000D02*
Y-1385000D01*
X1250000Y-1295000D02*
X1269999D01*
X1260000Y-1305000D02*
Y-1285000D01*
X1250000Y-1195000D02*
X1269999D01*
X1260000Y-1205000D02*
Y-1185000D01*
X1250000Y-1095000D02*
X1269999D01*
X1260000Y-1105000D02*
Y-1085000D01*
X1225000Y-881674D02*
X1245000D01*
X1235000Y-891674D02*
Y-871674D01*
X1125000Y-881674D02*
X1145000D01*
X1135000Y-891674D02*
Y-871674D01*
X1025000Y-881674D02*
X1045000D01*
X1035000Y-891674D02*
Y-871674D01*
X925000Y-881674D02*
X945000D01*
X935000Y-891674D02*
Y-871674D01*
X825000Y-881674D02*
X845000D01*
X835000Y-891674D02*
Y-871674D01*
X725000Y-881674D02*
X745000D01*
X735000Y-891674D02*
Y-871674D01*
X625000Y-881674D02*
X645000D01*
X635000Y-891674D02*
Y-871674D01*
X525000Y-881674D02*
X545000D01*
X535000Y-891674D02*
Y-871674D01*
X425000Y-881674D02*
X445000D01*
X435000Y-891674D02*
Y-871674D01*
X325000Y-881674D02*
X345000D01*
X335000Y-891674D02*
Y-871674D01*
X225000Y-881674D02*
X245000D01*
X235000Y-891674D02*
Y-871674D01*
X124999Y-881674D02*
X144999D01*
X134999Y-891674D02*
Y-871674D01*
X925000Y-1071674D02*
X945000D01*
X935000Y-1081674D02*
Y-1061674D01*
X825000Y-1071674D02*
X845000D01*
X835000Y-1081674D02*
Y-1061674D01*
X725000Y-1071674D02*
X745000D01*
X735000Y-1081674D02*
Y-1061674D01*
X625000Y-1071674D02*
X645000D01*
X635000Y-1081674D02*
Y-1061674D01*
X525000Y-1071674D02*
X545000D01*
X535000Y-1081674D02*
Y-1061674D01*
X425000Y-1071674D02*
X445000D01*
X435000Y-1081674D02*
Y-1061674D01*
X325000Y-1071674D02*
X345000D01*
X335000Y-1081674D02*
Y-1061674D01*
X225000Y-1071674D02*
X245000D01*
X235000Y-1081674D02*
Y-1061674D01*
X124999Y-1071674D02*
X144999D01*
X134999Y-1081674D02*
Y-1061674D01*
X1060000Y-1095000D02*
X1080000D01*
X1070000Y-1105000D02*
Y-1085000D01*
X1060000Y-1195000D02*
X1080000D01*
X1070000Y-1205000D02*
Y-1185000D01*
X1060000Y-1295000D02*
X1080000D01*
X1070000Y-1305000D02*
Y-1285000D01*
X1060000Y-1395000D02*
X1080000D01*
X1070000Y-1405000D02*
Y-1385000D01*
X1060000Y-1495000D02*
X1080000D01*
X1070000Y-1505000D02*
Y-1485000D01*
X1530000Y-1010000D02*
X1550000D01*
X1540000Y-1020000D02*
Y-1000000D01*
X1530000Y-1910000D02*
X1550000D01*
X1540000Y-1920000D02*
Y-1900001D01*
X1530000Y-1810000D02*
X1550000D01*
X1540000Y-1820000D02*
Y-1800000D01*
X1530000Y-1710000D02*
X1550000D01*
X1540000Y-1720000D02*
Y-1700000D01*
X1530000Y-1610000D02*
X1550000D01*
X1540000Y-1620000D02*
Y-1600000D01*
X1530000Y-1510000D02*
X1550000D01*
X1540000Y-1520000D02*
Y-1500000D01*
X1530000Y-1410000D02*
X1550000D01*
X1540000Y-1420000D02*
Y-1400000D01*
X1530000Y-1310000D02*
X1550000D01*
X1540000Y-1320000D02*
Y-1300000D01*
X1530000Y-1210000D02*
X1550000D01*
X1540000Y-1220000D02*
Y-1200000D01*
X1530000Y-1110000D02*
X1550000D01*
X1540000Y-1120000D02*
Y-1100000D01*
X1015000Y90000D02*
X1045000D01*
X1030000Y75000D02*
Y105000D01*
X660000Y-580000D02*
X680000D01*
X670000Y-590000D02*
Y-570000D01*
X660000Y-490000D02*
X680000D01*
X670000Y-500000D02*
Y-480000D01*
X595000Y-200000D02*
X625000D01*
X610000Y-215000D02*
Y-185000D01*
X1425646Y-590592D02*
X1455646D01*
X1440646Y-605592D02*
Y-575592D01*
%TF.MD5,17d70c9dfdc3d28548747e71a9f1522e*%
M02*
