%TF.GenerationSoftware,Altium Limited,Altium Designer,24.6.1 (21)*%
G04 Layer_Color=0*
%FSLAX45Y45*%
%MOMM*%
%TF.SameCoordinates,18E76ECD-83C5-444D-8C50-6D49F83D0F89*%
%TF.FilePolarity,Positive*%
%TF.FileFunction,Plated,1,4,PTH,Drill*%
%TF.Part,Single*%
G01*
G75*
%TA.AperFunction,ComponentDrill*%
%ADD89C,1.10000*%
%ADD90C,1.10000*%
%ADD91C,1.00000*%
%TA.AperFunction,ViaDrill,NotFilled*%
%ADD92C,0.20000*%
%ADD93C,0.30000*%
D89*
X620000Y-1710000D02*
D03*
X874000D02*
D03*
X-120000D02*
D03*
X134000D02*
D03*
X-920000D02*
D03*
X-666000D02*
D03*
D90*
X-1410000Y-780000D02*
D03*
Y-526000D02*
D03*
D91*
X-404000Y850000D02*
D03*
X-150000D02*
D03*
X-658000D02*
D03*
X-1404000D02*
D03*
X-1150000D02*
D03*
X-1658000D02*
D03*
D92*
X950000Y100000D02*
D03*
X870000Y110000D02*
D03*
X720000Y100000D02*
D03*
X560000Y90000D02*
D03*
X730000Y190000D02*
D03*
X1670000Y590001D02*
D03*
Y90001D02*
D03*
Y-409999D02*
D03*
Y-909999D02*
D03*
Y-1409999D02*
D03*
X1545000Y1840001D02*
D03*
Y840001D02*
D03*
X1420000Y590001D02*
D03*
X1545000Y340001D02*
D03*
X1295000Y1840001D02*
D03*
Y840001D02*
D03*
Y340001D02*
D03*
X1170000Y-409999D02*
D03*
X1045000Y1840001D02*
D03*
X920000Y-1409999D02*
D03*
X795000Y1840001D02*
D03*
X670000Y-409999D02*
D03*
X795000Y-1159999D02*
D03*
X670000Y-1409999D02*
D03*
X545000Y1840001D02*
D03*
Y-1159999D02*
D03*
X420000Y-1409999D02*
D03*
Y-1909999D02*
D03*
X295000Y1840001D02*
D03*
Y-1159999D02*
D03*
X170000Y-1409999D02*
D03*
X295000Y-1659999D02*
D03*
X45000Y1840001D02*
D03*
X-80000Y1590001D02*
D03*
X-205000Y1840001D02*
D03*
X-330000Y1590001D02*
D03*
X-205000Y1340001D02*
D03*
X-330000Y-1909999D02*
D03*
X-455000Y1840001D02*
D03*
X-580000Y1590001D02*
D03*
X-455000Y1340001D02*
D03*
Y-1659999D02*
D03*
X-705000Y1840001D02*
D03*
X-830000Y1590001D02*
D03*
X-705000Y1340001D02*
D03*
X-955000Y1840001D02*
D03*
X-1080000Y1590001D02*
D03*
X-955000Y1340001D02*
D03*
Y-1159999D02*
D03*
X-1080000Y-1409999D02*
D03*
Y-1909999D02*
D03*
X-1205000Y1840001D02*
D03*
X-1330000Y1590001D02*
D03*
X-1205000Y1340001D02*
D03*
Y-1159999D02*
D03*
X-1330000Y-1409999D02*
D03*
X-1205000Y-1659999D02*
D03*
X-1330000Y-1909999D02*
D03*
X-1455000Y1840001D02*
D03*
X-1580000Y1590001D02*
D03*
X-1455000Y1340001D02*
D03*
Y-1159999D02*
D03*
X-1580000Y-1409999D02*
D03*
X-1455000Y-1659999D02*
D03*
X-1580000Y-1909999D02*
D03*
X-465000Y-1360000D02*
D03*
X-415000D02*
D03*
X-365000D02*
D03*
X-365000Y-1310000D02*
D03*
X-415000D02*
D03*
X-465000D02*
D03*
X1330000Y-1110000D02*
D03*
Y-1210000D02*
D03*
Y-1310000D02*
D03*
Y-1410000D02*
D03*
Y-1510000D02*
D03*
Y-1610000D02*
D03*
Y-1710000D02*
D03*
Y-1810000D02*
D03*
Y-1910000D02*
D03*
Y-1010000D02*
D03*
X1260000Y-1495000D02*
D03*
Y-1395000D02*
D03*
Y-1295000D02*
D03*
Y-1195000D02*
D03*
Y-1095000D02*
D03*
X1235000Y-881674D02*
D03*
X1135000D02*
D03*
X1035000D02*
D03*
X935000D02*
D03*
X835000D02*
D03*
X735000D02*
D03*
X635000D02*
D03*
X535000D02*
D03*
X435000D02*
D03*
X335000D02*
D03*
X235000D02*
D03*
X134999D02*
D03*
X935000Y-1071674D02*
D03*
X835000D02*
D03*
X735000D02*
D03*
X635000D02*
D03*
X535000D02*
D03*
X435000D02*
D03*
X335000D02*
D03*
X235000D02*
D03*
X134999D02*
D03*
X1070000Y-1095000D02*
D03*
Y-1195000D02*
D03*
Y-1295000D02*
D03*
Y-1395000D02*
D03*
Y-1495000D02*
D03*
X1540000Y-1010000D02*
D03*
Y-1910000D02*
D03*
Y-1810000D02*
D03*
Y-1710000D02*
D03*
Y-1610000D02*
D03*
Y-1510000D02*
D03*
Y-1410000D02*
D03*
Y-1310000D02*
D03*
Y-1210000D02*
D03*
Y-1110000D02*
D03*
X670000Y-580000D02*
D03*
Y-490000D02*
D03*
D93*
X-82500Y-892500D02*
D03*
X-1199999Y250000D02*
D03*
X-1060000Y670000D02*
D03*
X-1130000Y600000D02*
D03*
X-1200000Y670000D02*
D03*
X-1410000Y180000D02*
D03*
X-1200000Y390000D02*
D03*
X-1270000Y600000D02*
D03*
X-1200000Y530000D02*
D03*
X-1340000D02*
D03*
X-1410000Y460000D02*
D03*
Y320000D02*
D03*
X-1340000Y390000D02*
D03*
X1030000Y90000D02*
D03*
X610000Y-200000D02*
D03*
X1440646Y-590592D02*
D03*
%TF.MD5,593372c4a4b06365cf5149b47613c15a*%
M02*
