%TF.GenerationSoftware,Altium Limited,Altium Designer,24.6.1 (21)*%
G04 Layer_Physical_Order=1*
G04 Layer_Color=255*
%FSLAX45Y45*%
%MOMM*%
%TF.SameCoordinates,18E76ECD-83C5-444D-8C50-6D49F83D0F89*%
%TF.FilePolarity,Positive*%
%TF.FileFunction,Copper,L1,Top,Signal*%
%TF.Part,Single*%
G01*
G75*
%TA.AperFunction,Conductor*%
%ADD10C,0.05000*%
%TA.AperFunction,SMDPad,CuDef*%
%ADD11R,0.45000X0.75000*%
G04:AMPARAMS|DCode=12|XSize=0.45mm|YSize=0.75mm|CornerRadius=0.1125mm|HoleSize=0mm|Usage=FLASHONLY|Rotation=180.000|XOffset=0mm|YOffset=0mm|HoleType=Round|Shape=RoundedRectangle|*
%AMROUNDEDRECTD12*
21,1,0.45000,0.52500,0,0,180.0*
21,1,0.22500,0.75000,0,0,180.0*
1,1,0.22500,-0.11250,0.26250*
1,1,0.22500,0.11250,0.26250*
1,1,0.22500,0.11250,-0.26250*
1,1,0.22500,-0.11250,-0.26250*
%
%ADD12ROUNDEDRECTD12*%
%TA.AperFunction,ConnectorPad*%
%ADD13R,3.30000X4.06000*%
G04:AMPARAMS|DCode=14|XSize=3.81mm|YSize=6.35mm|CornerRadius=0.9525mm|HoleSize=0mm|Usage=FLASHONLY|Rotation=0.000|XOffset=0mm|YOffset=0mm|HoleType=Round|Shape=RoundedRectangle|*
%AMROUNDEDRECTD14*
21,1,3.81000,4.44500,0,0,0.0*
21,1,1.90500,6.35000,0,0,0.0*
1,1,1.90500,0.95250,-2.22250*
1,1,1.90500,-0.95250,-2.22250*
1,1,1.90500,-0.95250,2.22250*
1,1,1.90500,0.95250,2.22250*
%
%ADD14ROUNDEDRECTD14*%
G04:AMPARAMS|DCode=15|XSize=3.3mm|YSize=6.35mm|CornerRadius=0.825mm|HoleSize=0mm|Usage=FLASHONLY|Rotation=0.000|XOffset=0mm|YOffset=0mm|HoleType=Round|Shape=RoundedRectangle|*
%AMROUNDEDRECTD15*
21,1,3.30000,4.70000,0,0,0.0*
21,1,1.65000,6.35000,0,0,0.0*
1,1,1.65000,0.82500,-2.35000*
1,1,1.65000,-0.82500,-2.35000*
1,1,1.65000,-0.82500,2.35000*
1,1,1.65000,0.82500,2.35000*
%
%ADD15ROUNDEDRECTD15*%
%TA.AperFunction,SMDPad,CuDef*%
%ADD16R,0.90000X1.95000*%
G04:AMPARAMS|DCode=17|XSize=0.9mm|YSize=1.95mm|CornerRadius=0.11mm|HoleSize=0mm|Usage=FLASHONLY|Rotation=180.000|XOffset=0mm|YOffset=0mm|HoleType=Round|Shape=RoundedRectangle|*
%AMROUNDEDRECTD17*
21,1,0.90000,1.73000,0,0,180.0*
21,1,0.68000,1.95000,0,0,180.0*
1,1,0.22000,-0.34000,0.86500*
1,1,0.22000,0.34000,0.86500*
1,1,0.22000,0.34000,-0.86500*
1,1,0.22000,-0.34000,-0.86500*
%
%ADD17ROUNDEDRECTD17*%
G04:AMPARAMS|DCode=18|XSize=3.25mm|YSize=1.95mm|CornerRadius=0.25mm|HoleSize=0mm|Usage=FLASHONLY|Rotation=180.000|XOffset=0mm|YOffset=0mm|HoleType=Round|Shape=RoundedRectangle|*
%AMROUNDEDRECTD18*
21,1,3.25000,1.45000,0,0,180.0*
21,1,2.75000,1.95000,0,0,180.0*
1,1,0.50000,-1.37500,0.72500*
1,1,0.50000,1.37500,0.72500*
1,1,0.50000,1.37500,-0.72500*
1,1,0.50000,-1.37500,-0.72500*
%
%ADD18ROUNDEDRECTD18*%
G04:AMPARAMS|DCode=19|XSize=0.45mm|YSize=1.05mm|CornerRadius=0.1125mm|HoleSize=0mm|Usage=FLASHONLY|Rotation=90.000|XOffset=0mm|YOffset=0mm|HoleType=Round|Shape=RoundedRectangle|*
%AMROUNDEDRECTD19*
21,1,0.45000,0.82500,0,0,90.0*
21,1,0.22500,1.05000,0,0,90.0*
1,1,0.22500,0.41250,0.11250*
1,1,0.22500,0.41250,-0.11250*
1,1,0.22500,-0.41250,-0.11250*
1,1,0.22500,-0.41250,0.11250*
%
%ADD19ROUNDEDRECTD19*%
G04:AMPARAMS|DCode=20|XSize=4.7mm|YSize=4.5mm|CornerRadius=0.1125mm|HoleSize=0mm|Usage=FLASHONLY|Rotation=270.000|XOffset=0mm|YOffset=0mm|HoleType=Round|Shape=RoundedRectangle|*
%AMROUNDEDRECTD20*
21,1,4.70000,4.27500,0,0,270.0*
21,1,4.47500,4.50000,0,0,270.0*
1,1,0.22500,-2.13750,-2.23750*
1,1,0.22500,-2.13750,2.23750*
1,1,0.22500,2.13750,2.23750*
1,1,0.22500,2.13750,-2.23750*
%
%ADD20ROUNDEDRECTD20*%
%ADD21R,1.05000X0.45000*%
G04:AMPARAMS|DCode=22|XSize=1.1mm|YSize=0.9mm|CornerRadius=0.225mm|HoleSize=0mm|Usage=FLASHONLY|Rotation=90.000|XOffset=0mm|YOffset=0mm|HoleType=Round|Shape=RoundedRectangle|*
%AMROUNDEDRECTD22*
21,1,1.10000,0.45000,0,0,90.0*
21,1,0.65000,0.90000,0,0,90.0*
1,1,0.45000,0.22500,0.32500*
1,1,0.45000,0.22500,-0.32500*
1,1,0.45000,-0.22500,-0.32500*
1,1,0.45000,-0.22500,0.32500*
%
%ADD22ROUNDEDRECTD22*%
%ADD23R,0.90000X1.10000*%
G04:AMPARAMS|DCode=24|XSize=0.7mm|YSize=0.6mm|CornerRadius=0.15mm|HoleSize=0mm|Usage=FLASHONLY|Rotation=180.000|XOffset=0mm|YOffset=0mm|HoleType=Round|Shape=RoundedRectangle|*
%AMROUNDEDRECTD24*
21,1,0.70000,0.30000,0,0,180.0*
21,1,0.40000,0.60000,0,0,180.0*
1,1,0.30000,-0.20000,0.15000*
1,1,0.30000,0.20000,0.15000*
1,1,0.30000,0.20000,-0.15000*
1,1,0.30000,-0.20000,-0.15000*
%
%ADD24ROUNDEDRECTD24*%
%ADD25R,0.70000X0.60000*%
G04:AMPARAMS|DCode=26|XSize=0.75mm|YSize=0.6mm|CornerRadius=0.15mm|HoleSize=0mm|Usage=FLASHONLY|Rotation=180.000|XOffset=0mm|YOffset=0mm|HoleType=Round|Shape=RoundedRectangle|*
%AMROUNDEDRECTD26*
21,1,0.75000,0.30000,0,0,180.0*
21,1,0.45000,0.60000,0,0,180.0*
1,1,0.30000,-0.22500,0.15000*
1,1,0.30000,0.22500,0.15000*
1,1,0.30000,0.22500,-0.15000*
1,1,0.30000,-0.22500,-0.15000*
%
%ADD26ROUNDEDRECTD26*%
G04:AMPARAMS|DCode=27|XSize=0.45mm|YSize=0.4mm|CornerRadius=0.1mm|HoleSize=0mm|Usage=FLASHONLY|Rotation=180.000|XOffset=0mm|YOffset=0mm|HoleType=Round|Shape=RoundedRectangle|*
%AMROUNDEDRECTD27*
21,1,0.45000,0.20000,0,0,180.0*
21,1,0.25000,0.40000,0,0,180.0*
1,1,0.20000,-0.12500,0.10000*
1,1,0.20000,0.12500,0.10000*
1,1,0.20000,0.12500,-0.10000*
1,1,0.20000,-0.12500,-0.10000*
%
%ADD27ROUNDEDRECTD27*%
%ADD28R,0.80000X0.80000*%
G04:AMPARAMS|DCode=29|XSize=0.8mm|YSize=0.8mm|CornerRadius=0.2mm|HoleSize=0mm|Usage=FLASHONLY|Rotation=90.000|XOffset=0mm|YOffset=0mm|HoleType=Round|Shape=RoundedRectangle|*
%AMROUNDEDRECTD29*
21,1,0.80000,0.40000,0,0,90.0*
21,1,0.40000,0.80000,0,0,90.0*
1,1,0.40000,0.20000,0.20000*
1,1,0.40000,0.20000,-0.20000*
1,1,0.40000,-0.20000,-0.20000*
1,1,0.40000,-0.20000,0.20000*
%
%ADD29ROUNDEDRECTD29*%
G04:AMPARAMS|DCode=30|XSize=3.05mm|YSize=2.8mm|CornerRadius=0.14mm|HoleSize=0mm|Usage=FLASHONLY|Rotation=0.000|XOffset=0mm|YOffset=0mm|HoleType=Round|Shape=RoundedRectangle|*
%AMROUNDEDRECTD30*
21,1,3.05000,2.52000,0,0,0.0*
21,1,2.77000,2.80000,0,0,0.0*
1,1,0.28000,1.38500,-1.26000*
1,1,0.28000,-1.38500,-1.26000*
1,1,0.28000,-1.38500,1.26000*
1,1,0.28000,1.38500,1.26000*
%
%ADD30ROUNDEDRECTD30*%
G04:AMPARAMS|DCode=31|XSize=2.5mm|YSize=1mm|CornerRadius=0.25mm|HoleSize=0mm|Usage=FLASHONLY|Rotation=0.000|XOffset=0mm|YOffset=0mm|HoleType=Round|Shape=RoundedRectangle|*
%AMROUNDEDRECTD31*
21,1,2.50000,0.50000,0,0,0.0*
21,1,2.00000,1.00000,0,0,0.0*
1,1,0.50000,1.00000,-0.25000*
1,1,0.50000,-1.00000,-0.25000*
1,1,0.50000,-1.00000,0.25000*
1,1,0.50000,1.00000,0.25000*
%
%ADD31ROUNDEDRECTD31*%
G04:AMPARAMS|DCode=32|XSize=2.6mm|YSize=1mm|CornerRadius=0.25mm|HoleSize=0mm|Usage=FLASHONLY|Rotation=0.000|XOffset=0mm|YOffset=0mm|HoleType=Round|Shape=RoundedRectangle|*
%AMROUNDEDRECTD32*
21,1,2.60000,0.50000,0,0,0.0*
21,1,2.10000,1.00000,0,0,0.0*
1,1,0.50000,1.05000,-0.25000*
1,1,0.50000,-1.05000,-0.25000*
1,1,0.50000,-1.05000,0.25000*
1,1,0.50000,1.05000,0.25000*
%
%ADD32ROUNDEDRECTD32*%
G04:AMPARAMS|DCode=33|XSize=0.54mm|YSize=0.5mm|CornerRadius=0.125mm|HoleSize=0mm|Usage=FLASHONLY|Rotation=270.000|XOffset=0mm|YOffset=0mm|HoleType=Round|Shape=RoundedRectangle|*
%AMROUNDEDRECTD33*
21,1,0.54000,0.25000,0,0,270.0*
21,1,0.29000,0.50000,0,0,270.0*
1,1,0.25000,-0.12500,-0.14500*
1,1,0.25000,-0.12500,0.14500*
1,1,0.25000,0.12500,0.14500*
1,1,0.25000,0.12500,-0.14500*
%
%ADD33ROUNDEDRECTD33*%
G04:AMPARAMS|DCode=34|XSize=0.54mm|YSize=0.5mm|CornerRadius=0.125mm|HoleSize=0mm|Usage=FLASHONLY|Rotation=180.000|XOffset=0mm|YOffset=0mm|HoleType=Round|Shape=RoundedRectangle|*
%AMROUNDEDRECTD34*
21,1,0.54000,0.25000,0,0,180.0*
21,1,0.29000,0.50000,0,0,180.0*
1,1,0.25000,-0.14500,0.12500*
1,1,0.25000,0.14500,0.12500*
1,1,0.25000,0.14500,-0.12500*
1,1,0.25000,-0.14500,-0.12500*
%
%ADD34ROUNDEDRECTD34*%
G04:AMPARAMS|DCode=35|XSize=2.6mm|YSize=1mm|CornerRadius=0.25mm|HoleSize=0mm|Usage=FLASHONLY|Rotation=270.000|XOffset=0mm|YOffset=0mm|HoleType=Round|Shape=RoundedRectangle|*
%AMROUNDEDRECTD35*
21,1,2.60000,0.50000,0,0,270.0*
21,1,2.10000,1.00000,0,0,270.0*
1,1,0.50000,-0.25000,-1.05000*
1,1,0.50000,-0.25000,1.05000*
1,1,0.50000,0.25000,1.05000*
1,1,0.50000,0.25000,-1.05000*
%
%ADD35ROUNDEDRECTD35*%
G04:AMPARAMS|DCode=36|XSize=0.45mm|YSize=0.4mm|CornerRadius=0.1mm|HoleSize=0mm|Usage=FLASHONLY|Rotation=270.000|XOffset=0mm|YOffset=0mm|HoleType=Round|Shape=RoundedRectangle|*
%AMROUNDEDRECTD36*
21,1,0.45000,0.20000,0,0,270.0*
21,1,0.25000,0.40000,0,0,270.0*
1,1,0.20000,-0.10000,-0.12500*
1,1,0.20000,-0.10000,0.12500*
1,1,0.20000,0.10000,0.12500*
1,1,0.20000,0.10000,-0.12500*
%
%ADD36ROUNDEDRECTD36*%
%TA.AperFunction,Conductor*%
%ADD37C,0.30000*%
%ADD38C,0.38100*%
%TA.AperFunction,ComponentPad*%
%ADD39C,1.10000*%
%ADD40R,1.80000X1.80000*%
%ADD41C,1.80000*%
%ADD42C,1.57480*%
%ADD43R,1.57480X1.57480*%
%ADD44R,1.80000X1.80000*%
%TA.AperFunction,ViaPad*%
%ADD45C,0.45000*%
%ADD46C,0.65000*%
%ADD47C,0.60000*%
G36*
X1824511Y1705968D02*
X1812011Y1701725D01*
X1799079Y1718579D01*
X1772915Y1738655D01*
X1742446Y1751276D01*
X1709749Y1755580D01*
X1629499D01*
Y1407000D01*
Y1058419D01*
X1709749D01*
X1742446Y1062724D01*
X1772915Y1075344D01*
X1799079Y1095420D01*
X1812011Y1112274D01*
X1824511Y1108031D01*
Y1000000D01*
X660000D01*
X265000Y605000D01*
Y257500D01*
X252500D01*
Y122500D01*
X265000D01*
Y-65001D01*
X200000Y-130000D01*
X-310000D01*
Y498410D01*
X-291940Y516470D01*
X-110001D01*
X-100433Y520433D01*
X-433Y620433D01*
X3530Y630000D01*
Y1180000D01*
X0Y1188522D01*
Y1790000D01*
X1824511D01*
Y1705968D01*
D02*
G37*
G36*
Y1803530D02*
X0D01*
X-9567Y1799567D01*
X-13530Y1790000D01*
Y1193530D01*
X-266470D01*
X-273235Y1190728D01*
X-280000Y1193530D01*
X-1690001D01*
X-1699568Y1189567D01*
X-1799567Y1089567D01*
X-1803530Y1080000D01*
Y700001D01*
X-1800728Y693236D01*
X-1803530Y686471D01*
Y-359638D01*
X-1803519Y-359666D01*
X-1803530Y-359693D01*
X-1803211Y-360455D01*
X-1799638Y-372243D01*
X-1799645Y-372555D01*
X-1801570Y-377312D01*
X-1803530Y-382044D01*
Y-670000D01*
X-1800728Y-676765D01*
X-1803530Y-683530D01*
Y-980000D01*
X-1799567Y-989567D01*
X-1790000Y-993530D01*
X-1114809D01*
X-1114158Y-993260D01*
X-1113483Y-993465D01*
X-1109457Y-991313D01*
X-1108119Y-990759D01*
X-1102634Y-992286D01*
X-1101581Y-993632D01*
X-1098071Y-1006007D01*
X-1098143Y-1006352D01*
X-1104534Y-1015917D01*
X-1107336Y-1029999D01*
X-1050001D01*
Y-1044999D01*
X-1035001D01*
Y-1100733D01*
X-1018918Y-1097534D01*
X-1004860Y-1088141D01*
X-995466Y-1074083D01*
X-994049Y-1066955D01*
X-981304Y-1066955D01*
X-980179Y-1072607D01*
X-971339Y-1085839D01*
X-958108Y-1094679D01*
X-945000Y-1097286D01*
Y-1047000D01*
X-930000D01*
Y-1032000D01*
X-877712D01*
X-879821Y-1021393D01*
X-888662Y-1008162D01*
X-896341Y-1003031D01*
X-892549Y-990531D01*
X-877393D01*
X-875502Y-991314D01*
X-871477Y-993465D01*
X-870803Y-993260D01*
X-870151Y-993530D01*
X-823530D01*
Y-1590000D01*
X-905000D01*
Y-1710000D01*
Y-1830000D01*
X-823530D01*
Y-1890000D01*
X-819568Y-1899567D01*
X-810000Y-1903530D01*
X-718667D01*
X-713490Y-1916030D01*
X-720014Y-1922554D01*
X-728900Y-1937946D01*
X-733500Y-1955114D01*
Y-1972887D01*
X-728900Y-1990054D01*
X-720014Y-2005446D01*
X-713448Y-2012011D01*
X-718626Y-2024512D01*
X-867374D01*
X-872552Y-2012011D01*
X-865987Y-2005446D01*
X-857100Y-1990054D01*
X-852500Y-1972887D01*
Y-1955114D01*
X-857100Y-1937946D01*
X-865987Y-1922554D01*
X-878554Y-1909987D01*
X-893946Y-1901100D01*
X-911114Y-1896500D01*
X-928887D01*
X-946054Y-1901100D01*
X-961446Y-1909987D01*
X-974014Y-1922554D01*
X-982900Y-1937946D01*
X-987500Y-1955114D01*
Y-1972887D01*
X-982900Y-1990054D01*
X-974014Y-2005446D01*
X-967448Y-2012011D01*
X-972626Y-2024512D01*
X-1824512D01*
Y2024512D01*
X1824511D01*
Y1803530D01*
D02*
G37*
G36*
X-280000Y730000D02*
X-309997Y700003D01*
X-450003Y700002D01*
X-520000Y770000D01*
Y910005D01*
X-599996Y990000D01*
X-740001D01*
X-1010001Y720000D01*
X-1260000D01*
Y930000D01*
X-1350001Y1020000D01*
X-1460001D01*
X-1550000Y929999D01*
Y740000D01*
X-1590000Y700000D01*
X-1790000Y700001D01*
Y1080000D01*
X-1690001Y1180000D01*
X-280000D01*
Y730000D01*
D02*
G37*
G36*
X-10000Y630000D02*
X-110001Y530000D01*
X-300000D01*
X-316618Y513382D01*
X-317676Y512675D01*
X-318383Y511617D01*
X-320000Y510000D01*
Y509196D01*
X-323477Y503992D01*
X-324848Y497102D01*
X-326236Y493750D01*
Y120000D01*
X-490000D01*
Y109124D01*
X-491873Y107873D01*
X-497122Y100017D01*
X-498966Y90750D01*
Y68250D01*
X-497122Y58983D01*
X-491873Y51127D01*
X-490000Y49876D01*
Y-120000D01*
X-1107500D01*
Y501705D01*
X-1010001Y599205D01*
X-1010000Y699999D01*
X-733531Y976470D01*
X-605600D01*
X-533530Y904401D01*
Y770000D01*
X-529567Y760433D01*
X-459570Y690435D01*
X-450003Y686472D01*
X-309997Y686473D01*
X-300430Y690436D01*
X-270433Y720433D01*
X-266470Y730000D01*
Y1180000D01*
X-10000D01*
Y630000D01*
D02*
G37*
G36*
X-1280000Y930866D02*
X-1280000Y740000D01*
Y700000D01*
X-1460001Y519999D01*
Y-2499D01*
X-1342500Y-120000D01*
X-1121030D01*
X-1117067Y-129567D01*
X-1107500Y-133530D01*
X-755001D01*
Y-160711D01*
X-805644D01*
X-807674Y-157674D01*
X-816770Y-151596D01*
X-827500Y-149461D01*
X-872500D01*
X-883230Y-151596D01*
X-892327Y-157674D01*
X-898405Y-166770D01*
X-900539Y-177500D01*
Y-207500D01*
X-898405Y-218230D01*
X-892327Y-227326D01*
X-883230Y-233404D01*
X-872500Y-235539D01*
X-827500D01*
X-816770Y-233404D01*
X-807674Y-227326D01*
X-801596Y-218230D01*
X-801309Y-216789D01*
X-755001D01*
Y-237500D01*
X-650000D01*
Y-133530D01*
X-628364D01*
X-617509Y-137500D01*
Y-222500D01*
X-522508D01*
Y-213039D01*
X-478940D01*
X-478405Y-215730D01*
X-472327Y-224827D01*
X-463230Y-230905D01*
X-452500Y-233039D01*
X-407500D01*
X-396770Y-230905D01*
X-387674Y-224827D01*
X-381596Y-215730D01*
X-379462Y-205000D01*
Y-175000D01*
X-381596Y-164270D01*
X-387674Y-155174D01*
X-396770Y-149096D01*
X-403711Y-147715D01*
Y-120000D01*
X-323530D01*
Y-130000D01*
X-319568Y-139567D01*
X-310000Y-143530D01*
X-202500D01*
Y-247500D01*
X-97500D01*
Y-221789D01*
X-66027D01*
X-62327Y-227326D01*
X-53230Y-233404D01*
X-42500Y-235539D01*
X2500D01*
X13230Y-233404D01*
X22326Y-227326D01*
X28404Y-218230D01*
X30539Y-207500D01*
Y-177500D01*
X28404Y-166770D01*
X22326Y-157674D01*
X19867Y-156030D01*
X23659Y-143530D01*
X200000D01*
X209567Y-139567D01*
X274567Y-74568D01*
X278530Y-65001D01*
Y-51470D01*
X280000Y-50000D01*
Y600865D01*
X665604Y986470D01*
X1150000D01*
Y260000D01*
X599999D01*
X595872Y255872D01*
X593844Y255469D01*
X582266Y247734D01*
X574531Y236156D01*
X574127Y234128D01*
X470000Y130000D01*
X470000Y-233039D01*
Y-351019D01*
X349956D01*
X349900Y-351042D01*
X349845Y-351020D01*
X14789Y-353759D01*
X11240Y-355263D01*
X10590Y-355134D01*
X1168Y-357009D01*
X-41168D01*
X-50591Y-355134D01*
X-51644Y-355344D01*
X-54167Y-354323D01*
X-1781125Y-368441D01*
X-1790000Y-359638D01*
Y686471D01*
X-1590000Y686470D01*
X-1580433Y690433D01*
X-1540433Y730433D01*
X-1536470Y740000D01*
Y924395D01*
X-1454396Y1006470D01*
X-1355605D01*
X-1280000Y930866D01*
D02*
G37*
G36*
X1824511Y-2024512D02*
X1626030D01*
Y-520000D01*
X1622067Y-510433D01*
X1612500Y-506470D01*
X1300000D01*
X1290433Y-510433D01*
X1286470Y-520000D01*
Y-1910705D01*
X1285311Y-1913503D01*
X1283202Y-1916072D01*
X1279410Y-1928572D01*
X1279624Y-1930744D01*
X1279026Y-1931936D01*
X1274452Y-1937352D01*
X1269019Y-1939946D01*
X1268046Y-1940216D01*
X1264500Y-1939511D01*
X1239500D01*
X1229746Y-1941451D01*
X1228379Y-1942364D01*
X1221226Y-1946762D01*
X1212360Y-1939178D01*
X1209141Y-1934360D01*
X1195083Y-1924966D01*
X1188102Y-1923578D01*
X1189333Y-1911078D01*
X1190000D01*
X1211460Y-1906809D01*
X1229653Y-1894653D01*
X1241809Y-1876460D01*
X1246077Y-1855000D01*
Y-1765000D01*
X1165000D01*
X1083923D01*
Y-1855000D01*
X1088191Y-1876460D01*
X1100347Y-1894653D01*
X1118540Y-1906809D01*
X1140000Y-1911078D01*
X1142667D01*
X1143898Y-1923578D01*
X1136917Y-1924966D01*
X1122860Y-1934360D01*
X1113466Y-1948418D01*
X1110267Y-1964500D01*
X1165999D01*
Y-1994500D01*
X1110267D01*
X1113466Y-2010583D01*
X1115407Y-2013487D01*
X1109514Y-2024512D01*
X926626D01*
X921448Y-2012011D01*
X928013Y-2005446D01*
X936900Y-1990054D01*
X941500Y-1972887D01*
Y-1955114D01*
X936900Y-1937946D01*
X928013Y-1922554D01*
X915446Y-1909987D01*
X900054Y-1901100D01*
X882886Y-1896500D01*
X865113D01*
X847946Y-1901100D01*
X832554Y-1909987D01*
X819986Y-1922554D01*
X811100Y-1937946D01*
X806500Y-1955114D01*
Y-1972887D01*
X811100Y-1990054D01*
X819986Y-2005446D01*
X826552Y-2012011D01*
X821374Y-2024512D01*
X672626D01*
X667448Y-2012011D01*
X674013Y-2005446D01*
X682900Y-1990054D01*
X687500Y-1972887D01*
Y-1955114D01*
X682900Y-1937946D01*
X674013Y-1922554D01*
X661446Y-1909987D01*
X646054Y-1901100D01*
X628886Y-1896500D01*
X611113D01*
X593946Y-1901100D01*
X578554Y-1909987D01*
X565986Y-1922554D01*
X557100Y-1937946D01*
X552500Y-1955114D01*
Y-1972887D01*
X557100Y-1990054D01*
X565986Y-2005446D01*
X572552Y-2012011D01*
X567374Y-2024512D01*
X186626D01*
X181448Y-2012011D01*
X188013Y-2005446D01*
X196900Y-1990054D01*
X201500Y-1972887D01*
Y-1955114D01*
X196900Y-1937946D01*
X188013Y-1922554D01*
X175446Y-1909987D01*
X160054Y-1901100D01*
X142886Y-1896500D01*
X125114D01*
X107946Y-1901100D01*
X92554Y-1909987D01*
X79987Y-1922554D01*
X71100Y-1937946D01*
X66500Y-1955114D01*
Y-1972887D01*
X71100Y-1990054D01*
X79987Y-2005446D01*
X86552Y-2012011D01*
X81374Y-2024512D01*
X-67374D01*
X-72552Y-2012011D01*
X-65987Y-2005446D01*
X-57100Y-1990054D01*
X-52500Y-1972887D01*
Y-1955114D01*
X-57100Y-1937946D01*
X-65987Y-1922554D01*
X-78554Y-1909987D01*
X-93946Y-1901100D01*
X-111114Y-1896500D01*
X-128886D01*
X-146054Y-1901100D01*
X-161446Y-1909987D01*
X-174013Y-1922554D01*
X-182900Y-1937946D01*
X-187500Y-1955114D01*
Y-1972887D01*
X-182900Y-1990054D01*
X-174013Y-2005446D01*
X-167448Y-2012011D01*
X-172626Y-2024512D01*
X-613374D01*
X-618552Y-2012011D01*
X-611987Y-2005446D01*
X-603100Y-1990054D01*
X-598500Y-1972887D01*
Y-1955114D01*
X-603100Y-1937946D01*
X-611987Y-1922554D01*
X-618511Y-1916030D01*
X-613333Y-1903530D01*
X-500001D01*
X-490433Y-1899567D01*
X-486470Y-1890000D01*
Y-993530D01*
X-425604D01*
X-343531Y-1075604D01*
X-343531Y-1303037D01*
X-343530Y-1303038D01*
Y-1316962D01*
X-343531Y-1316963D01*
Y-1353038D01*
X-343530Y-1353038D01*
Y-1366962D01*
X-343531Y-1366962D01*
X-343530Y-1870000D01*
X-339567Y-1879567D01*
X-330000Y-1883530D01*
X20000D01*
X29567Y-1879567D01*
X33530Y-1870000D01*
Y-1796913D01*
X46030Y-1791736D01*
X60318Y-1806024D01*
X87682Y-1821822D01*
X118202Y-1830000D01*
X119000D01*
Y-1710000D01*
Y-1590000D01*
X118202D01*
X87682Y-1598178D01*
X60318Y-1613976D01*
X46030Y-1628265D01*
X33530Y-1623087D01*
Y-823530D01*
X1150000D01*
X1159567Y-819567D01*
X1163530Y-810000D01*
Y-448530D01*
X1159567Y-438963D01*
X1150000Y-435000D01*
X978530D01*
Y-365605D01*
X990604Y-353530D01*
X1164395D01*
X1210433Y-399567D01*
X1220000Y-403530D01*
X1610000D01*
X1619567Y-399567D01*
X1623530Y-390000D01*
Y-386000D01*
X1625519Y-376000D01*
Y-124000D01*
X1623530Y-114000D01*
Y130000D01*
X1619567Y139567D01*
X1610000Y143530D01*
X1301000D01*
X1291433Y139567D01*
X1287470Y130000D01*
Y115198D01*
X1287740Y114547D01*
X1287535Y113872D01*
X1289687Y109846D01*
X1291433Y105631D01*
X1292084Y105361D01*
X1292417Y104739D01*
X1297469Y100593D01*
Y83856D01*
X1295476Y82524D01*
X1289950Y74254D01*
X1289372Y71348D01*
X1276627D01*
X1276049Y74254D01*
X1270524Y82524D01*
X1262254Y88049D01*
X1252500Y89990D01*
X1227500D01*
X1217745Y88049D01*
X1209476Y82524D01*
X1209238Y82168D01*
X1156384D01*
X1152500Y82941D01*
X1127500D01*
X1118721Y81194D01*
X1111278Y76221D01*
X1106305Y68779D01*
X1104559Y60000D01*
Y40000D01*
X1106305Y31221D01*
X1111278Y23778D01*
X1118721Y18805D01*
X1127500Y17059D01*
X1152500D01*
X1156384Y17832D01*
X1209238D01*
X1209476Y17476D01*
X1217745Y11950D01*
X1227500Y10010D01*
X1252500D01*
X1262254Y11950D01*
X1270524Y17476D01*
X1276049Y25745D01*
X1276627Y28651D01*
X1289372D01*
X1289950Y25745D01*
X1295476Y17476D01*
X1297469Y16144D01*
Y-593D01*
X1292417Y-4739D01*
X1292084Y-5361D01*
X1291433Y-5631D01*
X1289686Y-9847D01*
X1287535Y-13872D01*
X1287740Y-14547D01*
X1287470Y-15198D01*
Y-72967D01*
X1153967Y-206470D01*
X979999D01*
X970432Y-210433D01*
X910432Y-270433D01*
X906469Y-280000D01*
Y-336692D01*
X897698Y-346367D01*
X897484Y-346543D01*
X847389Y-346953D01*
X846097Y-347500D01*
X777500D01*
Y-437892D01*
X772877Y-441001D01*
X765000Y-443429D01*
X753083Y-435466D01*
X739001Y-432665D01*
Y-489999D01*
Y-547335D01*
X740078Y-547121D01*
X750709Y-557751D01*
X749267Y-565001D01*
X805000D01*
Y-595001D01*
X749267D01*
X750056Y-598970D01*
X739798Y-611470D01*
X616011D01*
X483530Y-478990D01*
Y-364549D01*
X480728Y-357784D01*
X483530Y-351019D01*
Y-233039D01*
Y-175921D01*
X495739Y-169053D01*
X496030Y-169106D01*
X505500Y-170990D01*
X534500D01*
X544254Y-169049D01*
X550437Y-164918D01*
X563764D01*
X566599Y-168280D01*
X570646Y-177418D01*
X565000Y-191049D01*
Y-208951D01*
X571851Y-225491D01*
X584509Y-238149D01*
X601049Y-245000D01*
X618951D01*
X635490Y-238149D01*
X648149Y-225491D01*
X655000Y-208951D01*
Y-191049D01*
X648149Y-174509D01*
X642168Y-168528D01*
Y-153563D01*
X643694Y-151279D01*
X645440Y-142500D01*
Y-122500D01*
X643694Y-113721D01*
X638721Y-106279D01*
X631279Y-101306D01*
X622500Y-99559D01*
X597500D01*
X592359Y-100582D01*
X549689D01*
X547404Y-99055D01*
X545795Y-87926D01*
X546359Y-84624D01*
X552208Y-79668D01*
X593616D01*
X597500Y-80441D01*
X622500D01*
X626384Y-79668D01*
X683616D01*
X687500Y-80441D01*
X712500D01*
X721279Y-78695D01*
X726001Y-75539D01*
X759152D01*
X761278Y-78721D01*
X768721Y-83695D01*
X770133Y-83975D01*
X775595Y-97594D01*
X773565Y-100332D01*
X716384D01*
X712500Y-99559D01*
X687500D01*
X678721Y-101306D01*
X671279Y-106279D01*
X666306Y-113721D01*
X664559Y-122500D01*
Y-142500D01*
X666306Y-151279D01*
X671279Y-158722D01*
X678721Y-163695D01*
X687500Y-165441D01*
X712500D01*
X716384Y-164668D01*
X777035D01*
Y-168750D01*
X778878Y-178017D01*
X784127Y-185873D01*
X791983Y-191123D01*
X801250Y-192966D01*
X823750D01*
X833017Y-191123D01*
X836186Y-189005D01*
X845000Y-186872D01*
X853814Y-189005D01*
X856983Y-191123D01*
X866250Y-192966D01*
X888750D01*
X898017Y-191123D01*
X901186Y-189005D01*
X910000Y-186872D01*
X918814Y-189005D01*
X921983Y-191123D01*
X931250Y-192966D01*
X953750D01*
X963017Y-191123D01*
X966186Y-189005D01*
X975000Y-186872D01*
X983814Y-189005D01*
X986983Y-191123D01*
X996250Y-192966D01*
X1018750D01*
X1028017Y-191123D01*
X1035873Y-185873D01*
X1041122Y-178017D01*
X1042965Y-168750D01*
Y-148039D01*
X1052500D01*
X1063230Y-145905D01*
X1072326Y-139827D01*
X1144212Y-67941D01*
X1152500D01*
X1161279Y-66195D01*
X1168721Y-61222D01*
X1173694Y-53779D01*
X1175440Y-45000D01*
Y-25000D01*
X1173694Y-16221D01*
X1168721Y-8779D01*
X1161279Y-3806D01*
X1152500Y-2059D01*
X1127500D01*
X1118721Y-3806D01*
X1111278Y-8779D01*
X1106305Y-16221D01*
X1104559Y-25000D01*
Y-28288D01*
X1077940Y-54906D01*
X1065440Y-49729D01*
Y-45000D01*
X1063694Y-36221D01*
X1058721Y-28779D01*
X1051279Y-23806D01*
X1042500Y-22059D01*
X1017500D01*
X1008721Y-23806D01*
X1005869Y-25711D01*
X984353D01*
X981175Y-13676D01*
X981358Y-13007D01*
X991338Y-6338D01*
X992743Y-4235D01*
X1008721Y-1195D01*
X1017500Y-2941D01*
X1042500D01*
X1051279Y-1195D01*
X1058721Y3779D01*
X1063694Y11221D01*
X1065440Y20000D01*
Y40000D01*
X1063694Y48779D01*
X1059178Y55538D01*
X1068149Y64509D01*
X1075000Y81049D01*
Y98951D01*
X1068149Y115490D01*
X1055490Y128149D01*
X1038951Y135000D01*
X1021049D01*
X1004509Y128149D01*
X991850Y115490D01*
X985000Y98951D01*
Y90583D01*
X983691Y88608D01*
X972499Y81294D01*
X965000Y82786D01*
Y32500D01*
X935000D01*
Y82786D01*
X921892Y80179D01*
X915359Y75814D01*
X915140Y76141D01*
X901083Y85534D01*
X885000Y88733D01*
Y33000D01*
X855000D01*
Y88733D01*
X838917Y85534D01*
X824859Y76141D01*
X821863Y71656D01*
X811279Y63695D01*
X802500Y65441D01*
X777500D01*
X768721Y63695D01*
X761278Y58721D01*
X760822Y58039D01*
X729177D01*
X728721Y58721D01*
X721279Y63694D01*
X712500Y65441D01*
X692500D01*
X683721Y63694D01*
X677623Y59620D01*
X673983Y59177D01*
X663006Y61358D01*
X656338Y71338D01*
X643107Y80179D01*
X632500Y82289D01*
Y30000D01*
X617500D01*
Y15000D01*
X567213D01*
X569821Y1893D01*
X572977Y-2832D01*
X566296Y-15332D01*
X550811D01*
X544254Y-10950D01*
X534500Y-9010D01*
X505500D01*
X496030Y-10894D01*
X495739Y-10947D01*
X483530Y-4079D01*
Y124396D01*
X542423Y183289D01*
X553972Y178506D01*
Y157500D01*
X558046Y137015D01*
X569650Y119650D01*
X587016Y108046D01*
X607500Y103972D01*
X615000D01*
Y189999D01*
X630000D01*
Y204999D01*
X706028D01*
Y222500D01*
X703747Y233970D01*
X713514Y246470D01*
X1150000D01*
X1159567Y250433D01*
X1163530Y260000D01*
Y986470D01*
X1824511D01*
Y-2024512D01*
D02*
G37*
G36*
X1610000Y-390000D02*
X1220000D01*
X1169999Y-340000D01*
X985000D01*
X965000Y-360000D01*
Y-435000D01*
X920000D01*
X919999Y-280000D01*
X979999Y-220000D01*
X1159571D01*
X1301000Y-78571D01*
Y-15198D01*
X1310663Y-7268D01*
X1310999Y-7335D01*
Y50000D01*
Y107335D01*
X1310663Y107268D01*
X1301000Y115198D01*
Y130000D01*
X1610000D01*
Y-390000D01*
D02*
G37*
G36*
X-1023530Y693970D02*
X-1023531Y604809D01*
X-1117067Y511272D01*
X-1118624Y507515D01*
X-1120977Y503992D01*
X-1122348Y497102D01*
X-1123736Y493750D01*
Y46250D01*
X-1122348Y42898D01*
X-1121030Y36275D01*
Y-106470D01*
X-1336896D01*
X-1446471Y3105D01*
Y514395D01*
X-1270433Y690433D01*
X-1268019Y696261D01*
X-1260000Y706470D01*
X-1033350D01*
X-1023530Y693970D01*
D02*
G37*
G36*
X906469Y-368875D02*
Y-448530D01*
X919999D01*
X920000Y-448530D01*
X965000D01*
X965000Y-448530D01*
X1150000D01*
Y-810000D01*
X-660000D01*
X-800000Y-670000D01*
X-1790000D01*
Y-382044D01*
X-54057Y-367852D01*
X-53230Y-368404D01*
X-42500Y-370539D01*
X2500D01*
X13230Y-368404D01*
X14900Y-367289D01*
X349956Y-364549D01*
X470000D01*
Y-484594D01*
X610406Y-625000D01*
X847499D01*
X857323Y-631464D01*
X861917Y-634534D01*
X876001Y-637336D01*
Y-580000D01*
Y-522665D01*
X861917Y-525466D01*
X860000Y-526747D01*
X847500Y-520066D01*
Y-506963D01*
X847990Y-504500D01*
Y-475500D01*
X847500Y-473037D01*
Y-360482D01*
X897594Y-360073D01*
X906469Y-368875D01*
D02*
G37*
G36*
X-669567Y-819567D02*
X-660000Y-823530D01*
X20000D01*
Y-1870000D01*
X-330000D01*
X-330001Y-1366962D01*
X-330000Y-1366962D01*
Y-1353038D01*
X-330001Y-1353038D01*
Y-1316963D01*
X-330000Y-1316962D01*
Y-1303038D01*
X-330001Y-1303037D01*
X-330001Y-1069999D01*
X-420000Y-980000D01*
X-870151D01*
X-872613Y-977001D01*
X-930000D01*
Y-962001D01*
X-945000D01*
Y-911714D01*
X-958108Y-914321D01*
X-971339Y-923162D01*
X-980179Y-936393D01*
X-980806Y-939545D01*
X-993551D01*
X-995466Y-929917D01*
X-1004860Y-915859D01*
X-1018918Y-906466D01*
X-1035001Y-903267D01*
Y-959000D01*
X-1050001D01*
Y-974000D01*
X-1109885D01*
X-1114809Y-980000D01*
X-1790000D01*
Y-683530D01*
X-1500913D01*
X-1495736Y-696030D01*
X-1506024Y-706318D01*
X-1521822Y-733682D01*
X-1530000Y-764202D01*
Y-765000D01*
X-1410000D01*
X-1290000D01*
Y-764202D01*
X-1298178Y-733682D01*
X-1313977Y-706318D01*
X-1324265Y-696030D01*
X-1319087Y-683530D01*
X-805604D01*
X-669567Y-819567D01*
D02*
G37*
G36*
X-500001Y-1890000D02*
X-810000D01*
Y-993530D01*
X-500001D01*
Y-1890000D01*
D02*
G37*
G36*
X1612500Y-2024512D02*
X1308486D01*
X1302594Y-2013487D01*
X1304534Y-2010583D01*
X1307733Y-1994500D01*
X1252000D01*
Y-1964500D01*
X1307733D01*
X1304534Y-1948418D01*
X1295141Y-1934360D01*
X1292358Y-1932500D01*
X1296150Y-1920000D01*
X1300000D01*
Y-520000D01*
X1612500D01*
Y-2024512D01*
D02*
G37*
%LPC*%
G36*
X1599499Y1755580D02*
X1519249D01*
X1486553Y1751276D01*
X1456084Y1738655D01*
X1429920Y1718579D01*
X1409844Y1692415D01*
X1397223Y1661947D01*
X1392919Y1629250D01*
Y1422000D01*
X1599499D01*
Y1755580D01*
D02*
G37*
G36*
X367999Y1755470D02*
X300499D01*
Y1422000D01*
X481470D01*
Y1642000D01*
X477604Y1671368D01*
X466268Y1698735D01*
X448235Y1722236D01*
X424734Y1740268D01*
X397368Y1751604D01*
X367999Y1755470D01*
D02*
G37*
G36*
X270499D02*
X202999D01*
X173631Y1751604D01*
X146264Y1740268D01*
X122764Y1722236D01*
X104731Y1698735D01*
X93395Y1671368D01*
X89529Y1642000D01*
Y1422000D01*
X270499D01*
Y1755470D01*
D02*
G37*
G36*
X481470Y1392000D02*
X300499D01*
Y1058529D01*
X367999D01*
X397368Y1062395D01*
X424734Y1073731D01*
X448235Y1091764D01*
X466268Y1115264D01*
X477604Y1142631D01*
X481470Y1172000D01*
Y1392000D01*
D02*
G37*
G36*
X270499D02*
X89529D01*
Y1172000D01*
X93395Y1142631D01*
X104731Y1115264D01*
X122764Y1091764D01*
X146264Y1073731D01*
X173631Y1062395D01*
X202999Y1058529D01*
X270499D01*
Y1392000D01*
D02*
G37*
G36*
X1599499D02*
X1392919D01*
Y1184750D01*
X1397223Y1152053D01*
X1409844Y1121584D01*
X1429920Y1095420D01*
X1456084Y1075344D01*
X1486553Y1062724D01*
X1519249Y1058419D01*
X1599499D01*
Y1392000D01*
D02*
G37*
G36*
X169750Y513808D02*
X143499D01*
Y475499D01*
X211062D01*
X208606Y487845D01*
X199489Y501489D01*
X185845Y510607D01*
X169750Y513808D01*
D02*
G37*
G36*
X113499D02*
X87250D01*
X71155Y510607D01*
X57510Y501489D01*
X48393Y487845D01*
X45937Y475499D01*
X113499D01*
Y513808D01*
D02*
G37*
G36*
X211062Y445499D02*
X143499D01*
Y407192D01*
X169750D01*
X185845Y410393D01*
X199489Y419510D01*
X208606Y433155D01*
X211062Y445499D01*
D02*
G37*
G36*
X113499D02*
X45937D01*
X48393Y433155D01*
X57510Y419510D01*
X71155Y410393D01*
X87250Y407192D01*
X113499D01*
Y445499D01*
D02*
G37*
G36*
X169750Y386808D02*
X143499D01*
Y348499D01*
X211062D01*
X208606Y360845D01*
X199489Y374489D01*
X185845Y383607D01*
X169750Y386808D01*
D02*
G37*
G36*
X113499D02*
X87250D01*
X71155Y383607D01*
X57510Y374489D01*
X48393Y360845D01*
X45937Y348499D01*
X113499D01*
Y386808D01*
D02*
G37*
G36*
X211062Y318499D02*
X143499D01*
Y280192D01*
X169750D01*
X185845Y283393D01*
X199489Y292510D01*
X208606Y306155D01*
X211062Y318499D01*
D02*
G37*
G36*
X113499D02*
X45937D01*
X48393Y306155D01*
X57510Y292510D01*
X71155Y283393D01*
X87250Y280192D01*
X113499D01*
Y318499D01*
D02*
G37*
G36*
X169750Y259808D02*
X143499D01*
Y221499D01*
X211062D01*
X208606Y233845D01*
X199489Y247489D01*
X185845Y256607D01*
X169750Y259808D01*
D02*
G37*
G36*
X113499D02*
X87250D01*
X71155Y256607D01*
X57510Y247489D01*
X48393Y233845D01*
X45937Y221499D01*
X113499D01*
Y259808D01*
D02*
G37*
G36*
X211062Y191499D02*
X143499D01*
Y153192D01*
X169750D01*
X185845Y156393D01*
X199489Y165510D01*
X208606Y179155D01*
X211062Y191499D01*
D02*
G37*
G36*
X113499D02*
X45937D01*
X48393Y179155D01*
X57510Y165510D01*
X71155Y156393D01*
X87250Y153192D01*
X113499D01*
Y191499D01*
D02*
G37*
G36*
X169750Y132808D02*
X143499D01*
Y94499D01*
X211062D01*
X208606Y106845D01*
X199489Y120489D01*
X185845Y129607D01*
X169750Y132808D01*
D02*
G37*
G36*
X113499D02*
X87250D01*
X71155Y129607D01*
X57510Y120489D01*
X48393Y106845D01*
X45937Y94499D01*
X113499D01*
Y132808D01*
D02*
G37*
G36*
X211062Y64499D02*
X143499D01*
Y26192D01*
X169750D01*
X185845Y29393D01*
X199489Y38510D01*
X208606Y52155D01*
X211062Y64499D01*
D02*
G37*
G36*
X113499D02*
X45937D01*
X48393Y52155D01*
X57510Y38510D01*
X71155Y29393D01*
X87250Y26192D01*
X113499D01*
Y64499D01*
D02*
G37*
G36*
X-130000Y25980D02*
X-135000D01*
Y-29999D01*
X-79021D01*
Y-25000D01*
X-82901Y-5491D01*
X-93952Y11048D01*
X-110491Y22099D01*
X-130000Y25980D01*
D02*
G37*
G36*
X-165000D02*
X-170000D01*
X-189509Y22099D01*
X-206048Y11048D01*
X-217099Y-5491D01*
X-220980Y-25000D01*
Y-29999D01*
X-165000D01*
Y25980D01*
D02*
G37*
G36*
X-79021Y-59999D02*
X-135000D01*
Y-115979D01*
X-130000D01*
X-110491Y-112099D01*
X-93952Y-101048D01*
X-82901Y-84509D01*
X-79021Y-65000D01*
Y-59999D01*
D02*
G37*
G36*
X-165000D02*
X-220980D01*
Y-65000D01*
X-217099Y-84509D01*
X-206048Y-101048D01*
X-189509Y-112099D01*
X-170000Y-115979D01*
X-165000D01*
Y-59999D01*
D02*
G37*
G36*
X-877711Y-1062000D02*
X-915000D01*
Y-1097286D01*
X-901893Y-1094679D01*
X-888662Y-1085839D01*
X-879821Y-1072607D01*
X-877711Y-1062000D01*
D02*
G37*
G36*
X-1065001Y-1059999D02*
X-1107336D01*
X-1104534Y-1074083D01*
X-1095141Y-1088141D01*
X-1081083Y-1097534D01*
X-1065001Y-1100733D01*
Y-1059999D01*
D02*
G37*
G36*
X-935000Y-1590000D02*
X-1040000D01*
Y-1695000D01*
X-935000D01*
Y-1590000D01*
D02*
G37*
G36*
Y-1725000D02*
X-1040000D01*
Y-1830000D01*
X-935000D01*
Y-1725000D01*
D02*
G37*
G36*
X-643001Y958557D02*
Y864998D01*
X-549443D01*
X-556671Y891972D01*
X-570987Y916768D01*
X-591232Y937013D01*
X-616028Y951329D01*
X-643001Y958557D01*
D02*
G37*
G36*
X-673001Y958556D02*
X-699972Y951329D01*
X-724768Y937013D01*
X-745014Y916768D01*
X-759330Y891972D01*
X-766557Y864998D01*
X-673001D01*
Y958556D01*
D02*
G37*
G36*
Y834998D02*
X-766557D01*
X-759330Y808028D01*
X-745014Y783232D01*
X-724768Y762986D01*
X-699972Y748670D01*
X-673001Y741443D01*
Y834998D01*
D02*
G37*
G36*
X-549444D02*
X-643001D01*
Y741443D01*
X-616028Y748670D01*
X-591232Y762986D01*
X-570987Y783232D01*
X-556671Y808028D01*
X-549444Y834998D01*
D02*
G37*
G36*
X-627750Y513808D02*
X-654001D01*
Y475499D01*
X-586438D01*
X-588893Y487845D01*
X-598010Y501489D01*
X-611655Y510607D01*
X-627750Y513808D01*
D02*
G37*
G36*
X-684001D02*
X-710250D01*
X-726345Y510607D01*
X-739990Y501489D01*
X-749107Y487845D01*
X-751563Y475499D01*
X-684001D01*
Y513808D01*
D02*
G37*
G36*
X-351000Y513000D02*
X-418501D01*
Y475499D01*
X-351000D01*
Y513000D01*
D02*
G37*
G36*
X-448501D02*
X-516000D01*
Y475499D01*
X-448501D01*
Y513000D01*
D02*
G37*
G36*
X-351000Y445499D02*
X-418501D01*
Y408000D01*
X-351000D01*
Y445499D01*
D02*
G37*
G36*
X-448501D02*
X-516000D01*
Y408000D01*
X-448501D01*
Y445499D01*
D02*
G37*
G36*
X-586438Y445499D02*
X-654001D01*
Y407192D01*
X-627750D01*
X-611655Y410393D01*
X-598010Y419510D01*
X-588893Y433155D01*
X-586438Y445499D01*
D02*
G37*
G36*
X-684001D02*
X-751562D01*
X-749107Y433155D01*
X-739990Y419510D01*
X-726345Y410393D01*
X-710250Y407192D01*
X-684001D01*
Y445499D01*
D02*
G37*
G36*
X-627750Y386808D02*
X-654001D01*
Y348499D01*
X-586438D01*
X-588893Y360845D01*
X-598010Y374489D01*
X-611655Y383607D01*
X-627750Y386808D01*
D02*
G37*
G36*
X-684001D02*
X-710250D01*
X-726345Y383607D01*
X-739990Y374489D01*
X-749107Y360845D01*
X-751563Y348499D01*
X-684001D01*
Y386808D01*
D02*
G37*
G36*
X-392250D02*
X-418501D01*
Y348499D01*
X-350938D01*
X-353394Y360845D01*
X-362511Y374489D01*
X-376155Y383607D01*
X-392250Y386808D01*
D02*
G37*
G36*
X-448501D02*
X-474750D01*
X-490845Y383607D01*
X-504490Y374489D01*
X-513607Y360845D01*
X-516063Y348499D01*
X-448501D01*
Y386808D01*
D02*
G37*
G36*
X-350938Y318499D02*
X-418501D01*
Y280192D01*
X-392250D01*
X-376155Y283393D01*
X-362511Y292510D01*
X-353394Y306155D01*
X-350938Y318499D01*
D02*
G37*
G36*
X-448501D02*
X-516062D01*
X-513607Y306155D01*
X-504490Y292510D01*
X-490845Y283393D01*
X-474750Y280192D01*
X-448501D01*
Y318499D01*
D02*
G37*
G36*
X-586438Y318499D02*
X-654001D01*
Y280192D01*
X-627750D01*
X-611655Y283393D01*
X-598010Y292510D01*
X-588893Y306155D01*
X-586438Y318499D01*
D02*
G37*
G36*
X-684001D02*
X-751562D01*
X-749107Y306155D01*
X-739990Y292510D01*
X-726345Y283393D01*
X-710250Y280192D01*
X-684001D01*
Y318499D01*
D02*
G37*
G36*
X-627750Y259808D02*
X-654001D01*
Y221499D01*
X-586438D01*
X-588893Y233845D01*
X-598010Y247489D01*
X-611655Y256607D01*
X-627750Y259808D01*
D02*
G37*
G36*
X-684001D02*
X-710250D01*
X-726345Y256607D01*
X-739990Y247489D01*
X-749107Y233845D01*
X-751563Y221499D01*
X-684001D01*
Y259808D01*
D02*
G37*
G36*
X-392250D02*
X-418501D01*
Y221499D01*
X-350938D01*
X-353394Y233845D01*
X-362511Y247489D01*
X-376155Y256607D01*
X-392250Y259808D01*
D02*
G37*
G36*
X-448501D02*
X-474750D01*
X-490845Y256607D01*
X-504490Y247489D01*
X-513607Y233845D01*
X-516063Y221499D01*
X-448501D01*
Y259808D01*
D02*
G37*
G36*
X-350938Y191499D02*
X-418501D01*
Y153192D01*
X-392250D01*
X-376155Y156393D01*
X-362511Y165510D01*
X-353394Y179155D01*
X-350938Y191499D01*
D02*
G37*
G36*
X-448501D02*
X-516062D01*
X-513607Y179155D01*
X-504490Y165510D01*
X-490845Y156393D01*
X-474750Y153192D01*
X-448501D01*
Y191499D01*
D02*
G37*
G36*
X-586438Y191499D02*
X-654001D01*
Y153192D01*
X-627750D01*
X-611655Y156393D01*
X-598010Y165510D01*
X-588893Y179155D01*
X-586438Y191499D01*
D02*
G37*
G36*
X-684001D02*
X-751562D01*
X-749107Y179155D01*
X-739990Y165510D01*
X-726345Y156393D01*
X-710250Y153192D01*
X-684001D01*
Y191499D01*
D02*
G37*
G36*
X-627750Y132808D02*
X-654001D01*
Y94499D01*
X-586438D01*
X-588893Y106845D01*
X-598010Y120489D01*
X-611655Y129607D01*
X-627750Y132808D01*
D02*
G37*
G36*
X-684001D02*
X-710250D01*
X-726345Y129607D01*
X-739990Y120489D01*
X-749107Y106845D01*
X-751563Y94499D01*
X-684001D01*
Y132808D01*
D02*
G37*
G36*
X-550009Y20882D02*
X-555009D01*
Y-25001D01*
X-504127D01*
Y-25000D01*
X-507620Y-7442D01*
X-517565Y7443D01*
X-532451Y17389D01*
X-550009Y20882D01*
D02*
G37*
G36*
X-504127Y-55001D02*
X-555009D01*
Y-100881D01*
X-550009D01*
X-532451Y-97389D01*
X-517565Y-87443D01*
X-507620Y-72558D01*
X-504127Y-55001D01*
D02*
G37*
G36*
X-586438Y64499D02*
X-669001D01*
X-751562D01*
X-749107Y52155D01*
X-743962Y44456D01*
X-742485Y35105D01*
X-747254Y28595D01*
X-758548Y21048D01*
X-769599Y4509D01*
X-773480Y-15000D01*
Y-20000D01*
X-702500D01*
Y-35000D01*
X-687500D01*
Y-105979D01*
X-682501D01*
X-662992Y-102099D01*
X-646453Y-91048D01*
X-640765Y-82535D01*
X-625731D01*
X-622452Y-87443D01*
X-607566Y-97389D01*
X-590008Y-100881D01*
X-585009D01*
Y-40001D01*
Y20882D01*
X-590008D01*
X-607566Y17389D01*
X-620491Y8753D01*
X-634111Y10781D01*
X-635929Y14136D01*
X-629011Y26192D01*
X-627750D01*
X-611655Y29393D01*
X-598010Y38510D01*
X-588893Y52155D01*
X-586438Y64499D01*
D02*
G37*
G36*
X-717500Y-50000D02*
X-773480D01*
Y-55000D01*
X-769599Y-74509D01*
X-758548Y-91048D01*
X-742009Y-102099D01*
X-722500Y-105979D01*
X-717500D01*
Y-50000D01*
D02*
G37*
G36*
X-1389001Y958557D02*
Y864998D01*
X-1295443D01*
X-1302671Y891972D01*
X-1316987Y916768D01*
X-1337232Y937013D01*
X-1362028Y951329D01*
X-1389001Y958557D01*
D02*
G37*
G36*
X-1419001Y958556D02*
X-1445972Y951329D01*
X-1470768Y937013D01*
X-1491014Y916768D01*
X-1505330Y891972D01*
X-1512557Y864998D01*
X-1419001D01*
Y958556D01*
D02*
G37*
G36*
Y834998D02*
X-1512557D01*
X-1505330Y808028D01*
X-1491014Y783232D01*
X-1470768Y762986D01*
X-1445972Y748670D01*
X-1419001Y741443D01*
Y834998D01*
D02*
G37*
G36*
X-1295444D02*
X-1389001D01*
Y741443D01*
X-1362028Y748670D01*
X-1337232Y762986D01*
X-1316987Y783232D01*
X-1302671Y808028D01*
X-1295444Y834998D01*
D02*
G37*
G36*
X706028Y174999D02*
X644999D01*
Y103972D01*
X652500D01*
X672984Y108046D01*
X690350Y119650D01*
X701954Y137015D01*
X706028Y157500D01*
Y174999D01*
D02*
G37*
G36*
X602500Y82289D02*
X591892Y80179D01*
X578661Y71338D01*
X569821Y58107D01*
X567213Y45000D01*
X602500D01*
Y82289D01*
D02*
G37*
G36*
X709001Y-432665D02*
X694917Y-435466D01*
X680859Y-444859D01*
X671466Y-458917D01*
X668267Y-474999D01*
X709001D01*
Y-432665D01*
D02*
G37*
G36*
Y-504999D02*
X668267D01*
X671466Y-521083D01*
X680859Y-535141D01*
X694917Y-544534D01*
X709001Y-547335D01*
Y-504999D01*
D02*
G37*
G36*
X920000Y-895597D02*
X830000D01*
X808540Y-899866D01*
X790347Y-912022D01*
X782346Y-923996D01*
X767653D01*
X759653Y-912022D01*
X741460Y-899866D01*
X720000Y-895597D01*
X630000D01*
Y-976674D01*
Y-1057752D01*
X720000D01*
X741460Y-1053483D01*
X759653Y-1041327D01*
X767653Y-1029353D01*
X782346D01*
X790347Y-1041327D01*
X808540Y-1053483D01*
X830000Y-1057752D01*
X920000D01*
Y-976674D01*
Y-895597D01*
D02*
G37*
G36*
X600000D02*
X510000D01*
X488540Y-899866D01*
X470347Y-912022D01*
X462346Y-923996D01*
X447653D01*
X439652Y-912022D01*
X421460Y-899866D01*
X400000Y-895597D01*
X310000D01*
Y-976674D01*
Y-1057752D01*
X400000D01*
X421460Y-1053483D01*
X439652Y-1041327D01*
X447653Y-1029353D01*
X462346D01*
X470347Y-1041327D01*
X488540Y-1053483D01*
X510000Y-1057752D01*
X600000D01*
Y-976674D01*
Y-895597D01*
D02*
G37*
G36*
X280000D02*
X190000D01*
X168540Y-899866D01*
X150347Y-912022D01*
X138191Y-930214D01*
X133922Y-951674D01*
Y-961674D01*
X280000D01*
Y-895597D01*
D02*
G37*
G36*
Y-991674D02*
X133922D01*
Y-1001674D01*
X138191Y-1023134D01*
X150347Y-1041327D01*
X168540Y-1053483D01*
X190000Y-1057752D01*
X280000D01*
Y-991674D01*
D02*
G37*
G36*
X1190000Y-948923D02*
X1180000D01*
Y-1095000D01*
X1246077D01*
Y-1005000D01*
X1241809Y-983540D01*
X1229653Y-965347D01*
X1211460Y-953191D01*
X1190000Y-948923D01*
D02*
G37*
G36*
X1040000Y-895597D02*
X950000D01*
Y-976674D01*
Y-1057752D01*
X1040000D01*
X1061460Y-1053483D01*
X1071423Y-1046826D01*
X1083923Y-1053508D01*
Y-1095000D01*
X1150000D01*
Y-948923D01*
X1140000D01*
X1118540Y-953191D01*
X1108577Y-959848D01*
X1096077Y-953166D01*
Y-951674D01*
X1091809Y-930214D01*
X1079653Y-912022D01*
X1061460Y-899866D01*
X1040000Y-895597D01*
D02*
G37*
G36*
X1246077Y-1125000D02*
X1165000D01*
X1083923D01*
Y-1215000D01*
X1088191Y-1236460D01*
X1100347Y-1254653D01*
X1112321Y-1262654D01*
Y-1277347D01*
X1100347Y-1285347D01*
X1088191Y-1303540D01*
X1083923Y-1325000D01*
Y-1415000D01*
X1165000D01*
X1246077D01*
Y-1325000D01*
X1241809Y-1303540D01*
X1229653Y-1285347D01*
X1217679Y-1277347D01*
Y-1262654D01*
X1229653Y-1254653D01*
X1241809Y-1236460D01*
X1246077Y-1215000D01*
Y-1125000D01*
D02*
G37*
G36*
X889798Y-1590000D02*
X889000D01*
Y-1695000D01*
X994000D01*
Y-1694202D01*
X985822Y-1663682D01*
X970023Y-1636319D01*
X947681Y-1613976D01*
X920318Y-1598178D01*
X889798Y-1590000D01*
D02*
G37*
G36*
X859000D02*
X858201D01*
X827682Y-1598178D01*
X800318Y-1613976D01*
X777976Y-1636319D01*
X762178Y-1663682D01*
X754000Y-1694202D01*
Y-1695000D01*
X859000D01*
Y-1590000D01*
D02*
G37*
G36*
X149798D02*
X149000D01*
Y-1695000D01*
X254000D01*
Y-1694202D01*
X245822Y-1663682D01*
X230024Y-1636319D01*
X207682Y-1613976D01*
X180318Y-1598178D01*
X149798Y-1590000D01*
D02*
G37*
G36*
X1246077Y-1445000D02*
X1165000D01*
X1083923D01*
Y-1535000D01*
X1088191Y-1556460D01*
X1100347Y-1574653D01*
X1112321Y-1582654D01*
Y-1597347D01*
X1100347Y-1605348D01*
X1088191Y-1623540D01*
X1083923Y-1645000D01*
Y-1735000D01*
X1165000D01*
X1246077D01*
Y-1645000D01*
X1241809Y-1623540D01*
X1229653Y-1605348D01*
X1217679Y-1597347D01*
Y-1582654D01*
X1229653Y-1574653D01*
X1241809Y-1556460D01*
X1246077Y-1535000D01*
Y-1445000D01*
D02*
G37*
G36*
X722500Y-1607500D02*
X517500D01*
Y-1812500D01*
X722500D01*
Y-1607500D01*
D02*
G37*
G36*
X994000Y-1725000D02*
X889000D01*
Y-1830000D01*
X889798D01*
X920318Y-1821822D01*
X947681Y-1806024D01*
X970023Y-1783682D01*
X985822Y-1756318D01*
X994000Y-1725798D01*
Y-1725000D01*
D02*
G37*
G36*
X859000D02*
X754000D01*
Y-1725798D01*
X762178Y-1756318D01*
X777976Y-1783682D01*
X800318Y-1806024D01*
X827682Y-1821822D01*
X858201Y-1830000D01*
X859000D01*
Y-1725000D01*
D02*
G37*
G36*
X254000D02*
X149000D01*
Y-1830000D01*
X149798D01*
X180318Y-1821822D01*
X207682Y-1806024D01*
X230024Y-1783682D01*
X245822Y-1756318D01*
X254000Y-1725798D01*
Y-1725000D01*
D02*
G37*
G36*
X1340999Y107335D02*
Y65000D01*
X1381733D01*
X1378534Y81083D01*
X1369141Y95141D01*
X1355083Y104534D01*
X1340999Y107335D01*
D02*
G37*
G36*
X1381733Y35000D02*
X1340999D01*
Y-7336D01*
X1355083Y-4534D01*
X1369141Y4859D01*
X1378534Y18917D01*
X1381733Y35000D01*
D02*
G37*
G36*
X-1148500Y513000D02*
X-1216001D01*
Y475499D01*
X-1148500D01*
Y513000D01*
D02*
G37*
G36*
X-1246001D02*
X-1313500D01*
Y475499D01*
X-1246001D01*
Y513000D01*
D02*
G37*
G36*
X-1148500Y445499D02*
X-1216001D01*
Y408000D01*
X-1148500D01*
Y445499D01*
D02*
G37*
G36*
X-1246001D02*
X-1313500D01*
Y408000D01*
X-1246001D01*
Y445499D01*
D02*
G37*
G36*
X-1189750Y386808D02*
X-1216001D01*
Y348499D01*
X-1148438D01*
X-1150893Y360845D01*
X-1160010Y374489D01*
X-1173655Y383607D01*
X-1189750Y386808D01*
D02*
G37*
G36*
X-1246001D02*
X-1272250D01*
X-1288345Y383607D01*
X-1301990Y374489D01*
X-1311107Y360845D01*
X-1313563Y348499D01*
X-1246001D01*
Y386808D01*
D02*
G37*
G36*
X-1148438Y318499D02*
X-1216001D01*
Y280192D01*
X-1189750D01*
X-1173655Y283393D01*
X-1160010Y292510D01*
X-1150893Y306155D01*
X-1148438Y318499D01*
D02*
G37*
G36*
X-1246001D02*
X-1313562D01*
X-1311107Y306155D01*
X-1301990Y292510D01*
X-1288345Y283393D01*
X-1272250Y280192D01*
X-1246001D01*
Y318499D01*
D02*
G37*
G36*
X-1367509Y280882D02*
X-1372509D01*
X-1390067Y277389D01*
X-1404952Y267443D01*
X-1414898Y252558D01*
X-1418390Y235000D01*
Y235000D01*
X-1367509D01*
Y280882D01*
D02*
G37*
G36*
X-1189750Y259808D02*
X-1216001D01*
Y221499D01*
X-1148438D01*
X-1150893Y233845D01*
X-1160010Y247489D01*
X-1173655Y256607D01*
X-1189750Y259808D01*
D02*
G37*
G36*
X-1367509Y205000D02*
X-1418390D01*
X-1414898Y187442D01*
X-1404952Y172557D01*
X-1390067Y162611D01*
X-1372509Y159119D01*
X-1367509D01*
Y205000D01*
D02*
G37*
G36*
X-1148438Y191499D02*
X-1216001D01*
Y153192D01*
X-1189750D01*
X-1173655Y156393D01*
X-1160010Y165510D01*
X-1150893Y179155D01*
X-1148438Y191499D01*
D02*
G37*
G36*
X-1332509Y280882D02*
X-1337509D01*
Y220000D01*
Y159119D01*
X-1332509D01*
X-1314951Y162611D01*
X-1304651Y169493D01*
X-1301990Y165510D01*
X-1288345Y156393D01*
X-1272250Y153192D01*
X-1246001D01*
Y206499D01*
X-1231001D01*
D01*
X-1246001D01*
Y259808D01*
X-1272250D01*
X-1288345Y256607D01*
X-1291442Y254537D01*
X-1300065Y267443D01*
X-1314951Y277389D01*
X-1332509Y280882D01*
D02*
G37*
G36*
X-1332508Y123039D02*
X-1335217Y122500D01*
X-1400009D01*
Y37500D01*
X-1305009D01*
Y51711D01*
X-1289763D01*
X-1289373Y51127D01*
X-1281517Y45878D01*
X-1272250Y44035D01*
X-1259789D01*
Y9586D01*
X-1265731Y8404D01*
X-1274827Y2326D01*
X-1280905Y-6770D01*
X-1283039Y-17500D01*
Y-47500D01*
X-1280905Y-58230D01*
X-1274827Y-67327D01*
X-1265731Y-73404D01*
X-1255001Y-75539D01*
X-1210000D01*
X-1199270Y-73404D01*
X-1190174Y-67327D01*
X-1184096Y-58230D01*
X-1181962Y-47500D01*
Y-17500D01*
X-1184096Y-6770D01*
X-1190174Y2326D01*
X-1199270Y8404D01*
X-1203711Y9288D01*
Y44035D01*
X-1189750D01*
X-1180483Y45878D01*
X-1172627Y51127D01*
X-1167378Y58983D01*
X-1165535Y68250D01*
Y90750D01*
X-1167378Y100017D01*
X-1172627Y107873D01*
X-1180483Y113122D01*
X-1189750Y114965D01*
X-1272250D01*
X-1281517Y113122D01*
X-1289373Y107873D01*
X-1289429Y107789D01*
X-1305009D01*
Y122500D01*
X-1329800D01*
X-1332508Y123039D01*
D02*
G37*
G36*
X-1290000Y-406000D02*
X-1395000D01*
Y-511000D01*
X-1290000D01*
Y-406000D01*
D02*
G37*
G36*
X-1425000D02*
X-1530000D01*
Y-511000D01*
X-1425000D01*
Y-406000D01*
D02*
G37*
G36*
X906001Y-522665D02*
Y-565000D01*
X946733D01*
X943534Y-548917D01*
X934141Y-534859D01*
X920083Y-525466D01*
X906001Y-522665D01*
D02*
G37*
G36*
X-1655114Y-458500D02*
X-1672887D01*
X-1690054Y-463100D01*
X-1705446Y-471987D01*
X-1718014Y-484554D01*
X-1726900Y-499946D01*
X-1731500Y-517114D01*
Y-534886D01*
X-1726900Y-552054D01*
X-1718014Y-567446D01*
X-1705446Y-580013D01*
X-1690054Y-588900D01*
X-1672887Y-593500D01*
X-1655114D01*
X-1637946Y-588900D01*
X-1622554Y-580013D01*
X-1609987Y-567446D01*
X-1601100Y-552054D01*
X-1596500Y-534886D01*
Y-517114D01*
X-1601100Y-499946D01*
X-1609987Y-484554D01*
X-1622554Y-471987D01*
X-1637946Y-463100D01*
X-1655114Y-458500D01*
D02*
G37*
G36*
X946733Y-595000D02*
X906001D01*
Y-637335D01*
X920083Y-634534D01*
X934141Y-625141D01*
X943534Y-611083D01*
X946733Y-595000D01*
D02*
G37*
G36*
X-1290000Y-541000D02*
X-1395000D01*
Y-646000D01*
X-1290000D01*
Y-541000D01*
D02*
G37*
G36*
X-1425000D02*
X-1530000D01*
Y-646000D01*
X-1425000D01*
Y-541000D01*
D02*
G37*
G36*
X-1655114Y-712500D02*
X-1672887D01*
X-1690054Y-717100D01*
X-1705446Y-725987D01*
X-1718014Y-738554D01*
X-1726900Y-753946D01*
X-1731500Y-771114D01*
Y-788886D01*
X-1726900Y-806054D01*
X-1718014Y-821446D01*
X-1705446Y-834013D01*
X-1690054Y-842900D01*
X-1672887Y-847500D01*
X-1655114D01*
X-1637946Y-842900D01*
X-1622554Y-834013D01*
X-1609987Y-821446D01*
X-1601100Y-806054D01*
X-1596500Y-788886D01*
Y-771114D01*
X-1601100Y-753946D01*
X-1609987Y-738554D01*
X-1622554Y-725987D01*
X-1637946Y-717100D01*
X-1655114Y-712500D01*
D02*
G37*
G36*
X-1290000Y-795000D02*
X-1395000D01*
Y-900000D01*
X-1394202D01*
X-1363682Y-891822D01*
X-1336319Y-876024D01*
X-1313977Y-853682D01*
X-1298178Y-826318D01*
X-1290000Y-795798D01*
Y-795000D01*
D02*
G37*
G36*
X-1425000D02*
X-1530000D01*
Y-795798D01*
X-1521822Y-826318D01*
X-1506024Y-853682D01*
X-1483682Y-876024D01*
X-1456318Y-891822D01*
X-1425799Y-900000D01*
X-1425000D01*
Y-795000D01*
D02*
G37*
G36*
X-1065001Y-903267D02*
X-1081083Y-906466D01*
X-1095141Y-915859D01*
X-1104534Y-929917D01*
X-1107336Y-944000D01*
X-1065001D01*
Y-903267D01*
D02*
G37*
G36*
X-915000Y-911714D02*
Y-947001D01*
X-877711D01*
X-879821Y-936393D01*
X-888662Y-923162D01*
X-901893Y-914321D01*
X-915000Y-911714D01*
D02*
G37*
G36*
X-156000Y-1034197D02*
X-175001D01*
Y-1147500D01*
X-114197D01*
Y-1076000D01*
X-117379Y-1060003D01*
X-126441Y-1046441D01*
X-140003Y-1037379D01*
X-156000Y-1034197D01*
D02*
G37*
G36*
X-205001D02*
X-224000D01*
X-239997Y-1037379D01*
X-253559Y-1046441D01*
X-262621Y-1060003D01*
X-265803Y-1076000D01*
Y-1147500D01*
X-205001D01*
Y-1034197D01*
D02*
G37*
G36*
X-114197Y-1177500D02*
X-175001D01*
Y-1290803D01*
X-156000D01*
X-140003Y-1287621D01*
X-126441Y-1278559D01*
X-117379Y-1264997D01*
X-114197Y-1249000D01*
Y-1177500D01*
D02*
G37*
G36*
X-205001D02*
X-265803D01*
Y-1249000D01*
X-262621Y-1264997D01*
X-253559Y-1278559D01*
X-239997Y-1287621D01*
X-224000Y-1290803D01*
X-205001D01*
Y-1177500D01*
D02*
G37*
G36*
X-0Y-1590000D02*
X-105000D01*
Y-1695000D01*
X-0D01*
Y-1590000D01*
D02*
G37*
G36*
X-135000D02*
X-240000D01*
Y-1695000D01*
X-135000D01*
Y-1590000D01*
D02*
G37*
G36*
X-0Y-1725000D02*
X-105000D01*
Y-1830000D01*
X-0D01*
Y-1725000D01*
D02*
G37*
G36*
X-135000D02*
X-240000D01*
Y-1830000D01*
X-135000D01*
Y-1725000D01*
D02*
G37*
G36*
X-575000Y-1035000D02*
X-635001D01*
Y-1147500D01*
X-575000D01*
Y-1035000D01*
D02*
G37*
G36*
X-665001D02*
X-725000D01*
Y-1147500D01*
X-665001D01*
Y-1035000D01*
D02*
G37*
G36*
X-575000Y-1177500D02*
X-635001D01*
Y-1290000D01*
X-575000D01*
Y-1177500D01*
D02*
G37*
G36*
X-665001D02*
X-725000D01*
Y-1290000D01*
X-665001D01*
Y-1177500D01*
D02*
G37*
G36*
X-650202Y-1590000D02*
X-651000D01*
Y-1695000D01*
X-546000D01*
Y-1694202D01*
X-554178Y-1663682D01*
X-569977Y-1636319D01*
X-592319Y-1613976D01*
X-619682Y-1598178D01*
X-650202Y-1590000D01*
D02*
G37*
G36*
X-681000D02*
X-681798D01*
X-712318Y-1598178D01*
X-739682Y-1613976D01*
X-762024Y-1636319D01*
X-777822Y-1663682D01*
X-786000Y-1694202D01*
Y-1695000D01*
X-681000D01*
Y-1590000D01*
D02*
G37*
G36*
X-546000Y-1725000D02*
X-651000D01*
Y-1830000D01*
X-650202D01*
X-619682Y-1821822D01*
X-592319Y-1806024D01*
X-569977Y-1783682D01*
X-554178Y-1756318D01*
X-546000Y-1725798D01*
Y-1725000D01*
D02*
G37*
G36*
X-681000D02*
X-786000D01*
Y-1725798D01*
X-777822Y-1756318D01*
X-762024Y-1783682D01*
X-739682Y-1806024D01*
X-712318Y-1821822D01*
X-681798Y-1830000D01*
X-681000D01*
Y-1725000D01*
D02*
G37*
G36*
X1460000Y-948923D02*
X1450000D01*
Y-1095000D01*
X1516077D01*
Y-1005000D01*
X1511809Y-983540D01*
X1499653Y-965347D01*
X1481460Y-953191D01*
X1460000Y-948923D01*
D02*
G37*
G36*
X1420000D02*
X1410000D01*
X1388540Y-953191D01*
X1370347Y-965347D01*
X1358191Y-983540D01*
X1353923Y-1005000D01*
Y-1095000D01*
X1420000D01*
Y-948923D01*
D02*
G37*
G36*
X1516077Y-1125000D02*
X1435000D01*
X1353923D01*
Y-1215000D01*
X1358191Y-1236460D01*
X1370347Y-1254653D01*
X1382321Y-1262654D01*
Y-1277347D01*
X1370347Y-1285347D01*
X1358191Y-1303540D01*
X1353923Y-1325000D01*
Y-1415000D01*
X1435000D01*
X1516077D01*
Y-1325000D01*
X1511809Y-1303540D01*
X1499653Y-1285347D01*
X1487679Y-1277347D01*
Y-1262654D01*
X1499653Y-1254653D01*
X1511809Y-1236460D01*
X1516077Y-1215000D01*
Y-1125000D01*
D02*
G37*
G36*
Y-1445000D02*
X1435000D01*
X1353923D01*
Y-1535000D01*
X1358191Y-1556460D01*
X1370347Y-1574653D01*
X1382321Y-1582654D01*
Y-1597347D01*
X1370347Y-1605348D01*
X1358191Y-1623540D01*
X1353923Y-1645000D01*
Y-1735000D01*
X1435000D01*
X1516077D01*
Y-1645000D01*
X1511809Y-1623540D01*
X1499653Y-1605348D01*
X1487679Y-1597347D01*
Y-1582654D01*
X1499653Y-1574653D01*
X1511809Y-1556460D01*
X1516077Y-1535000D01*
Y-1445000D01*
D02*
G37*
G36*
Y-1765000D02*
X1450000D01*
Y-1911078D01*
X1460000D01*
X1481460Y-1906809D01*
X1499653Y-1894653D01*
X1511809Y-1876460D01*
X1516077Y-1855000D01*
Y-1765000D01*
D02*
G37*
G36*
X1420000D02*
X1353923D01*
Y-1855000D01*
X1358191Y-1876460D01*
X1370347Y-1894653D01*
X1388540Y-1906809D01*
X1410000Y-1911078D01*
X1420000D01*
Y-1765000D01*
D02*
G37*
%LPD*%
D10*
X-627750Y438000D02*
G03*
X-616500Y449250I0J11250D01*
G01*
X-668750Y35000D02*
G03*
X-657500Y46250I0J11250D01*
G01*
X-1107500D02*
G03*
X-1096250Y35000I11250J0D01*
G01*
Y505000D02*
G03*
X-1107500Y493750I0J-11250D01*
G01*
X-657500D02*
G03*
X-668750Y505000I-11250J0D01*
G01*
X-616500Y471750D02*
G03*
X-627750Y483000I-11250J0D01*
G01*
X128750Y35000D02*
G03*
X140000Y46250I0J11250D01*
G01*
X181000Y471750D02*
G03*
X169750Y483000I-11250J0D01*
G01*
X-298750Y505000D02*
G03*
X-310000Y493750I0J-11250D01*
G01*
X169750Y438000D02*
G03*
X181000Y449250I0J11250D01*
G01*
X140000Y493750D02*
G03*
X128750Y505000I-11250J0D01*
G01*
X-310000Y46250D02*
G03*
X-298750Y35000I11250J0D01*
G01*
X-616500Y449250D02*
Y460500D01*
X-657500Y438000D02*
X-627750D01*
X-657500Y46250D02*
Y438000D01*
X-1096250Y35000D02*
X-668750D01*
X-1107500Y46250D02*
Y493750D01*
X-1096250Y505000D02*
X-668750D01*
X-657500Y483000D02*
Y493750D01*
Y483000D02*
X-627750D01*
X-616500Y460500D02*
Y471750D01*
X-85000Y46250D02*
Y270000D01*
X140000Y46250D02*
Y255000D01*
Y438000D01*
X181000Y449250D02*
Y460500D01*
Y471750D01*
X140000Y483000D02*
Y493750D01*
Y483000D02*
X169750D01*
X-298750Y505000D02*
X128750D01*
X140000Y438000D02*
X169750D01*
X-298750Y35000D02*
X-127500D01*
X-85000D02*
X128750D01*
X-127500D02*
X-85000D01*
X-310000Y46250D02*
Y493750D01*
D11*
X812500Y-397500D02*
D03*
D12*
X877500D02*
D03*
X942500D02*
D03*
X1007500D02*
D03*
X812500Y-142500D02*
D03*
X877500D02*
D03*
X942500D02*
D03*
X1007500D02*
D03*
D13*
X895499Y493000D02*
D03*
D14*
X1614499Y1407000D02*
D03*
D15*
X285499D02*
D03*
D16*
X-650000Y-1162500D02*
D03*
D17*
X-420000D02*
D03*
X-190000D02*
D03*
D18*
X-420000Y-597500D02*
D03*
D19*
X-669000Y460500D02*
D03*
X-1231000Y333500D02*
D03*
Y206500D02*
D03*
Y79500D02*
D03*
X-669000Y333500D02*
D03*
Y206500D02*
D03*
Y79500D02*
D03*
X128500Y460500D02*
D03*
X-433500Y333500D02*
D03*
Y206500D02*
D03*
Y79500D02*
D03*
X128500Y333500D02*
D03*
Y206500D02*
D03*
Y79500D02*
D03*
D20*
X-882500Y270000D02*
D03*
X-85000D02*
D03*
D21*
X-1231000Y460500D02*
D03*
X-433500D02*
D03*
D22*
X630000Y190000D02*
D03*
D23*
X310000D02*
D03*
D24*
X-1352509Y220000D02*
D03*
X-570009Y-40000D02*
D03*
D25*
X-1352509Y80000D02*
D03*
X-570009Y-180000D02*
D03*
D26*
X-20000Y-192500D02*
D03*
Y-327500D02*
D03*
X-1232500Y-32500D02*
D03*
Y-167500D02*
D03*
X-850000Y-192500D02*
D03*
Y-327500D02*
D03*
X-430000Y-190000D02*
D03*
Y-325000D02*
D03*
D27*
X-930000Y-1047000D02*
D03*
Y-962000D02*
D03*
X1140000Y-35000D02*
D03*
Y50000D02*
D03*
X610000Y-132500D02*
D03*
Y-47500D02*
D03*
X700000D02*
D03*
Y-132500D02*
D03*
X790000Y-52500D02*
D03*
Y32500D02*
D03*
X1030000Y-55000D02*
D03*
Y30000D02*
D03*
X950000Y32500D02*
D03*
Y-52500D02*
D03*
D28*
X-702501Y-185000D02*
D03*
X-150000Y-195000D02*
D03*
D29*
X-702501Y-35000D02*
D03*
X-150000Y-45000D02*
D03*
D30*
X1460000Y-790000D02*
D03*
Y-250000D02*
D03*
D31*
X300000Y-510000D02*
D03*
Y-210000D02*
D03*
D32*
X295000Y-976674D02*
D03*
Y-706674D02*
D03*
X935000Y-976674D02*
D03*
Y-706674D02*
D03*
X615000D02*
D03*
Y-976674D02*
D03*
D33*
X805000Y-580000D02*
D03*
X891000D02*
D03*
X1240000Y50000D02*
D03*
X1326000D02*
D03*
X810000Y-490000D02*
D03*
X724000D02*
D03*
X1166000Y-1979500D02*
D03*
X1252000D02*
D03*
D34*
X520000Y-133000D02*
D03*
Y-47000D02*
D03*
X870000Y-53000D02*
D03*
Y33000D02*
D03*
X-1050000Y-1045000D02*
D03*
Y-959000D02*
D03*
D35*
X1165000Y-1110000D02*
D03*
X1435000D02*
D03*
X1165000Y-1430000D02*
D03*
X1435000D02*
D03*
X1165000Y-1750000D02*
D03*
X1435000D02*
D03*
D36*
X702500Y30000D02*
D03*
X617500D02*
D03*
D37*
X-1050000Y-959000D02*
X-1048500Y-960500D01*
X-931501D01*
X-930000Y-962000D01*
X-1049000Y-1046000D02*
X-931001D01*
X-1050000Y-1045000D02*
X-1049000Y-1046000D01*
X-931001D02*
X-930000Y-1047000D01*
X-700000Y-37500D02*
X-572508D01*
X-702501Y-35000D02*
X-700000Y-37500D01*
X-572508D02*
X-570009Y-40000D01*
X-650000Y-1162500D02*
Y-1122500D01*
X-620000Y-1092500D01*
X-190000Y-1162500D02*
Y-1122500D01*
X-160000Y-1092500D01*
X-666000Y-1710000D02*
X-643299Y-1687299D01*
X1030000Y30000D02*
Y90000D01*
X310000Y190000D02*
X317499Y182500D01*
X300000Y-210000D02*
X317499Y-192500D01*
X300000Y-210000D02*
X317499Y-192500D01*
X310000Y190000D02*
Y200000D01*
X942500Y-53750D02*
X1028750D01*
X942500Y-142500D02*
Y-53750D01*
X873750Y-138750D02*
Y-53000D01*
X870000D02*
X873750D01*
X1028750Y-53750D02*
X1030000Y-55000D01*
X873750Y-138750D02*
X877500Y-142500D01*
X702500Y30000D02*
X790000D01*
Y32500D01*
X670000Y-580000D02*
X805000D01*
X670000Y-490000D02*
X724000D01*
X230412Y-210000D02*
X300000D01*
X295000Y-976674D02*
X935000D01*
X-1232500Y-167500D02*
X-1225000D01*
X-850000Y-192500D02*
X-846251Y-188750D01*
X-706251D01*
X-702501Y-185000D01*
X-1240001Y-167500D02*
X-1232500D01*
X-1415009Y838991D02*
X-1404000Y850000D01*
X-1231750Y79250D02*
X-1231250Y79750D01*
X-1231750Y-31750D02*
Y79250D01*
X-1232500Y-32500D02*
X-1231750Y-31750D01*
X-1352259Y79750D02*
X-1231250D01*
X-1352509Y80000D02*
X-1352259Y79750D01*
X-21250Y-193750D02*
X-20000Y-192500D01*
X-150000Y-195000D02*
X-148750Y-193750D01*
X-21250D01*
X-565009Y-185000D02*
X-435000D01*
X-570009Y-180000D02*
X-565009Y-185000D01*
X-435000D02*
X-431750Y-188250D01*
X-433500Y79500D02*
X-431750Y77750D01*
Y-188250D02*
Y77750D01*
X-75000Y250000D02*
X97000Y78000D01*
X-85000Y260000D02*
X-75000Y250000D01*
X-70000Y255000D02*
X140000D01*
X-85000Y270000D02*
X-70000Y255000D01*
X97000Y78000D02*
X128750Y46250D01*
X-1347508Y80000D02*
X-1332508Y95000D01*
X-1352509Y80000D02*
X-1347508D01*
X-1350008Y220000D02*
X-1335008Y235000D01*
X-1352509Y220000D02*
X-1350008D01*
X-1238500Y214000D02*
X-1231000Y206500D01*
X-1268500Y214000D02*
X-1238500D01*
X-1232500Y-32500D02*
X-1225000D01*
X1007500Y-127500D02*
X1015000Y-120000D01*
X1007500Y-142500D02*
Y-127500D01*
X1015000Y-120000D02*
X1052500D01*
X1165000Y-1750000D02*
Y-1430000D01*
Y-1110000D01*
X1166000Y-1979500D02*
Y-1820000D01*
X700000Y-47500D02*
X790000D01*
X1052500Y-120000D02*
X1137500Y-35000D01*
X1140000D01*
X790000Y-52500D02*
Y-47500D01*
D38*
X610000Y-200000D02*
Y-132500D01*
X520250Y-132750D02*
X609750D01*
X700000Y-132500D02*
X812500D01*
X1440646Y-790000D02*
X1460000D01*
X1440646D02*
Y-590592D01*
X810000Y-490000D02*
X812500D01*
Y-397500D01*
X1435000Y-1430000D02*
Y-1110000D01*
Y-1750000D02*
Y-1430000D01*
X520000Y-133000D02*
X520250Y-132750D01*
X609750D02*
X610000Y-132500D01*
X812500Y-142500D02*
Y-132500D01*
X1140000Y50000D02*
X1240000D01*
X520000Y-47500D02*
Y-47000D01*
Y-47500D02*
X610000D01*
X700000D01*
D39*
X620000Y-1964000D02*
D03*
X874000D02*
D03*
X-1664000Y-526000D02*
D03*
Y-780000D02*
D03*
X-120000Y-1964000D02*
D03*
X134000D02*
D03*
X-920000D02*
D03*
X-666000D02*
D03*
D40*
X620000Y-1710000D02*
D03*
X-120000D02*
D03*
X-920000D02*
D03*
D41*
X874000D02*
D03*
X-1410000Y-780000D02*
D03*
X134000Y-1710000D02*
D03*
X-666000D02*
D03*
D42*
X-404000Y850000D02*
D03*
X-658000D02*
D03*
X-1404000D02*
D03*
X-1658000D02*
D03*
D43*
X-150000D02*
D03*
X-1150000D02*
D03*
D44*
X-1410000Y-526000D02*
D03*
D45*
X950000Y100000D02*
D03*
X870000Y110000D02*
D03*
X720000Y100000D02*
D03*
X560000Y90000D02*
D03*
X730000Y190000D02*
D03*
X1670000Y590001D02*
D03*
Y90001D02*
D03*
Y-409999D02*
D03*
Y-909999D02*
D03*
Y-1409999D02*
D03*
X1545000Y1840001D02*
D03*
Y840001D02*
D03*
X1420000Y590001D02*
D03*
X1545000Y340001D02*
D03*
X1295000Y1840001D02*
D03*
Y840001D02*
D03*
Y340001D02*
D03*
X1170000Y-409999D02*
D03*
X1045000Y1840001D02*
D03*
X920000Y-1409999D02*
D03*
X795000Y1840001D02*
D03*
X670000Y-409999D02*
D03*
X795000Y-1159999D02*
D03*
X670000Y-1409999D02*
D03*
X545000Y1840001D02*
D03*
Y-1159999D02*
D03*
X420000Y-1409999D02*
D03*
Y-1909999D02*
D03*
X295000Y1840001D02*
D03*
Y-1159999D02*
D03*
X170000Y-1409999D02*
D03*
X295000Y-1659999D02*
D03*
X45000Y1840001D02*
D03*
X-80000Y1590001D02*
D03*
X-205000Y1840001D02*
D03*
X-330000Y1590001D02*
D03*
X-205000Y1340001D02*
D03*
X-330000Y-1909999D02*
D03*
X-455000Y1840001D02*
D03*
X-580000Y1590001D02*
D03*
X-455000Y1340001D02*
D03*
Y-1659999D02*
D03*
X-705000Y1840001D02*
D03*
X-830000Y1590001D02*
D03*
X-705000Y1340001D02*
D03*
X-955000Y1840001D02*
D03*
X-1080000Y1590001D02*
D03*
X-955000Y1340001D02*
D03*
Y-1159999D02*
D03*
X-1080000Y-1409999D02*
D03*
Y-1909999D02*
D03*
X-1205000Y1840001D02*
D03*
X-1330000Y1590001D02*
D03*
X-1205000Y1340001D02*
D03*
Y-1159999D02*
D03*
X-1330000Y-1409999D02*
D03*
X-1205000Y-1659999D02*
D03*
X-1330000Y-1909999D02*
D03*
X-1455000Y1840001D02*
D03*
X-1580000Y1590001D02*
D03*
X-1455000Y1340001D02*
D03*
Y-1159999D02*
D03*
X-1580000Y-1409999D02*
D03*
X-1455000Y-1659999D02*
D03*
X-1580000Y-1909999D02*
D03*
X-465000Y-1360000D02*
D03*
X-415000D02*
D03*
X-365000D02*
D03*
X-365000Y-1310000D02*
D03*
X-415000D02*
D03*
X-465000D02*
D03*
X1330000Y-1110000D02*
D03*
Y-1210000D02*
D03*
Y-1310000D02*
D03*
Y-1410000D02*
D03*
Y-1510000D02*
D03*
Y-1610000D02*
D03*
Y-1710000D02*
D03*
Y-1810000D02*
D03*
Y-1910000D02*
D03*
Y-1010000D02*
D03*
X1260000Y-1495000D02*
D03*
Y-1395000D02*
D03*
Y-1295000D02*
D03*
Y-1195000D02*
D03*
Y-1095000D02*
D03*
X1235000Y-881674D02*
D03*
X1135000D02*
D03*
X1035000D02*
D03*
X935000D02*
D03*
X835000D02*
D03*
X735000D02*
D03*
X635000D02*
D03*
X535000D02*
D03*
X435000D02*
D03*
X335000D02*
D03*
X235000D02*
D03*
X134999D02*
D03*
X935000Y-1071674D02*
D03*
X835000D02*
D03*
X735000D02*
D03*
X635000D02*
D03*
X535000D02*
D03*
X435000D02*
D03*
X335000D02*
D03*
X235000D02*
D03*
X134999D02*
D03*
X1070000Y-1095000D02*
D03*
Y-1195000D02*
D03*
Y-1295000D02*
D03*
Y-1395000D02*
D03*
Y-1495000D02*
D03*
X1540000Y-1010000D02*
D03*
Y-1910000D02*
D03*
Y-1810000D02*
D03*
Y-1710000D02*
D03*
Y-1610000D02*
D03*
Y-1510000D02*
D03*
Y-1410000D02*
D03*
Y-1310000D02*
D03*
Y-1210000D02*
D03*
Y-1110000D02*
D03*
X670000Y-580000D02*
D03*
Y-490000D02*
D03*
D46*
X-82500Y-892500D02*
D03*
X1030000Y90000D02*
D03*
X610000Y-200000D02*
D03*
X1440646Y-590592D02*
D03*
D47*
X-1199999Y250000D02*
D03*
X-1060000Y670000D02*
D03*
X-1130000Y600000D02*
D03*
X-1200000Y670000D02*
D03*
X-1410000Y180000D02*
D03*
X-1200000Y390000D02*
D03*
X-1270000Y600000D02*
D03*
X-1200000Y530000D02*
D03*
X-1340000D02*
D03*
X-1410000Y460000D02*
D03*
Y320000D02*
D03*
X-1340000Y390000D02*
D03*
%TF.MD5,300fb051852697b2051d97f82afc9989*%
M02*
