G04*
G04 #@! TF.GenerationSoftware,Altium Limited,Altium Designer,24.6.1 (21)*
G04*
G04 Layer_Color=16711935*
%FSLAX44Y44*%
%MOMM*%
G71*
G04*
G04 #@! TF.SameCoordinates,BDBC2BC3-1C69-4059-88BB-952B3CEC59DC*
G04*
G04*
G04 #@! TF.FilePolarity,Negative*
G04*
G01*
G75*
%ADD14C,0.2540*%
%ADD69C,2.0032*%
%ADD70R,2.0032X2.0032*%
%ADD71C,1.1000*%
%ADD72C,1.7780*%
%ADD73R,1.7780X1.7780*%
%ADD74R,2.0032X2.0032*%
%ADD75C,0.8532*%
%ADD76C,0.6532*%
D14*
X523000Y1586000D02*
X893000D01*
X523000Y1996000D02*
X893000D01*
Y1586000D02*
Y1996000D01*
X523000Y1586000D02*
Y1996000D01*
D69*
X641400Y1620000D02*
D03*
X721400D02*
D03*
X795400D02*
D03*
X567000Y1713000D02*
D03*
D70*
X616000Y1620000D02*
D03*
X696000D02*
D03*
X770000D02*
D03*
D71*
X641400Y1594600D02*
D03*
X616000D02*
D03*
X721400D02*
D03*
X696000D02*
D03*
X795400D02*
D03*
X770000D02*
D03*
X541600Y1713000D02*
D03*
Y1738400D02*
D03*
D72*
X642200Y1876000D02*
D03*
X667600D02*
D03*
X542200D02*
D03*
X567600D02*
D03*
D73*
X693000D02*
D03*
X593000D02*
D03*
D74*
X567000Y1738400D02*
D03*
D75*
X699750Y1701750D02*
D03*
X811000Y1800000D02*
D03*
X769000Y1771000D02*
D03*
X852065Y1731941D02*
D03*
D76*
X775000Y1733000D02*
D03*
Y1742000D02*
D03*
M02*
