G04*
G04 #@! TF.GenerationSoftware,Altium Limited,Altium Designer,24.6.1 (21)*
G04*
G04 Layer_Color=8388736*
%FSLAX44Y44*%
%MOMM*%
G71*
G04*
G04 #@! TF.SameCoordinates,BDBC2BC3-1C69-4059-88BB-952B3CEC59DC*
G04*
G04*
G04 #@! TF.FilePolarity,Negative*
G04*
G01*
G75*
%ADD14C,0.2540*%
G04:AMPARAMS|DCode=43|XSize=3.5032mm|YSize=6.5532mm|CornerRadius=0.9266mm|HoleSize=0mm|Usage=FLASHONLY|Rotation=0.000|XOffset=0mm|YOffset=0mm|HoleType=Round|Shape=RoundedRectangle|*
%AMROUNDEDRECTD43*
21,1,3.5032,4.7000,0,0,0.0*
21,1,1.6500,6.5532,0,0,0.0*
1,1,1.8532,0.8250,-2.3500*
1,1,1.8532,-0.8250,-2.3500*
1,1,1.8532,-0.8250,2.3500*
1,1,1.8532,0.8250,2.3500*
%
%ADD43ROUNDEDRECTD43*%
G04:AMPARAMS|DCode=44|XSize=4.0132mm|YSize=6.5532mm|CornerRadius=1.0541mm|HoleSize=0mm|Usage=FLASHONLY|Rotation=0.000|XOffset=0mm|YOffset=0mm|HoleType=Round|Shape=RoundedRectangle|*
%AMROUNDEDRECTD44*
21,1,4.0132,4.4450,0,0,0.0*
21,1,1.9050,6.5532,0,0,0.0*
1,1,2.1082,0.9525,-2.2225*
1,1,2.1082,-0.9525,-2.2225*
1,1,2.1082,-0.9525,2.2225*
1,1,2.1082,0.9525,2.2225*
%
%ADD44ROUNDEDRECTD44*%
%ADD45R,3.5032X4.2632*%
G04:AMPARAMS|DCode=46|XSize=0.64mm|YSize=0.6mm|CornerRadius=0.175mm|HoleSize=0mm|Usage=FLASHONLY|Rotation=180.000|XOffset=0mm|YOffset=0mm|HoleType=Round|Shape=RoundedRectangle|*
%AMROUNDEDRECTD46*
21,1,0.6400,0.2500,0,0,180.0*
21,1,0.2900,0.6000,0,0,180.0*
1,1,0.3500,-0.1450,0.1250*
1,1,0.3500,0.1450,0.1250*
1,1,0.3500,0.1450,-0.1250*
1,1,0.3500,-0.1450,-0.1250*
%
%ADD46ROUNDEDRECTD46*%
G04:AMPARAMS|DCode=47|XSize=0.55mm|YSize=0.5mm|CornerRadius=0.15mm|HoleSize=0mm|Usage=FLASHONLY|Rotation=180.000|XOffset=0mm|YOffset=0mm|HoleType=Round|Shape=RoundedRectangle|*
%AMROUNDEDRECTD47*
21,1,0.5500,0.2000,0,0,180.0*
21,1,0.2500,0.5000,0,0,180.0*
1,1,0.3000,-0.1250,0.1000*
1,1,0.3000,0.1250,0.1000*
1,1,0.3000,0.1250,-0.1000*
1,1,0.3000,-0.1250,-0.1000*
%
%ADD47ROUNDEDRECTD47*%
G04:AMPARAMS|DCode=48|XSize=2.7mm|YSize=1.1mm|CornerRadius=0.3mm|HoleSize=0mm|Usage=FLASHONLY|Rotation=270.000|XOffset=0mm|YOffset=0mm|HoleType=Round|Shape=RoundedRectangle|*
%AMROUNDEDRECTD48*
21,1,2.7000,0.5000,0,0,270.0*
21,1,2.1000,1.1000,0,0,270.0*
1,1,0.6000,-0.2500,-1.0500*
1,1,0.6000,-0.2500,1.0500*
1,1,0.6000,0.2500,1.0500*
1,1,0.6000,0.2500,-1.0500*
%
%ADD48ROUNDEDRECTD48*%
G04:AMPARAMS|DCode=49|XSize=0.64mm|YSize=0.6mm|CornerRadius=0.175mm|HoleSize=0mm|Usage=FLASHONLY|Rotation=270.000|XOffset=0mm|YOffset=0mm|HoleType=Round|Shape=RoundedRectangle|*
%AMROUNDEDRECTD49*
21,1,0.6400,0.2500,0,0,270.0*
21,1,0.2900,0.6000,0,0,270.0*
1,1,0.3500,-0.1250,-0.1450*
1,1,0.3500,-0.1250,0.1450*
1,1,0.3500,0.1250,0.1450*
1,1,0.3500,0.1250,-0.1450*
%
%ADD49ROUNDEDRECTD49*%
G04:AMPARAMS|DCode=50|XSize=3.2532mm|YSize=3.0032mm|CornerRadius=0.2416mm|HoleSize=0mm|Usage=FLASHONLY|Rotation=0.000|XOffset=0mm|YOffset=0mm|HoleType=Round|Shape=RoundedRectangle|*
%AMROUNDEDRECTD50*
21,1,3.2532,2.5200,0,0,0.0*
21,1,2.7700,3.0032,0,0,0.0*
1,1,0.4832,1.3850,-1.2600*
1,1,0.4832,-1.3850,-1.2600*
1,1,0.4832,-1.3850,1.2600*
1,1,0.4832,1.3850,1.2600*
%
%ADD50ROUNDEDRECTD50*%
G04:AMPARAMS|DCode=51|XSize=0.55mm|YSize=0.85mm|CornerRadius=0.1625mm|HoleSize=0mm|Usage=FLASHONLY|Rotation=180.000|XOffset=0mm|YOffset=0mm|HoleType=Round|Shape=RoundedRectangle|*
%AMROUNDEDRECTD51*
21,1,0.5500,0.5250,0,0,180.0*
21,1,0.2250,0.8500,0,0,180.0*
1,1,0.3250,-0.1125,0.2625*
1,1,0.3250,0.1125,0.2625*
1,1,0.3250,0.1125,-0.2625*
1,1,0.3250,-0.1125,-0.2625*
%
%ADD51ROUNDEDRECTD51*%
%ADD52R,0.5500X0.8500*%
G04:AMPARAMS|DCode=53|XSize=0.55mm|YSize=0.5mm|CornerRadius=0.15mm|HoleSize=0mm|Usage=FLASHONLY|Rotation=270.000|XOffset=0mm|YOffset=0mm|HoleType=Round|Shape=RoundedRectangle|*
%AMROUNDEDRECTD53*
21,1,0.5500,0.2000,0,0,270.0*
21,1,0.2500,0.5000,0,0,270.0*
1,1,0.3000,-0.1000,-0.1250*
1,1,0.3000,-0.1000,0.1250*
1,1,0.3000,0.1000,0.1250*
1,1,0.3000,0.1000,-0.1250*
%
%ADD53ROUNDEDRECTD53*%
G04:AMPARAMS|DCode=54|XSize=2.7mm|YSize=1.1mm|CornerRadius=0.3mm|HoleSize=0mm|Usage=FLASHONLY|Rotation=0.000|XOffset=0mm|YOffset=0mm|HoleType=Round|Shape=RoundedRectangle|*
%AMROUNDEDRECTD54*
21,1,2.7000,0.5000,0,0,0.0*
21,1,2.1000,1.1000,0,0,0.0*
1,1,0.6000,1.0500,-0.2500*
1,1,0.6000,-1.0500,-0.2500*
1,1,0.6000,-1.0500,0.2500*
1,1,0.6000,1.0500,0.2500*
%
%ADD54ROUNDEDRECTD54*%
%ADD55R,1.1032X1.3032*%
G04:AMPARAMS|DCode=56|XSize=1.3032mm|YSize=1.1032mm|CornerRadius=0.3266mm|HoleSize=0mm|Usage=FLASHONLY|Rotation=90.000|XOffset=0mm|YOffset=0mm|HoleType=Round|Shape=RoundedRectangle|*
%AMROUNDEDRECTD56*
21,1,1.3032,0.4500,0,0,90.0*
21,1,0.6500,1.1032,0,0,90.0*
1,1,0.6532,0.2250,0.3250*
1,1,0.6532,0.2250,-0.3250*
1,1,0.6532,-0.2250,-0.3250*
1,1,0.6532,-0.2250,0.3250*
%
%ADD56ROUNDEDRECTD56*%
G04:AMPARAMS|DCode=57|XSize=2.7032mm|YSize=1.2032mm|CornerRadius=0.3516mm|HoleSize=0mm|Usage=FLASHONLY|Rotation=0.000|XOffset=0mm|YOffset=0mm|HoleType=Round|Shape=RoundedRectangle|*
%AMROUNDEDRECTD57*
21,1,2.7032,0.5000,0,0,0.0*
21,1,2.0000,1.2032,0,0,0.0*
1,1,0.7032,1.0000,-0.2500*
1,1,0.7032,-1.0000,-0.2500*
1,1,0.7032,-1.0000,0.2500*
1,1,0.7032,1.0000,0.2500*
%
%ADD57ROUNDEDRECTD57*%
G04:AMPARAMS|DCode=58|XSize=0.85mm|YSize=0.7mm|CornerRadius=0.2mm|HoleSize=0mm|Usage=FLASHONLY|Rotation=180.000|XOffset=0mm|YOffset=0mm|HoleType=Round|Shape=RoundedRectangle|*
%AMROUNDEDRECTD58*
21,1,0.8500,0.3000,0,0,180.0*
21,1,0.4500,0.7000,0,0,180.0*
1,1,0.4000,-0.2250,0.1500*
1,1,0.4000,0.2250,0.1500*
1,1,0.4000,0.2250,-0.1500*
1,1,0.4000,-0.2250,-0.1500*
%
%ADD58ROUNDEDRECTD58*%
%ADD59R,0.8000X0.7000*%
G04:AMPARAMS|DCode=60|XSize=0.8mm|YSize=0.7mm|CornerRadius=0.2mm|HoleSize=0mm|Usage=FLASHONLY|Rotation=180.000|XOffset=0mm|YOffset=0mm|HoleType=Round|Shape=RoundedRectangle|*
%AMROUNDEDRECTD60*
21,1,0.8000,0.3000,0,0,180.0*
21,1,0.4000,0.7000,0,0,180.0*
1,1,0.4000,-0.2000,0.1500*
1,1,0.4000,0.2000,0.1500*
1,1,0.4000,0.2000,-0.1500*
1,1,0.4000,-0.2000,-0.1500*
%
%ADD60ROUNDEDRECTD60*%
G04:AMPARAMS|DCode=61|XSize=3.35mm|YSize=2.05mm|CornerRadius=0.3mm|HoleSize=0mm|Usage=FLASHONLY|Rotation=180.000|XOffset=0mm|YOffset=0mm|HoleType=Round|Shape=RoundedRectangle|*
%AMROUNDEDRECTD61*
21,1,3.3500,1.4500,0,0,180.0*
21,1,2.7500,2.0500,0,0,180.0*
1,1,0.6000,-1.3750,0.7250*
1,1,0.6000,1.3750,0.7250*
1,1,0.6000,1.3750,-0.7250*
1,1,0.6000,-1.3750,-0.7250*
%
%ADD61ROUNDEDRECTD61*%
G04:AMPARAMS|DCode=62|XSize=1mm|YSize=2.05mm|CornerRadius=0.16mm|HoleSize=0mm|Usage=FLASHONLY|Rotation=180.000|XOffset=0mm|YOffset=0mm|HoleType=Round|Shape=RoundedRectangle|*
%AMROUNDEDRECTD62*
21,1,1.0000,1.7300,0,0,180.0*
21,1,0.6800,2.0500,0,0,180.0*
1,1,0.3200,-0.3400,0.8650*
1,1,0.3200,0.3400,0.8650*
1,1,0.3200,0.3400,-0.8650*
1,1,0.3200,-0.3400,-0.8650*
%
%ADD62ROUNDEDRECTD62*%
%ADD63R,1.0000X2.0500*%
G04:AMPARAMS|DCode=64|XSize=0.6532mm|YSize=1.2532mm|CornerRadius=0.2141mm|HoleSize=0mm|Usage=FLASHONLY|Rotation=90.000|XOffset=0mm|YOffset=0mm|HoleType=Round|Shape=RoundedRectangle|*
%AMROUNDEDRECTD64*
21,1,0.6532,0.8250,0,0,90.0*
21,1,0.2250,1.2532,0,0,90.0*
1,1,0.4282,0.4125,0.1125*
1,1,0.4282,0.4125,-0.1125*
1,1,0.4282,-0.4125,-0.1125*
1,1,0.4282,-0.4125,0.1125*
%
%ADD64ROUNDEDRECTD64*%
%ADD65R,1.2532X0.6532*%
G04:AMPARAMS|DCode=66|XSize=4.9032mm|YSize=4.7032mm|CornerRadius=0.2141mm|HoleSize=0mm|Usage=FLASHONLY|Rotation=270.000|XOffset=0mm|YOffset=0mm|HoleType=Round|Shape=RoundedRectangle|*
%AMROUNDEDRECTD66*
21,1,4.9032,4.2750,0,0,270.0*
21,1,4.4750,4.7032,0,0,270.0*
1,1,0.4282,-2.1375,-2.2375*
1,1,0.4282,-2.1375,2.2375*
1,1,0.4282,2.1375,2.2375*
1,1,0.4282,2.1375,-2.2375*
%
%ADD66ROUNDEDRECTD66*%
G04:AMPARAMS|DCode=67|XSize=0.9mm|YSize=0.9mm|CornerRadius=0.25mm|HoleSize=0mm|Usage=FLASHONLY|Rotation=90.000|XOffset=0mm|YOffset=0mm|HoleType=Round|Shape=RoundedRectangle|*
%AMROUNDEDRECTD67*
21,1,0.9000,0.4000,0,0,90.0*
21,1,0.4000,0.9000,0,0,90.0*
1,1,0.5000,0.2000,0.2000*
1,1,0.5000,0.2000,-0.2000*
1,1,0.5000,-0.2000,-0.2000*
1,1,0.5000,-0.2000,0.2000*
%
%ADD67ROUNDEDRECTD67*%
%ADD68R,0.9000X0.9000*%
%ADD69C,2.0032*%
%ADD70R,2.0032X2.0032*%
%ADD71C,1.1000*%
%ADD72C,1.7780*%
%ADD73R,1.7780X1.7780*%
%ADD74R,2.0032X2.0032*%
%ADD75C,0.8532*%
%ADD76C,0.6532*%
D14*
X523000Y1586000D02*
X893000D01*
X523000Y1996000D02*
X893000D01*
Y1586000D02*
Y1996000D01*
X523000Y1586000D02*
Y1996000D01*
D43*
X736550Y1931700D02*
D03*
D44*
X869450D02*
D03*
D45*
X797550Y1840300D02*
D03*
D46*
X603000Y1695100D02*
D03*
Y1686500D02*
D03*
X760000Y1786300D02*
D03*
Y1777700D02*
D03*
X795000Y1794300D02*
D03*
Y1785700D02*
D03*
D47*
X615000Y1694800D02*
D03*
Y1686300D02*
D03*
X769000Y1786250D02*
D03*
Y1777750D02*
D03*
X787000Y1794250D02*
D03*
Y1785750D02*
D03*
X803000D02*
D03*
Y1794250D02*
D03*
X811000Y1794000D02*
D03*
Y1785500D02*
D03*
X822000Y1796000D02*
D03*
Y1787500D02*
D03*
X778000Y1777750D02*
D03*
Y1786250D02*
D03*
D48*
X851500Y1680000D02*
D03*
X824500D02*
D03*
X851500Y1648000D02*
D03*
X824500D02*
D03*
X851500Y1616000D02*
D03*
X824500D02*
D03*
D49*
X833200Y1593050D02*
D03*
X824600D02*
D03*
X840600Y1796000D02*
D03*
X832000D02*
D03*
X780400Y1742000D02*
D03*
X789000D02*
D03*
X797100Y1733000D02*
D03*
X788500D02*
D03*
D50*
X854000Y1766000D02*
D03*
Y1712000D02*
D03*
D51*
X808750Y1776750D02*
D03*
X802250D02*
D03*
X795750D02*
D03*
X789250D02*
D03*
X808750Y1751250D02*
D03*
X802250D02*
D03*
X795750D02*
D03*
D52*
X789250D02*
D03*
D53*
X769750Y1794000D02*
D03*
X778250D02*
D03*
D54*
X801500Y1720333D02*
D03*
Y1693333D02*
D03*
X737500Y1720333D02*
D03*
Y1693333D02*
D03*
X769500D02*
D03*
Y1720333D02*
D03*
D55*
X739000Y1810000D02*
D03*
D56*
X771000D02*
D03*
D57*
X738000Y1770000D02*
D03*
Y1740000D02*
D03*
D58*
X706000Y1758250D02*
D03*
Y1771750D02*
D03*
X665000Y1758500D02*
D03*
Y1772000D02*
D03*
X623000Y1758250D02*
D03*
Y1771750D02*
D03*
X584750Y1774250D02*
D03*
Y1787750D02*
D03*
D59*
X650999Y1773000D02*
D03*
X572749Y1799000D02*
D03*
D60*
X650999Y1787000D02*
D03*
X572749Y1813000D02*
D03*
D61*
X666000Y1731250D02*
D03*
D62*
X689000Y1674750D02*
D03*
X666000D02*
D03*
D63*
X643000D02*
D03*
D64*
X720850Y1798950D02*
D03*
Y1811650D02*
D03*
Y1824350D02*
D03*
X664650Y1798950D02*
D03*
Y1811650D02*
D03*
Y1824350D02*
D03*
X720850Y1837050D02*
D03*
X641100Y1798950D02*
D03*
Y1811650D02*
D03*
Y1824350D02*
D03*
X584900Y1798950D02*
D03*
Y1811650D02*
D03*
Y1824350D02*
D03*
X641100Y1837050D02*
D03*
D65*
X664650D02*
D03*
X584900D02*
D03*
D66*
X699500Y1818000D02*
D03*
X619750D02*
D03*
D67*
X637750Y1787500D02*
D03*
X693000Y1786500D02*
D03*
D68*
X637750Y1772500D02*
D03*
X693000Y1771500D02*
D03*
D69*
X641400Y1620000D02*
D03*
X721400D02*
D03*
X795400D02*
D03*
X567000Y1713000D02*
D03*
D70*
X616000Y1620000D02*
D03*
X696000D02*
D03*
X770000D02*
D03*
D71*
X641400Y1594600D02*
D03*
X616000D02*
D03*
X721400D02*
D03*
X696000D02*
D03*
X795400D02*
D03*
X770000D02*
D03*
X541600Y1713000D02*
D03*
Y1738400D02*
D03*
D72*
X642200Y1876000D02*
D03*
X667600D02*
D03*
X542200D02*
D03*
X567600D02*
D03*
D73*
X693000D02*
D03*
X593000D02*
D03*
D74*
X567000Y1738400D02*
D03*
D75*
X699750Y1701750D02*
D03*
X811000Y1800000D02*
D03*
X769000Y1771000D02*
D03*
X852065Y1731941D02*
D03*
D76*
X775000Y1733000D02*
D03*
Y1742000D02*
D03*
M02*
