G04*
G04 #@! TF.GenerationSoftware,Altium Limited,Altium Designer,24.6.1 (21)*
G04*
G04 Layer_Physical_Order=3*
G04 Layer_Color=16440176*
%FSLAX44Y44*%
%MOMM*%
G71*
G04*
G04 #@! TF.SameCoordinates,BDBC2BC3-1C69-4059-88BB-952B3CEC59DC*
G04*
G04*
G04 #@! TF.FilePolarity,Positive*
G04*
G01*
G75*
%ADD14C,0.2540*%
%ADD80C,1.8000*%
%ADD81R,1.8000X1.8000*%
%ADD85C,0.4500*%
%ADD87C,0.6000*%
G36*
X888412Y1590588D02*
X802128D01*
X801503Y1591671D01*
X801690Y1591995D01*
X802150Y1593711D01*
Y1595489D01*
X801690Y1597205D01*
X800801Y1598745D01*
X799545Y1600001D01*
X798005Y1600890D01*
X796289Y1601350D01*
X794511D01*
X792795Y1600890D01*
X791255Y1600001D01*
X789999Y1598745D01*
X789110Y1597205D01*
X788650Y1595489D01*
Y1593711D01*
X789110Y1591995D01*
X789297Y1591671D01*
X788672Y1590588D01*
X776728D01*
X776103Y1591671D01*
X776290Y1591995D01*
X776750Y1593711D01*
Y1595489D01*
X776290Y1597205D01*
X775401Y1598745D01*
X774145Y1600001D01*
X772605Y1600890D01*
X770889Y1601350D01*
X769111D01*
X767395Y1600890D01*
X765855Y1600001D01*
X764599Y1598745D01*
X763710Y1597205D01*
X763250Y1595489D01*
Y1593711D01*
X763710Y1591995D01*
X763897Y1591671D01*
X763272Y1590588D01*
X728128D01*
X727503Y1591671D01*
X727690Y1591995D01*
X728150Y1593711D01*
Y1595489D01*
X727690Y1597205D01*
X726801Y1598745D01*
X725545Y1600001D01*
X724005Y1600890D01*
X722289Y1601350D01*
X720511D01*
X718795Y1600890D01*
X717255Y1600001D01*
X715999Y1598745D01*
X715110Y1597205D01*
X714650Y1595489D01*
Y1593711D01*
X715110Y1591995D01*
X715297Y1591671D01*
X714672Y1590588D01*
X702728D01*
X702103Y1591671D01*
X702290Y1591995D01*
X702750Y1593711D01*
Y1595489D01*
X702290Y1597205D01*
X701401Y1598745D01*
X700145Y1600001D01*
X698605Y1600890D01*
X696889Y1601350D01*
X695111D01*
X693395Y1600890D01*
X691855Y1600001D01*
X690599Y1598745D01*
X689710Y1597205D01*
X689250Y1595489D01*
Y1593711D01*
X689710Y1591995D01*
X689897Y1591671D01*
X689272Y1590588D01*
X648128D01*
X647503Y1591671D01*
X647690Y1591995D01*
X648150Y1593711D01*
Y1595489D01*
X647690Y1597205D01*
X646801Y1598745D01*
X645545Y1600001D01*
X644005Y1600890D01*
X642289Y1601350D01*
X640511D01*
X638795Y1600890D01*
X637255Y1600001D01*
X635999Y1598745D01*
X635110Y1597205D01*
X634650Y1595489D01*
Y1593711D01*
X635110Y1591995D01*
X635297Y1591671D01*
X634672Y1590588D01*
X622728D01*
X622103Y1591671D01*
X622290Y1591995D01*
X622750Y1593711D01*
Y1595489D01*
X622290Y1597205D01*
X621401Y1598745D01*
X620145Y1600001D01*
X618605Y1600890D01*
X616889Y1601350D01*
X615111D01*
X613395Y1600890D01*
X611855Y1600001D01*
X610599Y1598745D01*
X609710Y1597205D01*
X609250Y1595489D01*
Y1593711D01*
X609710Y1591995D01*
X609897Y1591671D01*
X609272Y1590588D01*
X527588D01*
Y1991412D01*
X888412D01*
Y1590588D01*
D02*
G37*
%LPC*%
G36*
X702124Y1885124D02*
X683876D01*
Y1866876D01*
X702124D01*
Y1885124D01*
D02*
G37*
G36*
X668801D02*
X666399D01*
X664078Y1884502D01*
X661998Y1883301D01*
X660299Y1881602D01*
X659098Y1879522D01*
X658476Y1877201D01*
Y1874799D01*
X659098Y1872478D01*
X660299Y1870398D01*
X661998Y1868699D01*
X664078Y1867498D01*
X666399Y1866876D01*
X668801D01*
X671122Y1867498D01*
X673202Y1868699D01*
X674901Y1870398D01*
X676102Y1872478D01*
X676724Y1874799D01*
Y1877201D01*
X676102Y1879522D01*
X674901Y1881602D01*
X673202Y1883301D01*
X671122Y1884502D01*
X668801Y1885124D01*
D02*
G37*
G36*
X643401D02*
X640999D01*
X638678Y1884502D01*
X636598Y1883301D01*
X634899Y1881602D01*
X633698Y1879522D01*
X633076Y1877201D01*
Y1874799D01*
X633698Y1872478D01*
X634899Y1870398D01*
X636598Y1868699D01*
X638678Y1867498D01*
X640999Y1866876D01*
X643401D01*
X645722Y1867498D01*
X647802Y1868699D01*
X649501Y1870398D01*
X650702Y1872478D01*
X651324Y1874799D01*
Y1877201D01*
X650702Y1879522D01*
X649501Y1881602D01*
X647802Y1883301D01*
X645722Y1884502D01*
X643401Y1885124D01*
D02*
G37*
G36*
X602124D02*
X583876D01*
Y1866876D01*
X602124D01*
Y1885124D01*
D02*
G37*
G36*
X568801D02*
X566399D01*
X564078Y1884502D01*
X561998Y1883301D01*
X560299Y1881602D01*
X559098Y1879522D01*
X558476Y1877201D01*
Y1874799D01*
X559098Y1872478D01*
X560299Y1870398D01*
X561998Y1868699D01*
X564078Y1867498D01*
X566399Y1866876D01*
X568801D01*
X571122Y1867498D01*
X573202Y1868699D01*
X574901Y1870398D01*
X576102Y1872478D01*
X576724Y1874799D01*
Y1877201D01*
X576102Y1879522D01*
X574901Y1881602D01*
X573202Y1883301D01*
X571122Y1884502D01*
X568801Y1885124D01*
D02*
G37*
G36*
X543401D02*
X540999D01*
X538678Y1884502D01*
X536598Y1883301D01*
X534899Y1881602D01*
X533698Y1879522D01*
X533076Y1877201D01*
Y1874799D01*
X533698Y1872478D01*
X534899Y1870398D01*
X536598Y1868699D01*
X538678Y1867498D01*
X540999Y1866876D01*
X543401D01*
X545722Y1867498D01*
X547802Y1868699D01*
X549501Y1870398D01*
X550702Y1872478D01*
X551324Y1874799D01*
Y1877201D01*
X550702Y1879522D01*
X549501Y1881602D01*
X547802Y1883301D01*
X545722Y1884502D01*
X543401Y1885124D01*
D02*
G37*
G36*
X811895Y1804500D02*
X810105D01*
X808451Y1803815D01*
X807185Y1802549D01*
X806500Y1800895D01*
Y1799105D01*
X807185Y1797451D01*
X808451Y1796185D01*
X810105Y1795500D01*
X811895D01*
X813549Y1796185D01*
X814815Y1797451D01*
X815500Y1799105D01*
Y1800895D01*
X814815Y1802549D01*
X813549Y1803815D01*
X811895Y1804500D01*
D02*
G37*
G36*
X769895Y1775500D02*
X768105D01*
X766451Y1774815D01*
X765185Y1773549D01*
X764500Y1771895D01*
Y1770105D01*
X765185Y1768451D01*
X766451Y1767185D01*
X768105Y1766500D01*
X769895D01*
X771549Y1767185D01*
X772815Y1768451D01*
X773500Y1770105D01*
Y1771895D01*
X772815Y1773549D01*
X771549Y1774815D01*
X769895Y1775500D01*
D02*
G37*
G36*
X542489Y1745150D02*
X540711D01*
X538995Y1744690D01*
X537455Y1743801D01*
X536199Y1742545D01*
X535310Y1741005D01*
X534850Y1739289D01*
Y1737511D01*
X535310Y1735795D01*
X536199Y1734255D01*
X537455Y1732999D01*
X538995Y1732110D01*
X540711Y1731650D01*
X542489D01*
X544205Y1732110D01*
X545745Y1732999D01*
X547001Y1734255D01*
X547890Y1735795D01*
X548350Y1737511D01*
Y1739289D01*
X547890Y1741005D01*
X547001Y1742545D01*
X545745Y1743801D01*
X544205Y1744690D01*
X542489Y1745150D01*
D02*
G37*
G36*
X577250Y1748650D02*
X556750D01*
Y1728150D01*
X577250D01*
Y1748650D01*
D02*
G37*
G36*
X852960Y1736441D02*
X851170D01*
X849516Y1735756D01*
X848250Y1734490D01*
X847565Y1732836D01*
Y1731046D01*
X848250Y1729392D01*
X849516Y1728126D01*
X851170Y1727441D01*
X852960D01*
X854614Y1728126D01*
X855880Y1729392D01*
X856565Y1731046D01*
Y1732836D01*
X855880Y1734490D01*
X854614Y1735756D01*
X852960Y1736441D01*
D02*
G37*
G36*
X542489Y1719750D02*
X540711D01*
X538995Y1719290D01*
X537455Y1718401D01*
X536199Y1717145D01*
X535310Y1715605D01*
X534850Y1713889D01*
Y1712111D01*
X535310Y1710395D01*
X536199Y1708855D01*
X537455Y1707599D01*
X538995Y1706710D01*
X540711Y1706250D01*
X542489D01*
X544205Y1706710D01*
X545745Y1707599D01*
X547001Y1708855D01*
X547890Y1710395D01*
X548350Y1712111D01*
Y1713889D01*
X547890Y1715605D01*
X547001Y1717145D01*
X545745Y1718401D01*
X544205Y1719290D01*
X542489Y1719750D01*
D02*
G37*
G36*
X568349Y1723250D02*
X565651D01*
X563044Y1722552D01*
X560706Y1721202D01*
X558798Y1719294D01*
X557449Y1716956D01*
X556750Y1714349D01*
Y1711651D01*
X557449Y1709044D01*
X558798Y1706706D01*
X560706Y1704798D01*
X563044Y1703448D01*
X565651Y1702750D01*
X568349D01*
X570956Y1703448D01*
X573294Y1704798D01*
X575202Y1706706D01*
X576552Y1709044D01*
X577250Y1711651D01*
Y1714349D01*
X576552Y1716956D01*
X575202Y1719294D01*
X573294Y1721202D01*
X570956Y1722552D01*
X568349Y1723250D01*
D02*
G37*
G36*
X700645Y1706250D02*
X698855D01*
X697201Y1705565D01*
X695935Y1704299D01*
X695250Y1702645D01*
Y1700855D01*
X695935Y1699201D01*
X697201Y1697935D01*
X698855Y1697250D01*
X700645D01*
X702299Y1697935D01*
X703565Y1699201D01*
X704250Y1700855D01*
Y1702645D01*
X703565Y1704299D01*
X702299Y1705565D01*
X700645Y1706250D01*
D02*
G37*
G36*
X862696Y1693500D02*
X861304D01*
X860017Y1692967D01*
X859033Y1691983D01*
X858500Y1690696D01*
Y1689304D01*
X859033Y1688017D01*
X860017Y1687033D01*
X861304Y1686500D01*
X862696D01*
X863983Y1687033D01*
X864967Y1688017D01*
X865500Y1689304D01*
Y1690696D01*
X864967Y1691983D01*
X863983Y1692967D01*
X862696Y1693500D01*
D02*
G37*
G36*
X841696D02*
X840304D01*
X839017Y1692967D01*
X838033Y1691983D01*
X837500Y1690696D01*
Y1689304D01*
X838033Y1688017D01*
X839017Y1687033D01*
X840304Y1686500D01*
X841696D01*
X842983Y1687033D01*
X843967Y1688017D01*
X844500Y1689304D01*
Y1690696D01*
X843967Y1691983D01*
X842983Y1692967D01*
X841696Y1693500D01*
D02*
G37*
G36*
X862696Y1683500D02*
X861304D01*
X860017Y1682967D01*
X859033Y1681983D01*
X858500Y1680696D01*
Y1679304D01*
X859033Y1678017D01*
X860017Y1677033D01*
X861304Y1676500D01*
X862696D01*
X863983Y1677033D01*
X864967Y1678017D01*
X865500Y1679304D01*
Y1680696D01*
X864967Y1681983D01*
X863983Y1682967D01*
X862696Y1683500D01*
D02*
G37*
G36*
X841696D02*
X840304D01*
X839017Y1682967D01*
X838033Y1681983D01*
X837500Y1680696D01*
Y1679304D01*
X838033Y1678017D01*
X839017Y1677033D01*
X840304Y1676500D01*
X841696D01*
X842983Y1677033D01*
X843967Y1678017D01*
X844500Y1679304D01*
Y1680696D01*
X843967Y1681983D01*
X842983Y1682967D01*
X841696Y1683500D01*
D02*
G37*
G36*
X862696Y1673500D02*
X861304D01*
X860017Y1672967D01*
X859033Y1671983D01*
X858500Y1670696D01*
Y1669304D01*
X859033Y1668017D01*
X860017Y1667033D01*
X861304Y1666500D01*
X862696D01*
X863983Y1667033D01*
X864967Y1668017D01*
X865500Y1669304D01*
Y1670696D01*
X864967Y1671983D01*
X863983Y1672967D01*
X862696Y1673500D01*
D02*
G37*
G36*
X841696D02*
X840304D01*
X839017Y1672967D01*
X838033Y1671983D01*
X837500Y1670696D01*
Y1669304D01*
X838033Y1668017D01*
X839017Y1667033D01*
X840304Y1666500D01*
X841696D01*
X842983Y1667033D01*
X843967Y1668017D01*
X844500Y1669304D01*
Y1670696D01*
X843967Y1671983D01*
X842983Y1672967D01*
X841696Y1673500D01*
D02*
G37*
G36*
X862696Y1663500D02*
X861304D01*
X860017Y1662967D01*
X859033Y1661983D01*
X858500Y1660696D01*
Y1659304D01*
X859033Y1658017D01*
X860017Y1657033D01*
X861304Y1656500D01*
X862696D01*
X863983Y1657033D01*
X864967Y1658017D01*
X865500Y1659304D01*
Y1660696D01*
X864967Y1661983D01*
X863983Y1662967D01*
X862696Y1663500D01*
D02*
G37*
G36*
X841696D02*
X840304D01*
X839017Y1662967D01*
X838033Y1661983D01*
X837500Y1660696D01*
Y1659304D01*
X838033Y1658017D01*
X839017Y1657033D01*
X840304Y1656500D01*
X841696D01*
X842983Y1657033D01*
X843967Y1658017D01*
X844500Y1659304D01*
Y1660696D01*
X843967Y1661983D01*
X842983Y1662967D01*
X841696Y1663500D01*
D02*
G37*
G36*
X862696Y1653500D02*
X861304D01*
X860017Y1652967D01*
X859033Y1651983D01*
X858500Y1650696D01*
Y1649304D01*
X859033Y1648017D01*
X860017Y1647033D01*
X861304Y1646500D01*
X862696D01*
X863983Y1647033D01*
X864967Y1648017D01*
X865500Y1649304D01*
Y1650696D01*
X864967Y1651983D01*
X863983Y1652967D01*
X862696Y1653500D01*
D02*
G37*
G36*
X841696D02*
X840304D01*
X839017Y1652967D01*
X838033Y1651983D01*
X837500Y1650696D01*
Y1649304D01*
X838033Y1648017D01*
X839017Y1647033D01*
X840304Y1646500D01*
X841696D01*
X842983Y1647033D01*
X843967Y1648017D01*
X844500Y1649304D01*
Y1650696D01*
X843967Y1651983D01*
X842983Y1652967D01*
X841696Y1653500D01*
D02*
G37*
G36*
X862696Y1643500D02*
X861304D01*
X860017Y1642967D01*
X859033Y1641983D01*
X858500Y1640696D01*
Y1639304D01*
X859033Y1638017D01*
X860017Y1637033D01*
X861304Y1636500D01*
X862696D01*
X863983Y1637033D01*
X864967Y1638017D01*
X865500Y1639304D01*
Y1640696D01*
X864967Y1641983D01*
X863983Y1642967D01*
X862696Y1643500D01*
D02*
G37*
G36*
X841696D02*
X840304D01*
X839017Y1642967D01*
X838033Y1641983D01*
X837500Y1640696D01*
Y1639304D01*
X838033Y1638017D01*
X839017Y1637033D01*
X840304Y1636500D01*
X841696D01*
X842983Y1637033D01*
X843967Y1638017D01*
X844500Y1639304D01*
Y1640696D01*
X843967Y1641983D01*
X842983Y1642967D01*
X841696Y1643500D01*
D02*
G37*
G36*
X862696Y1633500D02*
X861304D01*
X860017Y1632967D01*
X859033Y1631983D01*
X858500Y1630696D01*
Y1629304D01*
X859033Y1628017D01*
X860017Y1627033D01*
X861304Y1626500D01*
X862696D01*
X863983Y1627033D01*
X864967Y1628017D01*
X865500Y1629304D01*
Y1630696D01*
X864967Y1631983D01*
X863983Y1632967D01*
X862696Y1633500D01*
D02*
G37*
G36*
X841696D02*
X840304D01*
X839017Y1632967D01*
X838033Y1631983D01*
X837500Y1630696D01*
Y1629304D01*
X838033Y1628017D01*
X839017Y1627033D01*
X840304Y1626500D01*
X841696D01*
X842983Y1627033D01*
X843967Y1628017D01*
X844500Y1629304D01*
Y1630696D01*
X843967Y1631983D01*
X842983Y1632967D01*
X841696Y1633500D01*
D02*
G37*
G36*
X796980Y1632000D02*
X796900D01*
Y1621500D01*
X807400D01*
Y1621580D01*
X806582Y1624632D01*
X805002Y1627368D01*
X802768Y1629602D01*
X800032Y1631182D01*
X796980Y1632000D01*
D02*
G37*
G36*
X793900D02*
X793820D01*
X790768Y1631182D01*
X788032Y1629602D01*
X785798Y1627368D01*
X784218Y1624632D01*
X783400Y1621580D01*
Y1621500D01*
X793900D01*
Y1632000D01*
D02*
G37*
G36*
X722980D02*
X722900D01*
Y1621500D01*
X733400D01*
Y1621580D01*
X732582Y1624632D01*
X731002Y1627368D01*
X728768Y1629602D01*
X726032Y1631182D01*
X722980Y1632000D01*
D02*
G37*
G36*
X719900D02*
X719820D01*
X716768Y1631182D01*
X714032Y1629602D01*
X711798Y1627368D01*
X710218Y1624632D01*
X709400Y1621580D01*
Y1621500D01*
X719900D01*
Y1632000D01*
D02*
G37*
G36*
X628000D02*
X617500D01*
Y1621500D01*
X628000D01*
Y1632000D01*
D02*
G37*
G36*
X614500D02*
X604000D01*
Y1621500D01*
X614500D01*
Y1632000D01*
D02*
G37*
G36*
X862696Y1623500D02*
X861304D01*
X860017Y1622967D01*
X859033Y1621983D01*
X858500Y1620696D01*
Y1619304D01*
X859033Y1618017D01*
X860017Y1617033D01*
X861304Y1616500D01*
X862696D01*
X863983Y1617033D01*
X864967Y1618017D01*
X865500Y1619304D01*
Y1620696D01*
X864967Y1621983D01*
X863983Y1622967D01*
X862696Y1623500D01*
D02*
G37*
G36*
X841696D02*
X840304D01*
X839017Y1622967D01*
X838033Y1621983D01*
X837500Y1620696D01*
Y1619304D01*
X838033Y1618017D01*
X839017Y1617033D01*
X840304Y1616500D01*
X841696D01*
X842983Y1617033D01*
X843967Y1618017D01*
X844500Y1619304D01*
Y1620696D01*
X843967Y1621983D01*
X842983Y1622967D01*
X841696Y1623500D01*
D02*
G37*
G36*
X780250Y1630250D02*
X759750D01*
Y1609750D01*
X780250D01*
Y1630250D01*
D02*
G37*
G36*
X706250D02*
X685750D01*
Y1609750D01*
X706250D01*
Y1630250D01*
D02*
G37*
G36*
X642749D02*
X640051D01*
X637444Y1629552D01*
X635106Y1628202D01*
X633198Y1626294D01*
X631848Y1623956D01*
X631150Y1621349D01*
Y1618651D01*
X631848Y1616044D01*
X633198Y1613706D01*
X635106Y1611798D01*
X637444Y1610448D01*
X640051Y1609750D01*
X642749D01*
X645356Y1610448D01*
X647694Y1611798D01*
X649602Y1613706D01*
X650952Y1616044D01*
X651650Y1618651D01*
Y1621349D01*
X650952Y1623956D01*
X649602Y1626294D01*
X647694Y1628202D01*
X645356Y1629552D01*
X642749Y1630250D01*
D02*
G37*
G36*
X807400Y1618500D02*
X796900D01*
Y1608000D01*
X796980D01*
X800032Y1608818D01*
X802768Y1610398D01*
X805002Y1612632D01*
X806582Y1615368D01*
X807400Y1618420D01*
Y1618500D01*
D02*
G37*
G36*
X793900D02*
X783400D01*
Y1618420D01*
X784218Y1615368D01*
X785798Y1612632D01*
X788032Y1610398D01*
X790768Y1608818D01*
X793820Y1608000D01*
X793900D01*
Y1618500D01*
D02*
G37*
G36*
X733400D02*
X722900D01*
Y1608000D01*
X722980D01*
X726032Y1608818D01*
X728768Y1610398D01*
X731002Y1612632D01*
X732582Y1615368D01*
X733400Y1618420D01*
Y1618500D01*
D02*
G37*
G36*
X719900D02*
X709400D01*
Y1618420D01*
X710218Y1615368D01*
X711798Y1612632D01*
X714032Y1610398D01*
X716768Y1608818D01*
X719820Y1608000D01*
X719900D01*
Y1618500D01*
D02*
G37*
G36*
X628000D02*
X617500D01*
Y1608000D01*
X628000D01*
Y1618500D01*
D02*
G37*
G36*
X614500D02*
X604000D01*
Y1608000D01*
X614500D01*
Y1618500D01*
D02*
G37*
G36*
X862696Y1613500D02*
X861304D01*
X860017Y1612967D01*
X859033Y1611983D01*
X858500Y1610696D01*
Y1609304D01*
X859033Y1608017D01*
X860017Y1607033D01*
X861304Y1606500D01*
X862696D01*
X863983Y1607033D01*
X864967Y1608017D01*
X865500Y1609304D01*
Y1610696D01*
X864967Y1611983D01*
X863983Y1612967D01*
X862696Y1613500D01*
D02*
G37*
G36*
X841696D02*
X840304D01*
X839017Y1612967D01*
X838033Y1611983D01*
X837500Y1610696D01*
Y1609304D01*
X838033Y1608017D01*
X839017Y1607033D01*
X840304Y1606500D01*
X841696D01*
X842983Y1607033D01*
X843967Y1608017D01*
X844500Y1609304D01*
Y1610696D01*
X843967Y1611983D01*
X842983Y1612967D01*
X841696Y1613500D01*
D02*
G37*
G36*
X862696Y1603500D02*
X861304D01*
X860017Y1602967D01*
X859033Y1601983D01*
X858500Y1600696D01*
Y1599304D01*
X859033Y1598017D01*
X860017Y1597033D01*
X861304Y1596500D01*
X862696D01*
X863983Y1597033D01*
X864967Y1598017D01*
X865500Y1599304D01*
Y1600696D01*
X864967Y1601983D01*
X863983Y1602967D01*
X862696Y1603500D01*
D02*
G37*
G36*
X841696D02*
X840304D01*
X839017Y1602967D01*
X838033Y1601983D01*
X837500Y1600696D01*
Y1599304D01*
X838033Y1598017D01*
X839017Y1597033D01*
X840304Y1596500D01*
X841696D01*
X842983Y1597033D01*
X843967Y1598017D01*
X844500Y1599304D01*
Y1600696D01*
X843967Y1601983D01*
X842983Y1602967D01*
X841696Y1603500D01*
D02*
G37*
%LPD*%
D14*
X523000Y1586000D02*
X893000D01*
X523000Y1996000D02*
X893000D01*
Y1586000D02*
Y1996000D01*
X523000Y1586000D02*
Y1996000D01*
D80*
X721400Y1620000D02*
D03*
X795400D02*
D03*
D81*
X616000D02*
D03*
D85*
X803000Y1801000D02*
D03*
X795000Y1802000D02*
D03*
X780000Y1801000D02*
D03*
X764000Y1800000D02*
D03*
X781000Y1810000D02*
D03*
X875000Y1850000D02*
D03*
Y1800000D02*
D03*
Y1750000D02*
D03*
Y1700000D02*
D03*
Y1650000D02*
D03*
X862500Y1975000D02*
D03*
Y1875000D02*
D03*
X850000Y1850000D02*
D03*
X862500Y1825000D02*
D03*
X837500Y1975000D02*
D03*
Y1875000D02*
D03*
Y1825000D02*
D03*
X825000Y1750000D02*
D03*
X812500Y1975000D02*
D03*
X800000Y1650000D02*
D03*
X787500Y1975000D02*
D03*
X775000Y1750000D02*
D03*
X787500Y1675000D02*
D03*
X775000Y1650000D02*
D03*
X762500Y1975000D02*
D03*
Y1675000D02*
D03*
X750000Y1650000D02*
D03*
Y1600000D02*
D03*
X737500Y1975000D02*
D03*
Y1675000D02*
D03*
X725000Y1650000D02*
D03*
X737500Y1625000D02*
D03*
X712500Y1975000D02*
D03*
X700000Y1950000D02*
D03*
X687500Y1975000D02*
D03*
X675000Y1950000D02*
D03*
X687500Y1925000D02*
D03*
X675000Y1600000D02*
D03*
X662500Y1975000D02*
D03*
X650000Y1950000D02*
D03*
X662500Y1925000D02*
D03*
Y1625000D02*
D03*
X637500Y1975000D02*
D03*
X625000Y1950000D02*
D03*
X637500Y1925000D02*
D03*
X612500Y1975000D02*
D03*
X600000Y1950000D02*
D03*
X612500Y1925000D02*
D03*
Y1675000D02*
D03*
X600000Y1650000D02*
D03*
Y1600000D02*
D03*
X587500Y1975000D02*
D03*
X575000Y1950000D02*
D03*
X587500Y1925000D02*
D03*
Y1675000D02*
D03*
X575000Y1650000D02*
D03*
X587500Y1625000D02*
D03*
X575000Y1600000D02*
D03*
X562500Y1975000D02*
D03*
X550000Y1950000D02*
D03*
X562500Y1925000D02*
D03*
Y1675000D02*
D03*
X550000Y1650000D02*
D03*
X562500Y1625000D02*
D03*
X550000Y1600000D02*
D03*
X661500Y1655000D02*
D03*
X666500D02*
D03*
X671500D02*
D03*
X671500Y1660000D02*
D03*
X666500D02*
D03*
X661500D02*
D03*
X834000Y1641500D02*
D03*
Y1651500D02*
D03*
Y1661500D02*
D03*
Y1671500D02*
D03*
Y1681500D02*
D03*
X831500Y1702833D02*
D03*
X821500D02*
D03*
X811500D02*
D03*
X801500D02*
D03*
X791500D02*
D03*
X781500D02*
D03*
X771500D02*
D03*
X761500D02*
D03*
X751500D02*
D03*
X741500D02*
D03*
X731500D02*
D03*
X721500D02*
D03*
X801500Y1683833D02*
D03*
X791500D02*
D03*
X781500D02*
D03*
X771500D02*
D03*
X761500D02*
D03*
X751500D02*
D03*
X741500D02*
D03*
X731500D02*
D03*
X721500D02*
D03*
X815000Y1681500D02*
D03*
Y1671500D02*
D03*
Y1661500D02*
D03*
Y1651500D02*
D03*
Y1641500D02*
D03*
X775000Y1733000D02*
D03*
Y1742000D02*
D03*
D87*
X588000Y1816000D02*
D03*
X602000Y1858000D02*
D03*
X595000Y1851000D02*
D03*
X588000Y1858000D02*
D03*
X567000Y1809000D02*
D03*
X588000Y1830000D02*
D03*
X581000Y1851000D02*
D03*
X588000Y1844000D02*
D03*
X574000D02*
D03*
X567000Y1837000D02*
D03*
Y1823000D02*
D03*
X574000Y1830000D02*
D03*
M02*
