G04*
G04 #@! TF.GenerationSoftware,Altium Limited,Altium Designer,24.6.1 (21)*
G04*
G04 Layer_Color=2752767*
%FSLAX44Y44*%
%MOMM*%
G71*
G04*
G04 #@! TF.SameCoordinates,BDBC2BC3-1C69-4059-88BB-952B3CEC59DC*
G04*
G04*
G04 #@! TF.FilePolarity,Positive*
G04*
G01*
G75*
%ADD14C,0.2540*%
%ADD88C,0.1693*%
%ADD89C,0.1270*%
D14*
X523000Y1586000D02*
X893000D01*
X523000Y1996000D02*
X893000D01*
Y1586000D02*
Y1996000D01*
X523000Y1586000D02*
Y1996000D01*
D88*
X646480Y1620000D02*
G03*
X646480Y1620000I-5080J0D01*
G01*
X621080D02*
G03*
X621080Y1620000I-5080J0D01*
G01*
X726480D02*
G03*
X726480Y1620000I-5080J0D01*
G01*
X701080D02*
G03*
X701080Y1620000I-5080J0D01*
G01*
X800480D02*
G03*
X800480Y1620000I-5080J0D01*
G01*
X775080D02*
G03*
X775080Y1620000I-5080J0D01*
G01*
X572080Y1738400D02*
G03*
X572080Y1738400I-5080J0D01*
G01*
Y1713000D02*
G03*
X572080Y1713000I-5080J0D01*
G01*
D89*
X641400Y1589520D02*
X636320Y1599680D01*
X646480D01*
X641400Y1589520D01*
X616000D02*
X610920Y1599680D01*
X621080D01*
X616000Y1589520D01*
X637120Y1870920D02*
Y1881080D01*
X647280D01*
Y1870920D01*
X637120D01*
X687920D02*
Y1881080D01*
X698080D01*
Y1870920D01*
X687920D01*
X662520D02*
Y1881080D01*
X672680D01*
Y1870920D01*
X662520D01*
X537120D02*
Y1881080D01*
X547280D01*
Y1870920D01*
X537120D01*
X587920D02*
Y1881080D01*
X598080D01*
Y1870920D01*
X587920D01*
X562520D02*
Y1881080D01*
X572680D01*
Y1870920D01*
X562520D01*
X721400Y1589520D02*
X716320Y1599680D01*
X726480D01*
X721400Y1589520D01*
X696000D02*
X690920Y1599680D01*
X701080D01*
X696000Y1589520D01*
X795400D02*
X790320Y1599680D01*
X800480D01*
X795400Y1589520D01*
X770000D02*
X764920Y1599680D01*
X775080D01*
X770000Y1589520D01*
X541600Y1707920D02*
X536520Y1718080D01*
X546680D01*
X541600Y1707920D01*
Y1733320D02*
X536520Y1743480D01*
X546680D01*
X541600Y1733320D01*
X797920Y1795920D02*
X800460Y1801000D01*
X797920Y1806080D01*
X803000Y1803540D01*
X808080Y1806080D01*
X805540Y1801000D01*
X808080Y1795920D01*
X803000Y1798460D01*
X797920Y1795920D01*
X789920Y1796920D02*
X792460Y1802000D01*
X789920Y1807080D01*
X795000Y1804540D01*
X800080Y1807080D01*
X797540Y1802000D01*
X800080Y1796920D01*
X795000Y1799460D01*
X789920Y1796920D01*
X774920Y1795920D02*
X777460Y1801000D01*
X774920Y1806080D01*
X780000Y1803540D01*
X785080Y1806080D01*
X782540Y1801000D01*
X785080Y1795920D01*
X780000Y1798460D01*
X774920Y1795920D01*
X758920Y1794920D02*
X761460Y1800000D01*
X758920Y1805080D01*
X764000Y1802540D01*
X769080Y1805080D01*
X766540Y1800000D01*
X769080Y1794920D01*
X764000Y1797460D01*
X758920Y1794920D01*
X775920Y1804920D02*
X778460Y1810000D01*
X775920Y1815080D01*
X781000Y1812540D01*
X786080Y1815080D01*
X783540Y1810000D01*
X786080Y1804920D01*
X781000Y1807460D01*
X775920Y1804920D01*
X869920Y1844920D02*
X872460Y1850000D01*
X869920Y1855080D01*
X875000Y1852540D01*
X880080Y1855080D01*
X877540Y1850000D01*
X880080Y1844920D01*
X875000Y1847460D01*
X869920Y1844920D01*
Y1794920D02*
X872460Y1800000D01*
X869920Y1805080D01*
X875000Y1802540D01*
X880080Y1805080D01*
X877540Y1800000D01*
X880080Y1794920D01*
X875000Y1797460D01*
X869920Y1794920D01*
Y1744920D02*
X872460Y1750000D01*
X869920Y1755080D01*
X875000Y1752540D01*
X880080Y1755080D01*
X877540Y1750000D01*
X880080Y1744920D01*
X875000Y1747460D01*
X869920Y1744920D01*
Y1694920D02*
X872460Y1700000D01*
X869920Y1705080D01*
X875000Y1702540D01*
X880080Y1705080D01*
X877540Y1700000D01*
X880080Y1694920D01*
X875000Y1697460D01*
X869920Y1694920D01*
Y1644920D02*
X872460Y1650000D01*
X869920Y1655080D01*
X875000Y1652540D01*
X880080Y1655080D01*
X877540Y1650000D01*
X880080Y1644920D01*
X875000Y1647460D01*
X869920Y1644920D01*
X857420Y1969920D02*
X859960Y1975000D01*
X857420Y1980080D01*
X862500Y1977540D01*
X867580Y1980080D01*
X865040Y1975000D01*
X867580Y1969920D01*
X862500Y1972460D01*
X857420Y1969920D01*
Y1869920D02*
X859960Y1875000D01*
X857420Y1880080D01*
X862500Y1877540D01*
X867580Y1880080D01*
X865040Y1875000D01*
X867580Y1869920D01*
X862500Y1872460D01*
X857420Y1869920D01*
X844920Y1844920D02*
X847460Y1850000D01*
X844920Y1855080D01*
X850000Y1852540D01*
X855080Y1855080D01*
X852540Y1850000D01*
X855080Y1844920D01*
X850000Y1847460D01*
X844920Y1844920D01*
X857420Y1819920D02*
X859960Y1825000D01*
X857420Y1830080D01*
X862500Y1827540D01*
X867580Y1830080D01*
X865040Y1825000D01*
X867580Y1819920D01*
X862500Y1822460D01*
X857420Y1819920D01*
X832420Y1969920D02*
X834960Y1975000D01*
X832420Y1980080D01*
X837500Y1977540D01*
X842580Y1980080D01*
X840040Y1975000D01*
X842580Y1969920D01*
X837500Y1972460D01*
X832420Y1969920D01*
Y1869920D02*
X834960Y1875000D01*
X832420Y1880080D01*
X837500Y1877540D01*
X842580Y1880080D01*
X840040Y1875000D01*
X842580Y1869920D01*
X837500Y1872460D01*
X832420Y1869920D01*
Y1819920D02*
X834960Y1825000D01*
X832420Y1830080D01*
X837500Y1827540D01*
X842580Y1830080D01*
X840040Y1825000D01*
X842580Y1819920D01*
X837500Y1822460D01*
X832420Y1819920D01*
X819920Y1744920D02*
X822460Y1750000D01*
X819920Y1755080D01*
X825000Y1752540D01*
X830080Y1755080D01*
X827540Y1750000D01*
X830080Y1744920D01*
X825000Y1747460D01*
X819920Y1744920D01*
X807420Y1969920D02*
X809960Y1975000D01*
X807420Y1980080D01*
X812500Y1977540D01*
X817580Y1980080D01*
X815040Y1975000D01*
X817580Y1969920D01*
X812500Y1972460D01*
X807420Y1969920D01*
X794920Y1644920D02*
X797460Y1650000D01*
X794920Y1655080D01*
X800000Y1652540D01*
X805080Y1655080D01*
X802540Y1650000D01*
X805080Y1644920D01*
X800000Y1647460D01*
X794920Y1644920D01*
X782420Y1969920D02*
X784960Y1975000D01*
X782420Y1980080D01*
X787500Y1977540D01*
X792580Y1980080D01*
X790040Y1975000D01*
X792580Y1969920D01*
X787500Y1972460D01*
X782420Y1969920D01*
X769920Y1744920D02*
X772460Y1750000D01*
X769920Y1755080D01*
X775000Y1752540D01*
X780080Y1755080D01*
X777540Y1750000D01*
X780080Y1744920D01*
X775000Y1747460D01*
X769920Y1744920D01*
X782420Y1669920D02*
X784960Y1675000D01*
X782420Y1680080D01*
X787500Y1677540D01*
X792580Y1680080D01*
X790040Y1675000D01*
X792580Y1669920D01*
X787500Y1672460D01*
X782420Y1669920D01*
X769920Y1644920D02*
X772460Y1650000D01*
X769920Y1655080D01*
X775000Y1652540D01*
X780080Y1655080D01*
X777540Y1650000D01*
X780080Y1644920D01*
X775000Y1647460D01*
X769920Y1644920D01*
X757420Y1969920D02*
X759960Y1975000D01*
X757420Y1980080D01*
X762500Y1977540D01*
X767580Y1980080D01*
X765040Y1975000D01*
X767580Y1969920D01*
X762500Y1972460D01*
X757420Y1969920D01*
Y1669920D02*
X759960Y1675000D01*
X757420Y1680080D01*
X762500Y1677540D01*
X767580Y1680080D01*
X765040Y1675000D01*
X767580Y1669920D01*
X762500Y1672460D01*
X757420Y1669920D01*
X744920Y1644920D02*
X747460Y1650000D01*
X744920Y1655080D01*
X750000Y1652540D01*
X755080Y1655080D01*
X752540Y1650000D01*
X755080Y1644920D01*
X750000Y1647460D01*
X744920Y1644920D01*
Y1594920D02*
X747460Y1600000D01*
X744920Y1605080D01*
X750000Y1602540D01*
X755080Y1605080D01*
X752540Y1600000D01*
X755080Y1594920D01*
X750000Y1597460D01*
X744920Y1594920D01*
X732420Y1969920D02*
X734960Y1975000D01*
X732420Y1980080D01*
X737500Y1977540D01*
X742580Y1980080D01*
X740040Y1975000D01*
X742580Y1969920D01*
X737500Y1972460D01*
X732420Y1969920D01*
Y1669920D02*
X734960Y1675000D01*
X732420Y1680080D01*
X737500Y1677540D01*
X742580Y1680080D01*
X740040Y1675000D01*
X742580Y1669920D01*
X737500Y1672460D01*
X732420Y1669920D01*
X719920Y1644920D02*
X722460Y1650000D01*
X719920Y1655080D01*
X725000Y1652540D01*
X730080Y1655080D01*
X727540Y1650000D01*
X730080Y1644920D01*
X725000Y1647460D01*
X719920Y1644920D01*
X732420Y1619920D02*
X734960Y1625000D01*
X732420Y1630080D01*
X737500Y1627540D01*
X742580Y1630080D01*
X740040Y1625000D01*
X742580Y1619920D01*
X737500Y1622460D01*
X732420Y1619920D01*
X707420Y1969920D02*
X709960Y1975000D01*
X707420Y1980080D01*
X712500Y1977540D01*
X717580Y1980080D01*
X715040Y1975000D01*
X717580Y1969920D01*
X712500Y1972460D01*
X707420Y1969920D01*
X694920Y1944920D02*
X697460Y1950000D01*
X694920Y1955080D01*
X700000Y1952540D01*
X705080Y1955080D01*
X702540Y1950000D01*
X705080Y1944920D01*
X700000Y1947460D01*
X694920Y1944920D01*
X682420Y1969920D02*
X684960Y1975000D01*
X682420Y1980080D01*
X687500Y1977540D01*
X692580Y1980080D01*
X690040Y1975000D01*
X692580Y1969920D01*
X687500Y1972460D01*
X682420Y1969920D01*
X669920Y1944920D02*
X672460Y1950000D01*
X669920Y1955080D01*
X675000Y1952540D01*
X680080Y1955080D01*
X677540Y1950000D01*
X680080Y1944920D01*
X675000Y1947460D01*
X669920Y1944920D01*
X682420Y1919920D02*
X684960Y1925000D01*
X682420Y1930080D01*
X687500Y1927540D01*
X692580Y1930080D01*
X690040Y1925000D01*
X692580Y1919920D01*
X687500Y1922460D01*
X682420Y1919920D01*
X669920Y1594920D02*
X672460Y1600000D01*
X669920Y1605080D01*
X675000Y1602540D01*
X680080Y1605080D01*
X677540Y1600000D01*
X680080Y1594920D01*
X675000Y1597460D01*
X669920Y1594920D01*
X657420Y1969920D02*
X659960Y1975000D01*
X657420Y1980080D01*
X662500Y1977540D01*
X667580Y1980080D01*
X665040Y1975000D01*
X667580Y1969920D01*
X662500Y1972460D01*
X657420Y1969920D01*
X644920Y1944920D02*
X647460Y1950000D01*
X644920Y1955080D01*
X650000Y1952540D01*
X655080Y1955080D01*
X652540Y1950000D01*
X655080Y1944920D01*
X650000Y1947460D01*
X644920Y1944920D01*
X657420Y1919920D02*
X659960Y1925000D01*
X657420Y1930080D01*
X662500Y1927540D01*
X667580Y1930080D01*
X665040Y1925000D01*
X667580Y1919920D01*
X662500Y1922460D01*
X657420Y1919920D01*
Y1619920D02*
X659960Y1625000D01*
X657420Y1630080D01*
X662500Y1627540D01*
X667580Y1630080D01*
X665040Y1625000D01*
X667580Y1619920D01*
X662500Y1622460D01*
X657420Y1619920D01*
X632420Y1969920D02*
X634960Y1975000D01*
X632420Y1980080D01*
X637500Y1977540D01*
X642580Y1980080D01*
X640040Y1975000D01*
X642580Y1969920D01*
X637500Y1972460D01*
X632420Y1969920D01*
X619920Y1944920D02*
X622460Y1950000D01*
X619920Y1955080D01*
X625000Y1952540D01*
X630080Y1955080D01*
X627540Y1950000D01*
X630080Y1944920D01*
X625000Y1947460D01*
X619920Y1944920D01*
X632420Y1919920D02*
X634960Y1925000D01*
X632420Y1930080D01*
X637500Y1927540D01*
X642580Y1930080D01*
X640040Y1925000D01*
X642580Y1919920D01*
X637500Y1922460D01*
X632420Y1919920D01*
X607420Y1969920D02*
X609960Y1975000D01*
X607420Y1980080D01*
X612500Y1977540D01*
X617580Y1980080D01*
X615040Y1975000D01*
X617580Y1969920D01*
X612500Y1972460D01*
X607420Y1969920D01*
X594920Y1944920D02*
X597460Y1950000D01*
X594920Y1955080D01*
X600000Y1952540D01*
X605080Y1955080D01*
X602540Y1950000D01*
X605080Y1944920D01*
X600000Y1947460D01*
X594920Y1944920D01*
X607420Y1919920D02*
X609960Y1925000D01*
X607420Y1930080D01*
X612500Y1927540D01*
X617580Y1930080D01*
X615040Y1925000D01*
X617580Y1919920D01*
X612500Y1922460D01*
X607420Y1919920D01*
Y1669920D02*
X609960Y1675000D01*
X607420Y1680080D01*
X612500Y1677540D01*
X617580Y1680080D01*
X615040Y1675000D01*
X617580Y1669920D01*
X612500Y1672460D01*
X607420Y1669920D01*
X594920Y1644920D02*
X597460Y1650000D01*
X594920Y1655080D01*
X600000Y1652540D01*
X605080Y1655080D01*
X602540Y1650000D01*
X605080Y1644920D01*
X600000Y1647460D01*
X594920Y1644920D01*
Y1594920D02*
X597460Y1600000D01*
X594920Y1605080D01*
X600000Y1602540D01*
X605080Y1605080D01*
X602540Y1600000D01*
X605080Y1594920D01*
X600000Y1597460D01*
X594920Y1594920D01*
X582420Y1969920D02*
X584960Y1975000D01*
X582420Y1980080D01*
X587500Y1977540D01*
X592580Y1980080D01*
X590040Y1975000D01*
X592580Y1969920D01*
X587500Y1972460D01*
X582420Y1969920D01*
X569920Y1944920D02*
X572460Y1950000D01*
X569920Y1955080D01*
X575000Y1952540D01*
X580080Y1955080D01*
X577540Y1950000D01*
X580080Y1944920D01*
X575000Y1947460D01*
X569920Y1944920D01*
X582420Y1919920D02*
X584960Y1925000D01*
X582420Y1930080D01*
X587500Y1927540D01*
X592580Y1930080D01*
X590040Y1925000D01*
X592580Y1919920D01*
X587500Y1922460D01*
X582420Y1919920D01*
Y1669920D02*
X584960Y1675000D01*
X582420Y1680080D01*
X587500Y1677540D01*
X592580Y1680080D01*
X590040Y1675000D01*
X592580Y1669920D01*
X587500Y1672460D01*
X582420Y1669920D01*
X569920Y1644920D02*
X572460Y1650000D01*
X569920Y1655080D01*
X575000Y1652540D01*
X580080Y1655080D01*
X577540Y1650000D01*
X580080Y1644920D01*
X575000Y1647460D01*
X569920Y1644920D01*
X582420Y1619920D02*
X584960Y1625000D01*
X582420Y1630080D01*
X587500Y1627540D01*
X592580Y1630080D01*
X590040Y1625000D01*
X592580Y1619920D01*
X587500Y1622460D01*
X582420Y1619920D01*
X569920Y1594920D02*
X572460Y1600000D01*
X569920Y1605080D01*
X575000Y1602540D01*
X580080Y1605080D01*
X577540Y1600000D01*
X580080Y1594920D01*
X575000Y1597460D01*
X569920Y1594920D01*
X557420Y1969920D02*
X559960Y1975000D01*
X557420Y1980080D01*
X562500Y1977540D01*
X567580Y1980080D01*
X565040Y1975000D01*
X567580Y1969920D01*
X562500Y1972460D01*
X557420Y1969920D01*
X544920Y1944920D02*
X547460Y1950000D01*
X544920Y1955080D01*
X550000Y1952540D01*
X555080Y1955080D01*
X552540Y1950000D01*
X555080Y1944920D01*
X550000Y1947460D01*
X544920Y1944920D01*
X557420Y1919920D02*
X559960Y1925000D01*
X557420Y1930080D01*
X562500Y1927540D01*
X567580Y1930080D01*
X565040Y1925000D01*
X567580Y1919920D01*
X562500Y1922460D01*
X557420Y1919920D01*
Y1669920D02*
X559960Y1675000D01*
X557420Y1680080D01*
X562500Y1677540D01*
X567580Y1680080D01*
X565040Y1675000D01*
X567580Y1669920D01*
X562500Y1672460D01*
X557420Y1669920D01*
X544920Y1644920D02*
X547460Y1650000D01*
X544920Y1655080D01*
X550000Y1652540D01*
X555080Y1655080D01*
X552540Y1650000D01*
X555080Y1644920D01*
X550000Y1647460D01*
X544920Y1644920D01*
X557420Y1619920D02*
X559960Y1625000D01*
X557420Y1630080D01*
X562500Y1627540D01*
X567580Y1630080D01*
X565040Y1625000D01*
X567580Y1619920D01*
X562500Y1622460D01*
X557420Y1619920D01*
X544920Y1594920D02*
X547460Y1600000D01*
X544920Y1605080D01*
X550000Y1602540D01*
X555080Y1605080D01*
X552540Y1600000D01*
X555080Y1594920D01*
X550000Y1597460D01*
X544920Y1594920D01*
X699750Y1696670D02*
X702290Y1699210D01*
X704830D01*
X702290Y1701750D01*
X704830Y1704290D01*
X702290D01*
X699750Y1706830D01*
X697210Y1704290D01*
X694670D01*
X697210Y1701750D01*
X694670Y1699210D01*
X697210D01*
X699750Y1696670D01*
X588000Y1810920D02*
X590540Y1813460D01*
X593080D01*
X590540Y1816000D01*
X593080Y1818540D01*
X590540D01*
X588000Y1821080D01*
X585460Y1818540D01*
X582920D01*
X585460Y1816000D01*
X582920Y1813460D01*
X585460D01*
X588000Y1810920D01*
X602000Y1852920D02*
X604540Y1855460D01*
X607080D01*
X604540Y1858000D01*
X607080Y1860540D01*
X604540D01*
X602000Y1863080D01*
X599460Y1860540D01*
X596920D01*
X599460Y1858000D01*
X596920Y1855460D01*
X599460D01*
X602000Y1852920D01*
X595000Y1845920D02*
X597540Y1848460D01*
X600080D01*
X597540Y1851000D01*
X600080Y1853540D01*
X597540D01*
X595000Y1856080D01*
X592460Y1853540D01*
X589920D01*
X592460Y1851000D01*
X589920Y1848460D01*
X592460D01*
X595000Y1845920D01*
X588000Y1852920D02*
X590540Y1855460D01*
X593080D01*
X590540Y1858000D01*
X593080Y1860540D01*
X590540D01*
X588000Y1863080D01*
X585460Y1860540D01*
X582920D01*
X585460Y1858000D01*
X582920Y1855460D01*
X585460D01*
X588000Y1852920D01*
X567000Y1803920D02*
X569540Y1806460D01*
X572080D01*
X569540Y1809000D01*
X572080Y1811540D01*
X569540D01*
X567000Y1814080D01*
X564460Y1811540D01*
X561920D01*
X564460Y1809000D01*
X561920Y1806460D01*
X564460D01*
X567000Y1803920D01*
X588000Y1824920D02*
X590540Y1827460D01*
X593080D01*
X590540Y1830000D01*
X593080Y1832540D01*
X590540D01*
X588000Y1835080D01*
X585460Y1832540D01*
X582920D01*
X585460Y1830000D01*
X582920Y1827460D01*
X585460D01*
X588000Y1824920D01*
X581000Y1845920D02*
X583540Y1848460D01*
X586080D01*
X583540Y1851000D01*
X586080Y1853540D01*
X583540D01*
X581000Y1856080D01*
X578460Y1853540D01*
X575920D01*
X578460Y1851000D01*
X575920Y1848460D01*
X578460D01*
X581000Y1845920D01*
X588000Y1838920D02*
X590540Y1841460D01*
X593080D01*
X590540Y1844000D01*
X593080Y1846540D01*
X590540D01*
X588000Y1849080D01*
X585460Y1846540D01*
X582920D01*
X585460Y1844000D01*
X582920Y1841460D01*
X585460D01*
X588000Y1838920D01*
X574000D02*
X576540Y1841460D01*
X579080D01*
X576540Y1844000D01*
X579080Y1846540D01*
X576540D01*
X574000Y1849080D01*
X571460Y1846540D01*
X568920D01*
X571460Y1844000D01*
X568920Y1841460D01*
X571460D01*
X574000Y1838920D01*
X567000Y1831920D02*
X569540Y1834460D01*
X572080D01*
X569540Y1837000D01*
X572080Y1839540D01*
X569540D01*
X567000Y1842080D01*
X564460Y1839540D01*
X561920D01*
X564460Y1837000D01*
X561920Y1834460D01*
X564460D01*
X567000Y1831920D01*
Y1817920D02*
X569540Y1820460D01*
X572080D01*
X569540Y1823000D01*
X572080Y1825540D01*
X569540D01*
X567000Y1828080D01*
X564460Y1825540D01*
X561920D01*
X564460Y1823000D01*
X561920Y1820460D01*
X564460D01*
X567000Y1817920D01*
X574000Y1824920D02*
X576540Y1827460D01*
X579080D01*
X576540Y1830000D01*
X579080Y1832540D01*
X576540D01*
X574000Y1835080D01*
X571460Y1832540D01*
X568920D01*
X571460Y1830000D01*
X568920Y1827460D01*
X571460D01*
X574000Y1824920D01*
X656420Y1649920D02*
X658960Y1655000D01*
X656420Y1660080D01*
X661500Y1657540D01*
X666580Y1660080D01*
X664040Y1655000D01*
X666580Y1649920D01*
X661500Y1652460D01*
X656420Y1649920D01*
X661420D02*
X663960Y1655000D01*
X661420Y1660080D01*
X666500Y1657540D01*
X671580Y1660080D01*
X669040Y1655000D01*
X671580Y1649920D01*
X666500Y1652460D01*
X661420Y1649920D01*
X666420D02*
X668960Y1655000D01*
X666420Y1660080D01*
X671500Y1657540D01*
X676580Y1660080D01*
X674040Y1655000D01*
X676580Y1649920D01*
X671500Y1652460D01*
X666420Y1649920D01*
X666420Y1654920D02*
X668960Y1660000D01*
X666420Y1665080D01*
X671500Y1662540D01*
X676580Y1665080D01*
X674040Y1660000D01*
X676580Y1654920D01*
X671500Y1657460D01*
X666420Y1654920D01*
X661420D02*
X663960Y1660000D01*
X661420Y1665080D01*
X666500Y1662540D01*
X671580Y1665080D01*
X669040Y1660000D01*
X671580Y1654920D01*
X666500Y1657460D01*
X661420Y1654920D01*
X656420D02*
X658960Y1660000D01*
X656420Y1665080D01*
X661500Y1662540D01*
X666580Y1665080D01*
X664040Y1660000D01*
X666580Y1654920D01*
X661500Y1657460D01*
X656420Y1654920D01*
X835920Y1674920D02*
X838460Y1680000D01*
X835920Y1685080D01*
X841000Y1682540D01*
X846080Y1685080D01*
X843540Y1680000D01*
X846080Y1674920D01*
X841000Y1677460D01*
X835920Y1674920D01*
Y1664920D02*
X838460Y1670000D01*
X835920Y1675080D01*
X841000Y1672540D01*
X846080Y1675080D01*
X843540Y1670000D01*
X846080Y1664920D01*
X841000Y1667460D01*
X835920Y1664920D01*
Y1654920D02*
X838460Y1660000D01*
X835920Y1665080D01*
X841000Y1662540D01*
X846080Y1665080D01*
X843540Y1660000D01*
X846080Y1654920D01*
X841000Y1657460D01*
X835920Y1654920D01*
Y1644920D02*
X838460Y1650000D01*
X835920Y1655080D01*
X841000Y1652540D01*
X846080Y1655080D01*
X843540Y1650000D01*
X846080Y1644920D01*
X841000Y1647460D01*
X835920Y1644920D01*
Y1634920D02*
X838460Y1640000D01*
X835920Y1645080D01*
X841000Y1642540D01*
X846080Y1645080D01*
X843540Y1640000D01*
X846080Y1634920D01*
X841000Y1637460D01*
X835920Y1634920D01*
Y1624920D02*
X838460Y1630000D01*
X835920Y1635080D01*
X841000Y1632540D01*
X846080Y1635080D01*
X843540Y1630000D01*
X846080Y1624920D01*
X841000Y1627460D01*
X835920Y1624920D01*
Y1614920D02*
X838460Y1620000D01*
X835920Y1625080D01*
X841000Y1622540D01*
X846080Y1625080D01*
X843540Y1620000D01*
X846080Y1614920D01*
X841000Y1617460D01*
X835920Y1614920D01*
Y1604920D02*
X838460Y1610000D01*
X835920Y1615080D01*
X841000Y1612540D01*
X846080Y1615080D01*
X843540Y1610000D01*
X846080Y1604920D01*
X841000Y1607460D01*
X835920Y1604920D01*
Y1594920D02*
X838460Y1600000D01*
X835920Y1605080D01*
X841000Y1602540D01*
X846080Y1605080D01*
X843540Y1600000D01*
X846080Y1594920D01*
X841000Y1597460D01*
X835920Y1594920D01*
Y1684920D02*
X838460Y1690000D01*
X835920Y1695080D01*
X841000Y1692540D01*
X846080Y1695080D01*
X843540Y1690000D01*
X846080Y1684920D01*
X841000Y1687460D01*
X835920Y1684920D01*
X828920Y1636420D02*
X831460Y1641500D01*
X828920Y1646580D01*
X834000Y1644040D01*
X839080Y1646580D01*
X836540Y1641500D01*
X839080Y1636420D01*
X834000Y1638960D01*
X828920Y1636420D01*
Y1646420D02*
X831460Y1651500D01*
X828920Y1656580D01*
X834000Y1654040D01*
X839080Y1656580D01*
X836540Y1651500D01*
X839080Y1646420D01*
X834000Y1648960D01*
X828920Y1646420D01*
Y1656420D02*
X831460Y1661500D01*
X828920Y1666580D01*
X834000Y1664040D01*
X839080Y1666580D01*
X836540Y1661500D01*
X839080Y1656420D01*
X834000Y1658960D01*
X828920Y1656420D01*
Y1666420D02*
X831460Y1671500D01*
X828920Y1676580D01*
X834000Y1674040D01*
X839080Y1676580D01*
X836540Y1671500D01*
X839080Y1666420D01*
X834000Y1668960D01*
X828920Y1666420D01*
Y1676420D02*
X831460Y1681500D01*
X828920Y1686580D01*
X834000Y1684040D01*
X839080Y1686580D01*
X836540Y1681500D01*
X839080Y1676420D01*
X834000Y1678960D01*
X828920Y1676420D01*
X826420Y1697753D02*
X828960Y1702833D01*
X826420Y1707913D01*
X831500Y1705373D01*
X836580Y1707913D01*
X834040Y1702833D01*
X836580Y1697753D01*
X831500Y1700293D01*
X826420Y1697753D01*
X816420D02*
X818960Y1702833D01*
X816420Y1707913D01*
X821500Y1705373D01*
X826580Y1707913D01*
X824040Y1702833D01*
X826580Y1697753D01*
X821500Y1700293D01*
X816420Y1697753D01*
X806420D02*
X808960Y1702833D01*
X806420Y1707913D01*
X811500Y1705373D01*
X816580Y1707913D01*
X814040Y1702833D01*
X816580Y1697753D01*
X811500Y1700293D01*
X806420Y1697753D01*
X796420D02*
X798960Y1702833D01*
X796420Y1707913D01*
X801500Y1705373D01*
X806580Y1707913D01*
X804040Y1702833D01*
X806580Y1697753D01*
X801500Y1700293D01*
X796420Y1697753D01*
X786420D02*
X788960Y1702833D01*
X786420Y1707913D01*
X791500Y1705373D01*
X796580Y1707913D01*
X794040Y1702833D01*
X796580Y1697753D01*
X791500Y1700293D01*
X786420Y1697753D01*
X776420D02*
X778960Y1702833D01*
X776420Y1707913D01*
X781500Y1705373D01*
X786580Y1707913D01*
X784040Y1702833D01*
X786580Y1697753D01*
X781500Y1700293D01*
X776420Y1697753D01*
X766420D02*
X768960Y1702833D01*
X766420Y1707913D01*
X771500Y1705373D01*
X776580Y1707913D01*
X774040Y1702833D01*
X776580Y1697753D01*
X771500Y1700293D01*
X766420Y1697753D01*
X756420D02*
X758960Y1702833D01*
X756420Y1707913D01*
X761500Y1705373D01*
X766580Y1707913D01*
X764040Y1702833D01*
X766580Y1697753D01*
X761500Y1700293D01*
X756420Y1697753D01*
X746420D02*
X748960Y1702833D01*
X746420Y1707913D01*
X751500Y1705373D01*
X756580Y1707913D01*
X754040Y1702833D01*
X756580Y1697753D01*
X751500Y1700293D01*
X746420Y1697753D01*
X736420D02*
X738960Y1702833D01*
X736420Y1707913D01*
X741500Y1705373D01*
X746580Y1707913D01*
X744040Y1702833D01*
X746580Y1697753D01*
X741500Y1700293D01*
X736420Y1697753D01*
X726420D02*
X728960Y1702833D01*
X726420Y1707913D01*
X731500Y1705373D01*
X736580Y1707913D01*
X734040Y1702833D01*
X736580Y1697753D01*
X731500Y1700293D01*
X726420Y1697753D01*
X716420D02*
X718960Y1702833D01*
X716420Y1707913D01*
X721500Y1705373D01*
X726580Y1707913D01*
X724040Y1702833D01*
X726580Y1697753D01*
X721500Y1700293D01*
X716420Y1697753D01*
X796420Y1678753D02*
X798960Y1683833D01*
X796420Y1688913D01*
X801500Y1686373D01*
X806580Y1688913D01*
X804040Y1683833D01*
X806580Y1678753D01*
X801500Y1681293D01*
X796420Y1678753D01*
X786420D02*
X788960Y1683833D01*
X786420Y1688913D01*
X791500Y1686373D01*
X796580Y1688913D01*
X794040Y1683833D01*
X796580Y1678753D01*
X791500Y1681293D01*
X786420Y1678753D01*
X776420D02*
X778960Y1683833D01*
X776420Y1688913D01*
X781500Y1686373D01*
X786580Y1688913D01*
X784040Y1683833D01*
X786580Y1678753D01*
X781500Y1681293D01*
X776420Y1678753D01*
X766420D02*
X768960Y1683833D01*
X766420Y1688913D01*
X771500Y1686373D01*
X776580Y1688913D01*
X774040Y1683833D01*
X776580Y1678753D01*
X771500Y1681293D01*
X766420Y1678753D01*
X756420D02*
X758960Y1683833D01*
X756420Y1688913D01*
X761500Y1686373D01*
X766580Y1688913D01*
X764040Y1683833D01*
X766580Y1678753D01*
X761500Y1681293D01*
X756420Y1678753D01*
X746420D02*
X748960Y1683833D01*
X746420Y1688913D01*
X751500Y1686373D01*
X756580Y1688913D01*
X754040Y1683833D01*
X756580Y1678753D01*
X751500Y1681293D01*
X746420Y1678753D01*
X736420D02*
X738960Y1683833D01*
X736420Y1688913D01*
X741500Y1686373D01*
X746580Y1688913D01*
X744040Y1683833D01*
X746580Y1678753D01*
X741500Y1681293D01*
X736420Y1678753D01*
X726420D02*
X728960Y1683833D01*
X726420Y1688913D01*
X731500Y1686373D01*
X736580Y1688913D01*
X734040Y1683833D01*
X736580Y1678753D01*
X731500Y1681293D01*
X726420Y1678753D01*
X716420D02*
X718960Y1683833D01*
X716420Y1688913D01*
X721500Y1686373D01*
X726580Y1688913D01*
X724040Y1683833D01*
X726580Y1678753D01*
X721500Y1681293D01*
X716420Y1678753D01*
X809920Y1676420D02*
X812460Y1681500D01*
X809920Y1686580D01*
X815000Y1684040D01*
X820080Y1686580D01*
X817540Y1681500D01*
X820080Y1676420D01*
X815000Y1678960D01*
X809920Y1676420D01*
Y1666420D02*
X812460Y1671500D01*
X809920Y1676580D01*
X815000Y1674040D01*
X820080Y1676580D01*
X817540Y1671500D01*
X820080Y1666420D01*
X815000Y1668960D01*
X809920Y1666420D01*
Y1656420D02*
X812460Y1661500D01*
X809920Y1666580D01*
X815000Y1664040D01*
X820080Y1666580D01*
X817540Y1661500D01*
X820080Y1656420D01*
X815000Y1658960D01*
X809920Y1656420D01*
Y1646420D02*
X812460Y1651500D01*
X809920Y1656580D01*
X815000Y1654040D01*
X820080Y1656580D01*
X817540Y1651500D01*
X820080Y1646420D01*
X815000Y1648960D01*
X809920Y1646420D01*
Y1636420D02*
X812460Y1641500D01*
X809920Y1646580D01*
X815000Y1644040D01*
X820080Y1646580D01*
X817540Y1641500D01*
X820080Y1636420D01*
X815000Y1638960D01*
X809920Y1636420D01*
X856920Y1684920D02*
X859460Y1690000D01*
X856920Y1695080D01*
X862000Y1692540D01*
X867080Y1695080D01*
X864540Y1690000D01*
X867080Y1684920D01*
X862000Y1687460D01*
X856920Y1684920D01*
Y1594920D02*
X859460Y1600000D01*
X856920Y1605080D01*
X862000Y1602540D01*
X867080Y1605080D01*
X864540Y1600000D01*
X867080Y1594920D01*
X862000Y1597460D01*
X856920Y1594920D01*
Y1604920D02*
X859460Y1610000D01*
X856920Y1615080D01*
X862000Y1612540D01*
X867080Y1615080D01*
X864540Y1610000D01*
X867080Y1604920D01*
X862000Y1607460D01*
X856920Y1604920D01*
Y1614920D02*
X859460Y1620000D01*
X856920Y1625080D01*
X862000Y1622540D01*
X867080Y1625080D01*
X864540Y1620000D01*
X867080Y1614920D01*
X862000Y1617460D01*
X856920Y1614920D01*
Y1624920D02*
X859460Y1630000D01*
X856920Y1635080D01*
X862000Y1632540D01*
X867080Y1635080D01*
X864540Y1630000D01*
X867080Y1624920D01*
X862000Y1627460D01*
X856920Y1624920D01*
Y1634920D02*
X859460Y1640000D01*
X856920Y1645080D01*
X862000Y1642540D01*
X867080Y1645080D01*
X864540Y1640000D01*
X867080Y1634920D01*
X862000Y1637460D01*
X856920Y1634920D01*
Y1644920D02*
X859460Y1650000D01*
X856920Y1655080D01*
X862000Y1652540D01*
X867080Y1655080D01*
X864540Y1650000D01*
X867080Y1644920D01*
X862000Y1647460D01*
X856920Y1644920D01*
Y1654920D02*
X859460Y1660000D01*
X856920Y1665080D01*
X862000Y1662540D01*
X867080Y1665080D01*
X864540Y1660000D01*
X867080Y1654920D01*
X862000Y1657460D01*
X856920Y1654920D01*
Y1664920D02*
X859460Y1670000D01*
X856920Y1675080D01*
X862000Y1672540D01*
X867080Y1675080D01*
X864540Y1670000D01*
X867080Y1664920D01*
X862000Y1667460D01*
X856920Y1664920D01*
Y1674920D02*
X859460Y1680000D01*
X856920Y1685080D01*
X862000Y1682540D01*
X867080Y1685080D01*
X864540Y1680000D01*
X867080Y1674920D01*
X862000Y1677460D01*
X856920Y1674920D01*
X811000Y1794920D02*
X813540Y1797460D01*
X816080D01*
X813540Y1800000D01*
X816080Y1802540D01*
X813540D01*
X811000Y1805080D01*
X808460Y1802540D01*
X805920D01*
X808460Y1800000D01*
X805920Y1797460D01*
X808460D01*
X811000Y1794920D01*
X769920Y1727920D02*
X772460Y1733000D01*
X769920Y1738080D01*
X775000Y1735540D01*
X780080Y1738080D01*
X777540Y1733000D01*
X780080Y1727920D01*
X775000Y1730460D01*
X769920Y1727920D01*
Y1736920D02*
X772460Y1742000D01*
X769920Y1747080D01*
X775000Y1744540D01*
X780080Y1747080D01*
X777540Y1742000D01*
X780080Y1736920D01*
X775000Y1739460D01*
X769920Y1736920D01*
X769000Y1765920D02*
X771540Y1768460D01*
X774080D01*
X771540Y1771000D01*
X774080Y1773540D01*
X771540D01*
X769000Y1776080D01*
X766460Y1773540D01*
X763920D01*
X766460Y1771000D01*
X763920Y1768460D01*
X766460D01*
X769000Y1765920D01*
X852065Y1726861D02*
X854605Y1729401D01*
X857145D01*
X854605Y1731941D01*
X857145Y1734481D01*
X854605D01*
X852065Y1737021D01*
X849525Y1734481D01*
X846985D01*
X849525Y1731941D01*
X846985Y1729401D01*
X849525D01*
X852065Y1726861D01*
M02*
