M48
;Layer_Color=9474304
;FILE_FORMAT=4:4
METRIC,TZ
;TYPE=PLATED
T01F00S00C0.2000
T02F00S00C0.3000
T03F00S00C1.0000
T04F00S00C1.1000
%
T01
X550000Y1600000
X575000
X600000
X587500Y1625000
X562500
X575000Y1650000
X600000
X612500Y1675000
X587500
X562500
X550000Y1650000
X661500Y1655000
X666500
X671500
X671500Y1660000
X666500
X661500
X662500Y1625000
X675000Y1600000
X750000
X737500Y1625000
X750000Y1650000
X775000
X771500Y1683833
X781500
X791500
X787500Y1675000
X762500
X761500Y1683833
X751500
X741500
X731500
X721500
Y1702833
X731500
X741500
X751500
X761500
X771500
X781500
X791500
X775000Y1733000
Y1742000
X775000Y1750000
X780000Y1801000
X781000Y1810000
X764000Y1800000
X737500Y1675000
X725000Y1650000
X687500Y1925000
X662500
X637500
X612500
X587500
X562500
X575000Y1950000
X600000
X625000
X650000
X675000
X700000
X712500Y1975000
X737500
X762500
X787500
X687500
X662500
X637500
X612500
X587500
X562500
X550000Y1950000
X812500Y1975000
X837500
X862500
Y1875000
X837500
X850000Y1850000
X875000
X862500Y1825000
X837500
X803000Y1801000
X795000Y1802000
X875000Y1800000
Y1750000
Y1700000
X862000Y1690000
Y1680000
Y1670000
Y1660000
Y1650000
Y1640000
Y1630000
Y1620000
Y1610000
Y1600000
X841000
Y1610000
Y1620000
Y1630000
Y1640000
X834000Y1641500
Y1651500
X841000Y1650000
Y1660000
X834000Y1661500
Y1671500
X841000Y1670000
Y1680000
X834000Y1681500
X841000Y1690000
X831500Y1702833
X821500
X811500
X801500
Y1683833
X815000Y1681500
Y1671500
Y1661500
Y1651500
Y1641500
X800000Y1650000
X875000
X825000Y1750000
T02
X567000Y1809000
Y1823000
Y1837000
X574000Y1844000
X581000Y1851000
X588000Y1844000
X595000Y1851000
X602000Y1858000
X588000
X588000Y1830000
X574000
X588000Y1816000
X699750Y1701750
X769000Y1771000
X811000Y1800000
X852065Y1731941
T03
X542200Y1876000
X567600
X593000
X642200
X667600
X693000
T04
X616000Y1620000
X641400
X696000
X721400
X770000
X567000Y1713000
Y1738400
X795400Y1620000
M30
